<svg width="14" height="9" viewBox="0 0 14 9" fill="none" xmlns="http://www.w3.org/2000/svg">
<path d="M0.768643 1.62247L1.42778 0.995051C1.51561 0.911266 1.61678 0.869506 1.73116 0.869506C1.84527 0.869506 1.9464 0.911266 2.03423 0.995051L7.21574 5.92732L12.397 0.995184C12.4849 0.911399 12.586 0.869639 12.7003 0.869639C12.8146 0.869639 12.9157 0.911399 13.0035 0.995184L13.6626 1.62265C13.7506 1.70626 13.7944 1.80252 13.7944 1.91132C13.7944 2.02003 13.7504 2.1163 13.6626 2.19991L7.51898 8.0484C7.43115 8.13205 7.32998 8.17386 7.21574 8.17386C7.10149 8.17386 7.0005 8.13205 6.91272 8.0484L0.768643 2.19991C0.680814 2.11625 0.637177 2.01999 0.637177 1.91132C0.637177 1.80252 0.680814 1.70625 0.768643 1.62247Z" fill="#FBC400"/>
</svg>
