<svg width="14" height="9" viewBox="0 0 14 9" fill="none" xmlns="http://www.w3.org/2000/svg">
<path d="M13.663 7.4209L13.0039 8.04831C12.916 8.1321 12.8149 8.17386 12.7005 8.17386C12.5864 8.17386 12.4852 8.1321 12.3974 8.04831L7.21591 3.11605L2.03462 8.04818C1.94675 8.13197 1.84562 8.17373 1.73138 8.17373C1.61709 8.17373 1.51596 8.13197 1.42813 8.04818L0.76909 7.42072C0.681076 7.33711 0.637207 7.24084 0.637207 7.13204C0.637207 7.02333 0.681214 6.92707 0.76909 6.84346L6.91266 0.994963C7.00049 0.911311 7.10166 0.869506 7.21591 0.869506C7.33015 0.869506 7.43114 0.911311 7.51892 0.994963L13.663 6.84346C13.7508 6.92711 13.7945 7.02338 13.7945 7.13204C13.7945 7.24084 13.7508 7.33711 13.663 7.4209Z" fill="#FBC400"/>
</svg>
