<svg width="14" height="8" viewBox="0 0 14 8" fill="none" xmlns="http://www.w3.org/2000/svg">
<path d="M7.00296 2.68829L1.76537 7.78256C1.6215 7.92283 1.42914 8 1.22403 8C1.01881 8 0.826569 7.92283 0.682472 7.78256L0.223772 7.33618C0.0794471 7.19613 2.42973e-09 7.00891 2.36057e-09 6.80941C2.29141e-09 6.60991 0.0794471 6.42292 0.223772 6.28276L6.45958 0.217219C6.60413 0.0765045 6.79729 -0.000550545 7.00262 3.01272e-06C7.20886 -0.000550542 7.40179 0.0763938 7.54646 0.217219L13.7762 6.27711C13.9206 6.41727 14 6.60426 14 6.80388C14 7.00338 13.9206 7.19037 13.7762 7.33064L13.3175 7.77692C13.019 8.06731 12.533 8.06731 12.2345 7.77692L7.00296 2.68829Z" fill="#C2CCD6"/>
</svg>
