<svg width="14" height="8" viewBox="0 0 14 8" fill="none" xmlns="http://www.w3.org/2000/svg">
<path d="M6.99704 5.31171L12.2346 0.217436C12.3785 0.0771651 12.5709 -5.49408e-08 12.776 -4.70559e-08C12.9812 -3.91665e-08 13.1734 0.0771651 13.3175 0.217436L13.7762 0.663824C13.9206 0.803874 14 0.991087 14 1.19059C14 1.39009 13.9206 1.57708 13.7762 1.71724L7.54042 7.78278C7.39587 7.9235 7.20271 8.00055 6.99738 8C6.79114 8.00055 6.59821 7.92361 6.45354 7.78278L0.223773 1.72289C0.0794479 1.58273 2.07637e-07 1.39574 2.13913e-07 1.19612C2.20185e-07 0.996623 0.079448 0.80963 0.223773 0.669359L0.682472 0.223083C0.981024 -0.0673127 1.46704 -0.0673127 1.76548 0.223083L6.99704 5.31171Z" fill="#C2CCD6"/>
</svg>
