<svg width="24" height="24" viewBox="0 0 24 24" fill="none" xmlns="http://www.w3.org/2000/svg">
<g clip-path="url(#clip0_245_26743)">
<path d="M15.3101 8.69531C14.9997 8.69531 14.748 8.94692 14.748 9.25737V19.8803C14.748 20.1906 14.9997 20.4424 15.3101 20.4424C15.6206 20.4424 15.8722 20.1906 15.8722 19.8803V9.25737C15.8722 8.94692 15.6206 8.69531 15.3101 8.69531Z" fill="#2B2B5F"/>
<path d="M8.67827 8.69531C8.36782 8.69531 8.11621 8.94692 8.11621 9.25737V19.8803C8.11621 20.1906 8.36782 20.4424 8.67827 20.4424C8.98872 20.4424 9.24033 20.1906 9.24033 19.8803V9.25737C9.24033 8.94692 8.98872 8.69531 8.67827 8.69531Z" fill="#2B2B5F"/>
<path d="M3.84536 7.14503V20.993C3.84536 21.8115 4.14549 22.5801 4.66979 23.1317C5.19167 23.6847 5.91796 23.9987 6.67805 24H17.3124C18.0727 23.9987 18.799 23.6847 19.3207 23.1317C19.8449 22.5801 20.1451 21.8115 20.1451 20.993V7.14503C21.1873 6.86839 21.8627 5.86152 21.7232 4.79207C21.5836 3.72284 20.6727 2.923 19.5942 2.92278H16.7165V2.22021C16.7198 1.62939 16.4862 1.06206 16.068 0.644685C15.6497 0.227532 15.0815 -0.00475635 14.4907 7.385e-05H9.49977C8.90895 -0.00475635 8.34074 0.227532 7.92249 0.644685C7.50424 1.06206 7.27063 1.62939 7.27392 2.22021V2.92278H4.39622C3.31777 2.923 2.40684 3.72284 2.26721 4.79207C2.12779 5.86152 2.80314 6.86839 3.84536 7.14503ZM17.3124 22.8759H6.67805C5.71706 22.8759 4.96948 22.0504 4.96948 20.993V7.19443H19.021V20.993C19.021 22.0504 18.2734 22.8759 17.3124 22.8759ZM8.39804 2.22021C8.39431 1.92754 8.50936 1.64585 8.71706 1.43925C8.92453 1.23265 9.20688 1.11914 9.49977 1.12419H14.4907C14.7836 1.11914 15.0659 1.23265 15.2734 1.43925C15.4811 1.64563 15.5961 1.92754 15.5924 2.22021V2.92278H8.39804V2.22021ZM4.39622 4.0469H19.5942C20.153 4.0469 20.6059 4.49984 20.6059 5.05861C20.6059 5.61737 20.153 6.07031 19.5942 6.07031H4.39622C3.83746 6.07031 3.38452 5.61737 3.38452 5.05861C3.38452 4.49984 3.83746 4.0469 4.39622 4.0469Z" fill="#2B2B5F"/>
<path d="M11.9947 8.69531C11.6842 8.69531 11.4326 8.94692 11.4326 9.25737V19.8803C11.4326 20.1906 11.6842 20.4424 11.9947 20.4424C12.3051 20.4424 12.5567 20.1906 12.5567 19.8803V9.25737C12.5567 8.94692 12.3051 8.69531 11.9947 8.69531Z" fill="#2B2B5F"/>
</g>
<defs>
<clipPath id="clip0_245_26743">
<rect width="24" height="24" fill="white"/>
</clipPath>
</defs>
</svg>
