<svg width="24" height="24" viewBox="0 0 24 24" fill="none" xmlns="http://www.w3.org/2000/svg">
<path d="M15.9083 12.122L23.9993 17.237V6.79102L15.9083 12.122Z" fill="#FFC600"/>
<path d="M0 6.79102V17.237L8.091 12.122L0 6.79102Z" fill="#FFC600"/>
<path d="M22.5004 3.75H1.50041C0.75191 3.75 0.15791 4.308 0.0454102 5.0265L12.0004 12.903L23.9554 5.0265C23.8429 4.308 23.2489 3.75 22.5004 3.75Z" fill="#FFC600"/>
<path d="M14.535 13.0288L12.4125 14.4268C12.2865 14.5093 12.144 14.5498 12 14.5498C11.856 14.5498 11.7135 14.5093 11.5875 14.4268L9.46497 13.0273L0.0479736 18.9838C0.163474 19.6963 0.754474 20.2498 1.49997 20.2498H22.5C23.2455 20.2498 23.8365 19.6963 23.952 18.9838L14.535 13.0288Z" fill="#FFC600"/>
</svg>
