<svg width="16" height="16" viewBox="0 0 16 16" fill="none" xmlns="http://www.w3.org/2000/svg">
<path d="M10.6055 8.08134L15.9995 11.4913V4.52734L10.6055 8.08134Z" fill="#303361"/>
<path d="M0 4.52734V11.4913L5.394 8.08134L0 4.52734Z" fill="#303361"/>
<path d="M14.9993 2.5H0.999297C0.500297 2.5 0.104297 2.872 0.0292969 3.351L7.9993 8.602L15.9693 3.351C15.8943 2.872 15.4983 2.5 14.9993 2.5Z" fill="#303361"/>
<path d="M9.69023 8.68655L8.27523 9.61855C8.19123 9.67355 8.09623 9.70055 8.00023 9.70055C7.90423 9.70055 7.80923 9.67355 7.72523 9.61855L6.31023 8.68555L0.0322266 12.6565C0.109227 13.1315 0.503227 13.5005 1.00023 13.5005H15.0002C15.4972 13.5005 15.8912 13.1315 15.9682 12.6565L9.69023 8.68655Z" fill="#303361"/>
</svg>
