<svg width="24" height="24" viewBox="0 0 24 24" fill="none" xmlns="http://www.w3.org/2000/svg">
<path d="M15.9082 12.122L23.9992 17.237V6.79102L15.9082 12.122Z" fill="#303361"/>
<path d="M0 6.79102V17.237L8.091 12.122L0 6.79102Z" fill="#303361"/>
<path d="M22.5004 3.75H1.50041C0.75191 3.75 0.15791 4.308 0.0454102 5.0265L12.0004 12.903L23.9554 5.0265C23.8429 4.308 23.2489 3.75 22.5004 3.75Z" fill="#303361"/>
<path d="M14.5349 13.0288L12.4124 14.4268C12.2864 14.5093 12.1439 14.5498 11.9999 14.5498C11.8559 14.5498 11.7134 14.5093 11.5874 14.4268L9.46485 13.0273L0.0478516 18.9838C0.163352 19.6963 0.754352 20.2498 1.49985 20.2498H22.4999C23.2454 20.2498 23.8364 19.6963 23.9519 18.9838L14.5349 13.0288Z" fill="#303361"/>
</svg>
