<?xml version="1.0" standalone="no"?>
<!DOCTYPE svg PUBLIC "-//W3C//DTD SVG 20010904//EN"
 "http://www.w3.org/TR/2001/REC-SVG-20010904/DTD/svg10.dtd">
<svg version="1.0" xmlns="http://www.w3.org/2000/svg"
 width="512.000000pt" height="512.000000pt" viewBox="0 0 512.000000 512.000000"
 preserveAspectRatio="xMidYMid meet">

<g transform="translate(0.000000,512.000000) scale(0.100000,-0.100000)"
fill="#303361" stroke="none">
<path d="M2562 5100 c-109 -29 -187 -74 -272 -160 -87 -86 -131 -163 -160
-276 -36 -141 -18 -294 52 -427 42 -81 164 -203 245 -245 133 -70 286 -88 427
-52 113 29 190 73 276 160 87 86 131 163 160 276 36 141 18 294 -52 427 -42
81 -164 203 -245 245 -132 69 -291 88 -431 52z"/>
<path d="M4187 3894 c-208 -37 -392 -130 -539 -272 l-68 -65 -77 16 c-152 32
-252 37 -765 37 -557 0 -656 -6 -848 -55 -476 -120 -884 -437 -1098 -854 -91
-176 -150 -362 -167 -526 l-8 -67 -44 6 c-150 20 -273 153 -273 296 0 58 28
136 65 182 71 87 82 161 36 226 -28 40 -98 67 -148 57 -54 -9 -139 -99 -187
-196 -172 -350 17 -751 402 -850 41 -10 92 -19 113 -19 l37 0 7 -52 c34 -265
146 -548 303 -768 123 -173 318 -350 503 -456 l79 -46 0 -184 c0 -215 9 -248
80 -284 37 -19 58 -20 370 -20 312 0 333 1 370 20 61 31 80 78 80 195 l0 95
428 0 c235 0 437 3 450 6 22 6 22 5 22 -95 0 -124 18 -169 80 -201 37 -19 58
-20 370 -20 312 0 333 1 370 20 26 13 47 34 60 60 19 37 20 58 20 323 l0 283
65 58 c91 80 222 241 295 363 l63 103 41 0 c146 1 316 104 388 237 48 88 58
149 58 363 0 270 -19 338 -128 452 -61 65 -113 98 -189 123 l-52 17 -27 81
c-57 173 -152 347 -266 492 l-64 80 61 363 60 363 -25 46 c-45 83 -121 100
-303 67z m-957 -904 c45 -23 80 -80 80 -130 0 -50 -35 -107 -80 -130 -38 -19
-58 -20 -520 -20 -462 0 -482 1 -520 20 -102 52 -104 196 -4 256 l39 24 483 0
c464 0 484 -1 522 -20z m900 -600 c45 -23 80 -80 80 -130 0 -76 -74 -150 -150
-150 -50 0 -107 35 -130 80 -25 50 -25 90 0 140 37 73 124 99 200 60z"/>
</g>
</svg>
