<svg width="18" height="19" viewBox="0 0 18 19" fill="none" xmlns="http://www.w3.org/2000/svg">
<path d="M6.0874 17.0389C6.89075 17.0389 7.54199 16.3862 7.54199 15.581C7.54199 14.7758 6.89075 14.123 6.0874 14.123C5.28405 14.123 4.63281 14.7758 4.63281 15.581C4.63281 16.3862 5.28405 17.0389 6.0874 17.0389Z" stroke="#FBC400" stroke-width="2" stroke-linecap="round" stroke-linejoin="round"/>
<path d="M14.8198 17.0389C15.6231 17.0389 16.2743 16.3862 16.2743 15.581C16.2743 14.7758 15.6231 14.123 14.8198 14.123C14.0164 14.123 13.3652 14.7758 13.3652 15.581C13.3652 16.3862 14.0164 17.0389 14.8198 17.0389Z" stroke="#FBC400" stroke-width="2" stroke-linecap="round" stroke-linejoin="round"/>
<path d="M4.39636 4.64499H17L15.7782 10.7613C15.7117 11.0969 15.5295 11.3984 15.2636 11.613C14.9977 11.8275 14.6649 11.9415 14.3236 11.935H6.63636C6.28123 11.938 5.93726 11.8107 5.66931 11.577C5.40137 11.3433 5.22798 11.0195 5.18182 10.6665L4.07636 2.26846C4.03052 1.91798 3.85922 1.59613 3.59433 1.3628C3.32944 1.12946 2.989 1.00054 2.63636 1H1" stroke="#FBC400" stroke-width="2" stroke-linecap="round" stroke-linejoin="round"/>
</svg>
