<svg width="7" height="12" viewBox="0 0 7 12" fill="none" xmlns="http://www.w3.org/2000/svg">
<path d="M0.721591 0.119903L0.120315 0.721064C0.0400209 0.801167 4.86697e-07 0.893443 4.82126e-07 0.997764C4.77565e-07 1.10183 0.0400209 1.19407 0.120315 1.27417L4.84707 5.99994L0.120441 10.7255C0.0401469 10.8056 0.000126359 10.8979 0.000126355 11.0021C0.00012635 11.1063 0.0401469 11.1985 0.120441 11.2786L0.721758 11.8797C0.801884 11.96 0.894141 12 0.998405 12C1.10258 12 1.19484 11.9599 1.27497 11.8797L6.87977 6.27651C6.95994 6.19641 7 6.10413 7 5.99994C7 5.89574 6.95994 5.80364 6.87977 5.72357L1.27497 0.119903C1.1948 0.0397988 1.10254 4.80734e-08 0.998406 4.35328e-08C0.894142 3.89867e-08 0.801884 0.0397988 0.721591 0.119903Z" fill="#FBC400"/>
</svg>
