<svg width="6" height="12" viewBox="0 0 6 12" fill="none" xmlns="http://www.w3.org/2000/svg">
<path d="M0.618505 0.119903L0.103126 0.721064C0.0343027 0.801167 -4.86697e-07 0.893443 -4.82126e-07 0.997764C-4.77565e-07 1.10183 0.0343027 1.19407 0.103126 1.27417L4.15463 5.99994L0.103235 10.7255C0.0344116 10.8056 0.000108218 10.8979 0.000108223 11.0021C0.000108227 11.1063 0.0344116 11.1985 0.103235 11.2786L0.61865 11.8797C0.687329 11.96 0.766407 12 0.855776 12C0.945073 12 1.02415 11.9599 1.09283 11.8797L5.89695 6.27651C5.96566 6.19641 6 6.10413 6 5.99994C6 5.89574 5.96566 5.80363 5.89695 5.72357L1.09283 0.119903C1.02411 0.0397987 0.945036 -4.12058e-08 0.855775 -3.73138e-08C0.766406 -3.34171e-08 0.687329 0.0397987 0.618505 0.119903Z" fill="white"/>
</svg>
