<svg width="7" height="12" viewBox="0 0 7 12" fill="none" xmlns="http://www.w3.org/2000/svg">
<path d="M6.27841 0.119903L6.87969 0.721064C6.95998 0.801167 7 0.893443 7 0.997764C7 1.10183 6.95998 1.19407 6.87969 1.27417L2.15293 5.99994L6.87956 10.7255C6.95985 10.8056 6.99987 10.8979 6.99987 11.0021C6.99987 11.1063 6.95985 11.1985 6.87956 11.2786L6.27824 11.8797C6.19812 11.96 6.10586 12 6.00159 12C5.89742 12 5.80516 11.9599 5.72503 11.8797L0.12023 6.27651C0.0400627 6.19641 2.18476e-07 6.10413 2.1391e-07 5.99994C2.09344e-07 5.89574 0.0400626 5.80364 0.12023 5.72357L5.72503 0.119903C5.8052 0.0397988 5.89746 4.80734e-08 6.00159 4.35328e-08C6.10586 3.89867e-08 6.19812 0.0397988 6.27841 0.119903Z" fill="#9AAABA" fill-opacity="0.6"/>
</svg>
