<svg width="14" height="14" viewBox="0 0 14 14" fill="none" xmlns="http://www.w3.org/2000/svg">
<g clip-path="url(#clip0_245_30224)">
<path d="M1.6042 13.9993H12.3958C13.2807 13.9993 14 13.28 14 12.3951V2.77011C14 1.88518 13.2807 1.16602 12.3958 1.16602H1.6042C0.719269 1.16602 0 1.88518 0 2.77011V12.3951C0 13.28 0.719269 13.9993 1.6042 13.9993V13.9993ZM12.3958 2.04102C12.7977 2.04102 13.125 2.36818 13.125 2.77011V12.3951C13.125 12.797 12.7977 13.1243 12.3958 13.1243H1.6042C1.20227 13.1243 0.875 12.797 0.875 12.3951V2.77011C0.875 2.36818 1.20227 2.04102 1.6042 2.04102H12.3958Z" fill="#303361"/>
<path d="M0.4375 5.54102H13.5625C13.804 5.54102 14 5.34502 14 5.10352C14 4.86201 13.804 4.66602 13.5625 4.66602H0.4375C0.195999 4.66602 0 4.86201 0 5.10352C0 5.34502 0.195999 5.54102 0.4375 5.54102Z" fill="#303361"/>
<path d="M10.6465 3.5C10.888 3.5 11.084 3.304 11.084 3.0625V0.4375C11.084 0.195999 10.888 0 10.6465 0C10.405 0 10.209 0.195999 10.209 0.4375V3.0625C10.209 3.304 10.405 3.5 10.6465 3.5Z" fill="#303361"/>
<path d="M3.35352 3.5C3.59502 3.5 3.79102 3.304 3.79102 3.0625V0.4375C3.79102 0.195999 3.59502 0 3.35352 0C3.11201 0 2.91602 0.195999 2.91602 0.4375V3.0625C2.91602 3.304 3.11201 3.5 3.35352 3.5Z" fill="#303361"/>
</g>
<defs>
<clipPath id="clip0_245_30224">
<rect width="14" height="14" fill="white" transform="matrix(-1 0 0 1 14 0)"/>
</clipPath>
</defs>
</svg>
