<svg width="8" height="15" viewBox="0 0 8 15" fill="none" xmlns="http://www.w3.org/2000/svg">
<path d="M5.31171 7.50317L0.217436 1.89146C0.0771651 1.73732 7.64831e-09 1.53122 6.55065e-09 1.31146C5.45238e-09 1.09159 0.0771651 0.88561 0.217436 0.73122L0.663824 0.239756C0.803874 0.085122 0.991087 9.07139e-08 1.19059 8.81318e-08C1.39009 8.55497e-08 1.57708 0.085122 1.71724 0.239756L7.78278 6.92098C7.9235 7.07585 8.00055 7.2828 8 7.50281C8.00055 7.72378 7.92361 7.93049 7.78278 8.08549L1.72289 14.7602C1.58273 14.9149 1.39574 15 1.19613 15C0.996623 15 0.809631 14.9149 0.66936 14.7602L0.223084 14.2688C-0.0673122 13.9489 -0.0673122 13.4282 0.223084 13.1084L5.31171 7.50317Z" fill="#303361"/>
</svg>
