<svg width="7" height="12" viewBox="0 0 7 12" fill="none" xmlns="http://www.w3.org/2000/svg">
<path d="M4.64774 5.88689L0.190257 1.48402C0.0675197 1.36308 6.69228e-09 1.20137 5.73182e-09 1.02896C4.77083e-09 0.856443 0.0675197 0.694838 0.190257 0.573705L0.580846 0.188109C0.70339 0.0667856 0.867201 7.11729e-08 1.04177 6.9147e-08C1.21633 6.71211e-08 1.37995 0.0667856 1.50259 0.188109L6.80993 5.4301C6.93306 5.55162 7.00048 5.71399 7 5.8866C7.00048 6.05998 6.93316 6.22216 6.80993 6.34377L1.50753 11.5807C1.38489 11.702 1.22127 11.7688 1.04661 11.7688C0.872045 11.7688 0.708427 11.702 0.58569 11.5807L0.195198 11.1951C-0.0588984 10.9441 -0.0588984 10.5356 0.195198 10.2847L4.64774 5.88689Z" fill="#303361"/>
</svg>
