<svg width="9" height="14" viewBox="0 0 9 14" fill="none" xmlns="http://www.w3.org/2000/svg">
<path d="M5.6293 6.87791L0.485457 1.73384C0.343821 1.59254 0.265904 1.40362 0.265904 1.20217C0.265904 1.00062 0.343821 0.811809 0.485457 0.670285L0.936188 0.219776C1.0776 0.0780285 1.26664 7.67666e-08 1.46808 7.45816e-08C1.66952 7.23965e-08 1.85833 0.0780285 1.99986 0.219776L8.12442 6.34423C8.2665 6.4862 8.34431 6.6759 8.34375 6.87757C8.34431 7.08013 8.26661 7.26961 8.12442 7.4117L2.00556 13.5302C1.86403 13.672 1.67522 13.75 1.47367 13.75C1.27223 13.75 1.08341 13.672 0.941778 13.5302L0.491159 13.0797C0.197937 12.7865 0.197937 12.3092 0.491159 12.016L5.6293 6.87791Z" fill="#303361"/>
</svg>
