<svg width="6" height="11" viewBox="0 0 6 11" fill="none" xmlns="http://www.w3.org/2000/svg">
<path d="M3.98378 5.50233L0.163077 1.38707C0.0578742 1.27403 6.25504e-09 1.12289 5.35733e-09 0.96174C4.45913e-09 0.800496 0.0578742 0.649447 0.163077 0.536228L0.497868 0.175821C0.602906 0.0624228 0.743315 6.1006e-08 0.892941 5.92695e-08C1.04257 5.7533e-08 1.18281 0.0624228 1.28793 0.175821L5.83709 5.07538C5.94262 5.18896 6.00041 5.34072 6 5.50206C6.00041 5.66411 5.9427 5.81569 5.83709 5.92936L1.29217 10.8242C1.18705 10.9376 1.0468 11 0.897094 11C0.747468 11 0.607224 10.9376 0.50202 10.8242L0.167313 10.4638C-0.0504841 10.2292 -0.0504841 9.84733 0.167313 9.61284L3.98378 5.50233Z" fill="#FBC400"/>
</svg>
