<svg width="9" height="14" viewBox="0 0 9 14" fill="none" xmlns="http://www.w3.org/2000/svg">
<path d="M5.36367 6.87791L0.219832 1.73384C0.078196 1.59254 0.000279427 1.40362 0.000279427 1.20217C0.000279427 1.00062 0.078196 0.811809 0.219832 0.670285L0.670563 0.219776C0.811976 0.0780284 1.00101 0 1.20245 0C1.4039 0 1.59271 0.0780284 1.73423 0.219776L7.85879 6.34423C8.00088 6.4862 8.07868 6.6759 8.07812 6.87757C8.07868 7.08013 8.00099 7.26961 7.85879 7.4117L1.73993 13.5302C1.59841 13.672 1.4096 13.75 1.20804 13.75C1.0066 13.75 0.817789 13.672 0.676153 13.5302L0.225533 13.0797C-0.067688 12.7865 -0.067688 12.3092 0.225533 12.016L5.36367 6.87791Z" fill="#FBC400"/>
</svg>
