<svg width="90" height="93" viewBox="0 0 90 93" fill="none" xmlns="http://www.w3.org/2000/svg">
<path d="M58.7485 55.1012C58.4089 47.6717 54.445 41.0149 48.1442 37.2949C41.8434 33.575 34.2239 33.3929 27.7627 36.8073L12.1924 45.0338C9.60917 46.3984 7.56792 48.5324 6.29012 51.2028C5.01199 53.8737 4.61781 56.8308 5.14885 59.7559C5.68204 62.6799 7.09129 65.2954 9.22404 67.3198C11.3568 69.3443 14.0137 70.586 16.9063 70.9118L17.1004 70.933C24.3498 71.8047 30.9711 75.7453 35.2928 81.7671C36.4077 83.3203 37.7988 84.5941 39.3959 85.537C40.2642 86.0497 41.1946 86.4646 42.1739 86.7741C44.9544 87.6512 47.874 87.5915 50.6179 86.6014C53.3602 85.6113 55.6684 83.7834 57.2922 81.3157C58.916 78.8481 59.7023 75.974 59.567 73.0029L58.7485 55.1012Z" fill="#FFD102"/>
<path d="M21.7841 33.2553C24.7622 33.7376 27.7476 32.8234 30.1905 30.6806C32.5155 28.6419 34.0742 25.7108 34.5794 22.4264C35.083 19.1434 34.479 15.8641 32.879 13.1917C31.1978 10.385 28.6321 8.57481 25.657 8.09666C19.6745 7.12984 13.9364 11.9869 12.8646 18.9273C12.0177 24.455 14.3843 29.6572 18.4059 32.0316C19.4328 32.6378 20.5677 33.0596 21.7841 33.2553Z" fill="#FFD102"/>
<path d="M43.4638 32.4068C49.5848 36.0206 57.8383 33.1624 61.8622 26.0353C65.8871 18.9065 64.1815 10.167 58.0606 6.55319C51.9402 2.93976 43.6866 5.79946 39.6617 12.9283C35.6378 20.0553 37.3435 28.7934 43.4638 32.4068Z" fill="#FFD102"/>
<path d="M60.8426 46.9008L60.8432 46.9012C61.6044 47.7764 62.4788 48.4962 63.4353 49.0609C67.8992 51.6964 74.1242 50.9443 78.6652 46.8214C81.2796 44.4483 82.9704 41.3052 83.4257 37.9717C83.9029 34.4822 82.9869 31.2041 80.8461 28.7405C78.7047 26.2765 75.6278 24.9604 72.1819 25.0331C68.89 25.1025 65.6378 26.4484 63.0245 28.8222C57.5108 33.829 56.532 41.9392 60.8426 46.9008Z" fill="#FFD102"/>
<path d="M85.0708 59.1941L85.0701 59.1913C82.6482 53.5124 75.5554 51.1665 69.2572 53.9629C62.961 56.7636 59.8035 63.6621 62.2177 69.3395C63.0978 71.4108 64.6 73.0393 66.4588 74.1368C69.6986 76.0496 74.0234 76.3496 78.0313 74.5722C84.3269 71.7711 87.485 64.873 85.0708 59.1941Z" fill="#FFD102"/>
</svg>
