<svg width="90" height="93" viewBox="0 0 90 93" fill="none" xmlns="http://www.w3.org/2000/svg">
<path d="M58.7469 55.1013C58.4073 47.6718 54.4434 41.015 48.1426 37.2951C41.8418 33.5751 34.2223 33.3931 27.7611 36.8074L12.1908 45.0339C9.60758 46.3985 7.56633 48.5325 6.28854 51.2029C5.0104 53.8738 4.61622 56.8309 5.14726 59.756C5.68045 62.6801 7.08971 65.2956 9.22246 67.32C11.3552 69.3444 14.0121 70.5862 16.9047 70.912L17.0989 70.9331C24.3482 71.8048 30.9695 75.7454 35.2912 81.7672C36.4061 83.3204 37.7972 84.5942 39.3943 85.5372C40.2627 86.0498 41.1931 86.4648 42.1723 86.7742C44.9528 87.6513 47.8724 87.5916 50.6163 86.6015C53.3586 85.6114 55.6668 83.7835 57.2906 81.3159C58.9144 78.8482 59.7007 75.9741 59.5655 73.003L58.7469 55.1013Z" fill="#F2F1F5"/>
<path d="M21.783 33.2551C24.7611 33.7373 27.7465 32.8231 30.1894 30.6804C32.5144 28.6416 34.0731 25.7106 34.5783 22.4261C35.0819 19.1431 34.4779 15.8638 32.8779 13.1915C31.1967 10.3848 28.631 8.57456 25.6559 8.09642C19.6734 7.1296 13.9353 11.9867 12.8635 18.927C12.0166 24.4547 14.3832 29.657 18.4048 32.0313C19.4317 32.6376 20.5666 33.0594 21.783 33.2551Z" fill="#F2F1F5"/>
<path d="M43.4638 32.4068C49.5848 36.0206 57.8383 33.1624 61.8622 26.0353C65.8871 18.9065 64.1815 10.167 58.0606 6.55319C51.9402 2.93976 43.6866 5.79946 39.6617 12.9283C35.6378 20.0553 37.3435 28.7934 43.4638 32.4068Z" fill="#F2F1F5"/>
<path d="M60.8425 46.901L60.843 46.9013C61.6043 47.7766 62.4787 48.4963 63.4352 49.061C67.8991 51.6965 74.124 50.9444 78.6651 46.8215C81.2795 44.4484 82.9703 41.3054 83.4255 37.9718C83.9027 34.4823 82.9867 31.2042 80.846 28.7406C78.7046 26.2766 75.6277 24.9605 72.1817 25.0332C68.8899 25.1026 65.6377 26.4486 63.0244 28.8223C57.5107 33.8292 56.5319 41.9393 60.8425 46.901V46.901Z" fill="#F2F1F5"/>
<path d="M85.0718 59.1935L85.0711 59.1907C82.6491 53.5118 75.5564 51.1659 69.2581 53.9623C62.962 56.763 59.8044 63.6614 62.2187 69.3389C63.0988 71.4102 64.6009 73.0387 66.4598 74.1362C69.6996 76.049 74.0244 76.349 78.0323 74.5716C84.3278 71.7705 87.486 64.8724 85.0718 59.1935V59.1935Z" fill="#F2F1F5"/>
</svg>
