<svg width="52" height="52" viewBox="0 0 52 52" fill="none" xmlns="http://www.w3.org/2000/svg">
<circle cx="26" cy="26" r="26" fill="#FFB800"/>
<path d="M20.8426 13.4884L19.6164 14.6632C19.4527 14.8198 19.3711 15.0001 19.3711 15.204C19.3711 15.4074 19.4527 15.5876 19.6164 15.7441L29.2553 24.9795L19.6167 34.2144C19.453 34.371 19.3714 34.5512 19.3714 34.7549C19.3714 34.9586 19.453 35.1388 19.6167 35.2954L20.8429 36.47C21.0063 36.6269 21.1944 36.7051 21.4071 36.7051C21.6195 36.7051 21.8076 36.6266 21.971 36.47L33.4004 25.52C33.5639 25.3634 33.6456 25.1831 33.6456 24.9795C33.6456 24.7758 33.5639 24.5958 33.4004 24.4394L21.971 13.4884C21.8075 13.3319 21.6194 13.2541 21.4071 13.2541C21.1944 13.2541 21.0063 13.3319 20.8426 13.4884Z" fill="white"/>
</svg>
