<svg width="36" height="36" viewBox="0 0 36 36" fill="none" xmlns="http://www.w3.org/2000/svg">
<circle cx="18" cy="18" r="17" stroke="white" stroke-width="2"/>
<path d="M21.651 10.1887L22.4756 10.9702C22.5857 11.0743 22.6406 11.1943 22.6406 11.3299C22.6406 11.4652 22.5857 11.5851 22.4756 11.6892L15.9932 17.8327L22.4754 23.976C22.5856 24.0801 22.6405 24.2 22.6405 24.3355C22.6405 24.471 22.5856 24.5909 22.4754 24.695L21.6508 25.4764C21.5409 25.5808 21.4144 25.6328 21.2714 25.6328C21.1285 25.6328 21.002 25.5806 20.8921 25.4764L13.2055 18.1923C13.0956 18.0881 13.0406 17.9682 13.0406 17.8327C13.0406 17.6973 13.0956 17.5775 13.2055 17.4735L20.8921 10.1887C21.002 10.0846 21.1286 10.0328 21.2714 10.0328C21.4144 10.0328 21.5409 10.0846 21.651 10.1887Z" fill="white"/>
</svg>
