<svg width="8" height="13" viewBox="0 0 8 13" fill="none" xmlns="http://www.w3.org/2000/svg">
<path d="M7.17533 0.129895L7.8625 0.781152C7.95426 0.867931 8 0.967897 8 1.08091C8 1.19365 7.95426 1.29357 7.8625 1.38035L2.46049 6.49993L7.86235 11.6193C7.95412 11.7061 7.99986 11.806 7.99986 11.9189C7.99986 12.0318 7.95412 12.1317 7.86235 12.2185L7.17513 12.8697C7.08356 12.9567 6.97812 13 6.85897 13C6.7399 13 6.63447 12.9565 6.54289 12.8697L0.137406 6.79955C0.0457861 6.71277 1.96946e-07 6.61281 1.92e-07 6.49993C1.87053e-07 6.38705 0.0457861 6.28727 0.137406 6.20054L6.54289 0.129895C6.63451 0.0431157 6.73995 5.49411e-08 6.85896 4.97518e-08C6.97812 4.45562e-08 7.08356 0.0431157 7.17533 0.129895Z" fill="#303361"/>
</svg>
