<svg width="6" height="10" viewBox="0 0 6 10" fill="none" xmlns="http://www.w3.org/2000/svg">
<path d="M5.38149 0.0999193L5.89687 0.600886C5.9657 0.66764 6 0.744536 6 0.83147C6 0.918194 5.9657 0.995054 5.89687 1.06181L1.84537 4.99995L5.89677 8.93791C5.96559 9.0047 5.99989 9.08156 5.99989 9.16839C5.99989 9.25525 5.96559 9.33211 5.89677 9.39887L5.38135 9.89976C5.31267 9.96666 5.23359 10 5.14422 10C5.05493 10 4.97585 9.96655 4.90717 9.89976L0.103054 5.23043C0.0343397 5.16367 2.61536e-07 5.08678 2.57731e-07 4.99995C2.53926e-07 4.91312 0.0343397 4.83636 0.103054 4.76964L4.90717 0.0999194C4.97588 0.033166 5.05496 4.12058e-08 5.14422 3.73138e-08C5.23359 3.34171e-08 5.31267 0.033166 5.38149 0.0999193Z" fill="#303361"/>
</svg>
