<svg width="10" height="10" viewBox="0 0 10 10" fill="none" xmlns="http://www.w3.org/2000/svg">
<path d="M5.74246 4.99996L8.89849 1.84377C9.10388 1.63847 9.10388 1.30654 8.89849 1.10124C8.69319 0.895941 8.36126 0.895941 8.15597 1.10124L4.99985 4.25743L1.84382 1.10124C1.63843 0.895941 1.3066 0.895941 1.10131 1.10124C0.895918 1.30654 0.895918 1.63847 1.10131 1.84377L4.25733 4.99996L1.10131 8.15615C0.895918 8.36144 0.895918 8.69338 1.10131 8.89868C1.20362 9.00108 1.33814 9.05253 1.47256 9.05253C1.60699 9.05253 1.74142 9.00108 1.84382 8.89868L4.99985 5.74249L8.15597 8.89868C8.25838 9.00108 8.3928 9.05253 8.52723 9.05253C8.66165 9.05253 8.79608 9.00108 8.89849 8.89868C9.10388 8.69338 9.10388 8.36144 8.89849 8.15615L5.74246 4.99996Z" fill="white"/>
</svg>
