<svg width="8" height="14" viewBox="0 0 8 14" fill="none" xmlns="http://www.w3.org/2000/svg">
<path d="M5.31171 7.00296L0.217436 1.76537C0.0771651 1.6215 7.52881e-09 1.42914 6.4483e-09 1.22403C5.36718e-09 1.01881 0.0771651 0.826569 0.217436 0.682472L0.663824 0.223772C0.803874 0.0794472 0.991087 8.60102e-08 1.19059 8.3562e-08C1.39009 8.11138e-08 1.57708 0.0794472 1.71724 0.223772L7.78278 6.45958C7.9235 6.60413 8.00055 6.79729 8 7.00262C8.00055 7.20886 7.92361 7.40179 7.78278 7.54646L1.72289 13.7762C1.58273 13.9206 1.39574 14 1.19613 14C0.996623 14 0.809631 13.9206 0.66936 13.7762L0.223084 13.3175C-0.0673122 13.019 -0.0673122 12.533 0.223084 12.2345L5.31171 7.00296Z" fill="#C2CCD6"/>
</svg>
