<?xml version="1.0" standalone="no"?>
<!DOCTYPE svg PUBLIC "-//W3C//DTD SVG 20010904//EN"
 "http://www.w3.org/TR/2001/REC-SVG-20010904/DTD/svg10.dtd">
<svg version="1.0" xmlns="http://www.w3.org/2000/svg"
 width="900.000000pt" height="900.000000pt" viewBox="0 0 900.000000 900.000000"
 preserveAspectRatio="xMidYMid meet">
<metadata>
Created by potrace 1.16, written by Peter Selinger 2001-2019
</metadata>
<g transform="translate(0.000000,900.000000) scale(0.100000,-0.100000)"
fill="#FFFFFF" stroke="none">
<path d="M5173 6933 c-24 -2 -43 -8 -43 -14 0 -5 -11 -9 -24 -9 -37 0 -126
-22 -126 -32 0 -4 -10 -8 -22 -8 -24 0 -211 -87 -216 -101 -2 -5 -10 -9 -17
-9 -8 0 -20 -6 -27 -13 -7 -8 -24 -20 -37 -26 -37 -20 -77 -56 -226 -207 -189
-190 -295 -304 -295 -319 0 -6 19 -22 43 -35 50 -28 147 -90 163 -105 6 -5 23
-19 39 -30 39 -28 183 -172 225 -225 143 -182 239 -392 285 -630 39 -198 32
-438 -20 -640 -14 -56 -79 -218 -115 -285 -23 -44 -48 -90 -54 -102 -6 -13
-14 -23 -18 -23 -4 0 -15 -15 -24 -32 -9 -18 -20 -35 -23 -38 -4 -3 -24 -27
-46 -55 -77 -97 -243 -247 -315 -285 -14 -7 -27 -16 -30 -19 -3 -3 -16 -12
-30 -20 -79 -45 -126 -67 -225 -107 -60 -25 -124 -52 -142 -59 -17 -8 -34 -15
-38 -15 -4 0 -21 -6 -38 -14 -18 -8 -61 -27 -97 -41 -36 -14 -78 -32 -95 -40
-16 -7 -45 -16 -62 -20 -18 -4 -33 -11 -33 -16 0 -5 -7 -9 -15 -9 -14 0 -97
-32 -172 -66 -17 -8 -34 -14 -38 -14 -4 0 -21 -6 -38 -14 -18 -8 -61 -27 -97
-41 -36 -14 -79 -33 -97 -41 -17 -8 -37 -14 -45 -14 -8 0 -23 -7 -34 -15 -10
-8 -26 -15 -34 -15 -8 0 -33 -9 -55 -20 -22 -11 -44 -19 -48 -20 -5 0 -23 -7
-40 -15 -18 -7 -84 -35 -147 -60 -63 -25 -129 -53 -147 -60 -17 -8 -35 -15
-40 -15 -4 -1 -26 -9 -48 -20 -22 -11 -44 -19 -49 -20 -9 0 -83 -32 -118 -51
-10 -5 -23 -9 -30 -9 -7 0 -35 -11 -63 -25 -27 -13 -58 -25 -67 -25 -9 0 -20
-5 -23 -10 -3 -6 -26 -15 -51 -21 -24 -6 -44 -15 -44 -19 0 -4 -14 -10 -31
-14 -17 -3 -45 -12 -62 -20 -18 -8 -61 -27 -97 -41 -36 -14 -79 -33 -97 -41
-17 -8 -35 -14 -40 -14 -4 -1 -26 -9 -48 -20 -22 -11 -48 -19 -57 -20 -9 0
-20 -5 -23 -10 -3 -6 -26 -15 -51 -21 -24 -6 -44 -15 -44 -20 0 -5 -7 -9 -15
-9 -15 0 -225 -82 -257 -100 -10 -6 -22 -10 -28 -10 -5 0 -34 -11 -64 -25 -30
-14 -59 -25 -64 -25 -9 0 -63 -22 -139 -56 -17 -8 -37 -14 -45 -14 -8 0 -23
-7 -34 -15 -10 -8 -26 -15 -34 -15 -8 0 -33 -9 -55 -20 -22 -11 -44 -19 -48
-20 -34 -1 -83 -41 -129 -104 -28 -39 -54 -73 -57 -76 -3 -3 -22 -27 -41 -55
-19 -27 -39 -55 -45 -61 -5 -7 -18 -22 -27 -35 -37 -51 -98 -135 -106 -144 -4
-5 -53 -71 -107 -145 l-100 -134 0 -86 c0 -74 3 -90 25 -122 14 -21 36 -43 50
-50 14 -7 28 -17 32 -23 4 -5 40 -11 80 -13 83 -4 59 -15 329 142 85 50 156
93 159 96 3 4 17 13 32 21 15 8 76 43 135 79 59 35 117 69 128 75 45 25 70 40
75 45 3 3 16 11 30 19 14 8 84 49 155 91 72 42 141 83 155 91 14 8 27 16 30
19 3 3 43 28 90 55 47 27 87 52 90 55 3 3 30 18 60 34 30 16 66 38 79 48 13
10 30 18 37 18 8 0 14 5 14 10 0 6 4 10 9 10 9 0 145 80 166 97 6 5 25 15 43
22 17 7 32 16 32 20 0 4 12 12 28 18 27 12 82 43 92 53 8 8 109 48 177 69 94
30 218 44 439 48 l202 4 7 -28 c3 -15 10 -30 13 -33 10 -7 62 -115 62 -127 0
-6 6 -16 14 -22 8 -7 17 -24 21 -39 4 -15 10 -29 13 -32 10 -7 62 -115 62
-127 0 -6 6 -16 14 -22 8 -7 17 -24 21 -39 4 -15 10 -29 13 -32 10 -7 62 -115
62 -127 0 -6 6 -16 14 -22 8 -7 17 -23 20 -37 4 -14 11 -31 17 -37 72 -87 107
-107 187 -107 124 0 212 87 212 211 0 58 -7 74 -139 339 l-140 279 167 3 c157
3 168 2 184 -17 10 -11 20 -32 23 -47 4 -15 12 -32 20 -38 7 -6 16 -23 20 -38
4 -15 10 -29 13 -32 10 -7 62 -115 62 -127 0 -6 6 -16 14 -22 8 -7 17 -24 21
-39 4 -15 10 -29 13 -32 4 -3 20 -32 35 -65 16 -33 32 -67 37 -75 5 -8 32 -60
59 -115 70 -142 123 -185 226 -185 93 0 169 53 200 139 31 89 28 98 -162 478
-141 282 -146 294 -127 308 10 8 26 15 35 15 13 0 82 23 244 82 17 6 32 14 35
18 3 3 24 12 48 20 23 7 42 17 42 22 0 4 5 8 12 8 11 0 119 51 128 61 3 3 20
11 38 18 17 8 32 17 32 22 0 5 5 9 10 9 12 0 94 52 98 63 2 4 8 7 13 7 10 0
82 45 109 68 8 7 33 27 55 43 90 68 136 110 270 245 152 154 151 153 212 233
24 31 49 63 55 71 7 8 32 44 55 80 23 36 46 70 50 75 34 41 213 391 213 417 0
10 4 18 8 18 5 0 14 24 22 53 7 28 16 54 19 57 8 6 37 103 52 170 5 25 14 52
18 61 5 8 14 51 21 95 6 43 16 88 21 99 9 22 39 324 39 403 0 92 18 147 61
190 56 56 90 62 368 62 265 0 283 3 346 65 42 41 55 76 55 144 0 74 -14 115
-54 154 -51 51 -74 57 -226 57 l-140 0 0 70 c0 68 -37 280 -50 290 -4 3 -10
19 -14 35 -8 34 -17 56 -77 178 -23 48 -46 87 -49 87 -4 0 -12 11 -18 25 -7
14 -16 31 -22 38 -5 7 -25 30 -42 52 -58 70 -163 175 -175 175 -7 0 -13 4 -13
9 0 12 -123 101 -139 101 -6 0 -11 4 -11 9 0 5 -16 15 -35 22 -19 7 -35 16
-35 19 0 4 -33 19 -72 34 -40 16 -81 32 -92 38 -18 9 -106 31 -196 48 -44 9
-323 10 -407 3z m492 -850 c41 -21 74 -52 93 -88 20 -39 20 -141 0 -180 -20
-38 -75 -84 -108 -91 -14 -3 -35 -10 -46 -16 -15 -7 -28 -7 -42 1 -11 6 -29
11 -40 11 -23 0 -89 49 -97 72 -4 10 -13 25 -22 33 -23 23 -21 133 3 171 63
99 166 134 259 87z"/>
<path d="M3398 5934 c-3 -3 -39 -10 -80 -15 -165 -23 -403 -133 -522 -242 -13
-12 -37 -34 -52 -48 -16 -14 -83 -84 -149 -155 -66 -71 -151 -162 -190 -203
-38 -41 -77 -82 -85 -91 -8 -9 -55 -59 -105 -112 -149 -157 -330 -350 -373
-398 -22 -25 -67 -73 -99 -106 -32 -34 -112 -119 -178 -189 -66 -71 -157 -167
-201 -214 -45 -47 -104 -111 -132 -141 -27 -30 -74 -80 -104 -111 -29 -31
-109 -116 -178 -190 -69 -73 -156 -167 -195 -208 -38 -41 -77 -82 -85 -91 -8
-9 -55 -59 -105 -112 -382 -402 -406 -429 -427 -487 -22 -58 -22 -74 -1 -135
26 -71 81 -122 148 -136 76 -16 135 -2 271 61 23 10 55 22 72 25 18 4 32 10
32 15 0 5 7 9 15 9 14 0 101 33 160 60 11 5 72 30 135 55 63 25 129 53 147 60
17 8 35 15 40 15 4 1 26 9 48 20 22 11 47 19 55 20 9 0 24 6 35 14 11 7 35 17
53 21 17 3 32 11 32 16 0 5 7 9 15 9 13 0 199 72 272 105 17 8 35 15 40 15 4
1 26 9 48 20 22 11 48 19 57 20 9 0 20 5 23 10 3 6 26 15 51 21 24 6 44 15 44
20 0 5 7 9 15 9 13 0 199 72 272 105 17 8 34 15 38 15 4 0 21 6 38 14 81 36
127 54 156 61 17 4 31 11 31 16 0 5 8 9 18 9 9 0 40 11 67 25 28 13 58 25 67
25 9 0 20 5 23 10 3 6 26 15 51 21 24 6 44 15 44 19 0 4 14 10 31 14 17 3 45
12 62 20 18 8 61 27 97 41 36 14 79 33 97 41 17 8 36 14 42 14 6 0 28 9 48 20
21 11 42 20 48 20 6 0 28 9 50 20 22 11 47 20 57 20 10 0 18 5 18 10 0 6 8 10
17 10 9 0 35 8 57 18 23 10 68 29 101 42 33 13 79 31 102 41 23 11 45 19 48
19 4 0 21 6 38 14 75 34 158 66 172 66 8 0 15 5 15 10 0 6 7 10 15 10 19 0
189 89 193 101 2 5 8 9 14 9 5 0 23 10 40 23 40 30 208 198 208 208 0 4 6 14
13 21 23 23 93 151 117 213 12 33 27 69 31 80 20 45 49 232 49 310 0 79 -34
289 -50 310 -4 6 -10 23 -14 39 -11 46 -74 173 -118 236 -113 165 -286 306
-453 370 -33 13 -74 29 -90 36 -17 7 -61 16 -98 20 -37 4 -70 11 -73 15 -6 10
-227 13 -236 3z"/>
</g>
</svg>
