<?xml version="1.0" standalone="no"?>
<!DOCTYPE svg PUBLIC "-//W3C//DTD SVG 20010904//EN"
 "http://www.w3.org/TR/2001/REC-SVG-20010904/DTD/svg10.dtd">
<svg version="1.0" xmlns="http://www.w3.org/2000/svg"
 width="900.000000pt" height="900.000000pt" viewBox="0 0 900.000000 900.000000"
 preserveAspectRatio="xMidYMid meet">
<metadata>
Created by potrace 1.16, written by Peter Selinger 2001-2019
</metadata>
<g transform="translate(0.000000,900.000000) scale(0.100000,-0.100000)"
fill="#2C2F61" stroke="none">
<path d="M2930 7449 c-155 -22 -201 -30 -294 -51 -56 -12 -103 -25 -106 -29
-3 -4 -25 -10 -50 -14 -25 -4 -58 -13 -75 -20 -65 -26 -141 -54 -167 -61 -16
-3 -28 -10 -28 -15 0 -5 -5 -9 -12 -9 -13 0 -103 -40 -163 -73 -22 -12 -56
-30 -75 -40 -19 -10 -53 -29 -75 -43 -22 -13 -50 -30 -62 -36 -13 -6 -23 -15
-23 -20 0 -4 -6 -8 -12 -8 -12 0 -167 -114 -263 -192 -83 -68 -305 -297 -385
-398 -47 -58 -89 -111 -95 -117 -5 -7 -19 -24 -30 -39 -11 -14 -25 -31 -30
-37 -6 -7 -42 -55 -80 -107 -38 -52 -72 -97 -75 -100 -13 -12 -60 -91 -60
-100 0 -5 -5 -10 -10 -10 -6 0 -14 -8 -17 -17 -4 -10 -21 -38 -37 -63 -44 -65
-53 -81 -74 -120 -25 -49 -45 -82 -58 -100 -7 -8 -15 -26 -19 -40 -4 -14 -11
-27 -15 -30 -12 -8 -100 -188 -100 -204 0 -8 -3 -16 -7 -18 -5 -1 -21 -32 -37
-68 -15 -36 -34 -78 -41 -95 -8 -16 -17 -41 -21 -55 -4 -14 -10 -27 -13 -30
-4 -3 -12 -21 -18 -40 -22 -68 -84 -245 -93 -265 -5 -11 -14 -38 -19 -60 -6
-22 -22 -80 -36 -130 -14 -49 -30 -117 -36 -150 -7 -33 -15 -64 -19 -70 -4 -5
-11 -35 -15 -65 -3 -30 -11 -71 -16 -90 -13 -46 -48 -309 -59 -435 -12 -131
-12 -581 0 -670 16 -125 58 -307 90 -390 4 -11 17 -47 29 -80 12 -33 33 -83
47 -111 13 -28 24 -56 24 -62 0 -6 3 -12 8 -14 4 -1 18 -25 32 -53 29 -59 72
-129 83 -133 4 -2 7 -9 7 -15 0 -22 178 -245 266 -332 111 -110 185 -175 202
-175 6 0 12 -4 12 -9 0 -25 422 -271 465 -271 5 0 23 -7 38 -15 16 -8 47 -19
70 -25 23 -6 51 -15 62 -20 46 -21 191 -53 365 -80 74 -11 576 -11 670 0 156
20 358 63 370 80 3 4 21 11 40 15 19 4 52 16 75 27 22 11 60 30 85 42 24 11
51 27 58 33 7 7 17 13 22 13 9 0 129 78 140 91 3 3 12 10 22 15 67 37 251 224
290 296 10 17 21 34 25 37 15 10 73 128 94 188 68 197 64 173 64 388 0 165 -3
210 -18 260 -68 224 -150 367 -287 505 -43 44 -170 140 -184 140 -4 0 -27 9
-52 21 -25 11 -68 23 -95 26 -27 3 -52 10 -55 14 -7 12 -201 12 -208 0 -3 -4
-28 -11 -55 -14 -58 -7 -187 -61 -236 -99 -126 -97 -201 -190 -245 -303 -12
-33 -28 -71 -34 -84 -16 -35 -15 -356 2 -373 6 -6 12 -19 12 -28 0 -25 82
-179 116 -219 78 -92 129 -121 214 -121 132 0 223 92 224 225 1 66 -4 79 -78
184 -49 70 -49 72 -49 146 1 65 4 81 29 118 53 80 119 117 211 117 35 0 63 -4
63 -8 0 -4 16 -14 35 -21 35 -12 135 -114 135 -138 0 -7 4 -13 9 -13 10 0 51
-93 75 -169 27 -86 24 -256 -7 -351 -25 -76 -51 -133 -74 -158 -7 -7 -13 -16
-13 -20 -1 -13 -96 -110 -155 -157 -33 -26 -62 -51 -65 -54 -14 -17 -207 -115
-255 -130 -22 -7 -49 -16 -60 -21 -11 -5 -69 -19 -128 -30 -90 -17 -152 -20
-376 -21 -252 -1 -272 0 -337 21 -38 12 -87 31 -110 41 -22 11 -43 19 -47 19
-9 0 -130 72 -145 87 -7 7 -17 13 -21 13 -22 0 -231 225 -231 249 0 6 -3 11
-8 11 -8 0 -72 121 -72 138 0 6 -4 12 -8 14 -11 4 -49 122 -61 192 -6 33 -11
123 -11 200 0 139 7 189 53 371 9 33 29 116 47 185 17 69 37 148 45 175 8 28
17 69 21 93 4 23 10 42 15 42 5 0 9 9 9 19 0 28 49 145 97 231 51 91 208 290
229 290 4 0 24 15 44 33 60 52 86 71 116 89 57 33 209 106 234 113 14 3 34 10
45 15 65 28 311 65 316 48 0 -2 7 -115 14 -253 19 -335 24 -364 70 -421 20
-25 58 -55 84 -67 45 -21 55 -22 421 -22 364 0 376 1 420 22 66 31 103 72 125
134 19 53 19 96 0 148 -15 43 -80 121 -101 121 -7 0 -14 6 -16 13 -4 9 -70 13
-276 15 l-272 3 0 87 c0 48 -3 117 -7 155 l-6 67 570 0 571 0 -14 -62 c-7 -35
-13 -88 -14 -118 0 -62 29 -210 42 -210 4 0 8 -6 8 -13 0 -36 82 -154 144
-206 10 -9 25 -23 34 -31 18 -18 47 -35 85 -52 15 -7 27 -15 27 -19 0 -4 24
-12 53 -19 28 -6 63 -17 76 -23 18 -9 198 -12 685 -12 657 0 661 0 706 22 59
28 102 71 120 118 13 34 13 146 0 180 -12 32 -79 105 -96 105 -7 0 -14 6 -16
13 -4 9 -150 13 -669 17 l-665 5 -31 32 c-36 37 -50 88 -36 130 l10 28 729 5
c522 4 735 9 749 17 11 6 56 16 99 22 44 6 84 15 90 20 6 5 27 12 46 16 33 7
168 65 200 85 8 6 26 16 40 22 101 50 296 216 370 316 14 19 32 41 40 50 59
61 172 291 202 407 5 22 14 49 19 60 26 60 39 356 18 412 -9 26 -93 113 -164
173 -17 13 -66 55 -110 93 -44 38 -104 90 -134 116 -30 25 -59 51 -65 56 -6 6
-47 42 -91 80 -44 39 -85 75 -91 80 -6 6 -32 28 -59 50 -26 22 -68 58 -92 80
-25 22 -54 47 -65 55 -10 8 -36 31 -57 50 -21 19 -62 55 -92 80 -29 25 -65 56
-80 70 -15 14 -49 43 -75 65 -26 22 -52 45 -58 50 -68 61 -213 133 -286 142
-28 3 -53 10 -56 14 -7 12 -200 11 -222 0 -9 -5 -43 -14 -75 -20 -51 -9 -176
-63 -210 -91 -6 -5 -26 -21 -42 -34 l-30 -24 -30 24 c-17 13 -37 30 -45 38
-28 25 -225 153 -280 182 -30 16 -57 31 -60 34 -13 13 -112 60 -125 60 -8 0
-15 4 -15 8 0 4 -17 14 -37 21 -21 7 -51 19 -68 26 -16 8 -57 24 -90 36 -33
12 -67 25 -75 29 -9 4 -43 14 -75 21 -33 7 -62 16 -65 19 -12 14 -235 57 -415
80 -85 11 -489 10 -565 -1z"/>
</g>
</svg>
