<?xml version="1.0" standalone="no"?>
<!DOCTYPE svg PUBLIC "-//W3C//DTD SVG 20010904//EN"
 "http://www.w3.org/TR/2001/REC-SVG-20010904/DTD/svg10.dtd">
<svg version="1.0" xmlns="http://www.w3.org/2000/svg"
 width="900.000000pt" height="900.000000pt" viewBox="0 0 900.000000 900.000000"
 preserveAspectRatio="xMidYMid meet">
<metadata>
Created by potrace 1.16, written by Peter Selinger 2001-2019
</metadata>
<g transform="translate(0.000000,900.000000) scale(0.100000,-0.100000)"
fill="#2C2F61" stroke="none">
<path d="M5250 7768 c-46 -4 -86 -12 -90 -17 -3 -4 -26 -11 -51 -15 -26 -4
-55 -13 -65 -21 -11 -8 -26 -15 -35 -15 -20 0 -151 -87 -200 -132 -66 -60
-179 -246 -179 -294 0 -8 -6 -14 -12 -14 -7 0 -38 -14 -68 -30 -30 -16 -66
-35 -80 -42 -23 -11 -80 -51 -138 -95 -59 -45 -186 -175 -241 -248 -33 -44
-64 -84 -69 -90 -17 -22 -101 -174 -129 -235 -34 -73 -83 -211 -83 -233 0 -9
-4 -17 -8 -19 -10 -3 -62 -212 -62 -249 -1 -13 -9 -42 -20 -64 -11 -22 -19
-46 -20 -52 0 -7 -4 -13 -9 -13 -5 0 -12 -11 -15 -24 -3 -13 -24 -56 -46 -95
-22 -39 -40 -75 -40 -81 0 -5 -4 -10 -10 -10 -5 0 -10 -5 -10 -12 0 -6 -11
-26 -25 -44 -14 -18 -25 -35 -25 -38 0 -6 -38 -62 -102 -151 -67 -92 -261
-299 -353 -375 -46 -38 -143 -110 -149 -110 -5 0 -74 -44 -92 -58 -5 -5 -27
-15 -47 -21 -20 -7 -37 -16 -37 -21 0 -4 -12 -11 -26 -14 -33 -9 -181 -98
-287 -173 -66 -47 -300 -268 -352 -333 -59 -73 -131 -182 -172 -260 -56 -105
-113 -241 -113 -270 0 -10 -4 -20 -8 -22 -14 -5 -52 -180 -62 -284 -5 -54 -10
-336 -10 -626 0 -291 -4 -528 -8 -528 -8 0 -27 13 -82 58 -15 12 -31 22 -34
22 -3 0 -15 8 -25 17 -11 10 -26 23 -33 29 -97 78 -219 194 -279 266 -11 13
-27 32 -37 43 -30 33 -102 131 -102 139 0 4 -6 14 -12 21 -27 30 -35 43 -85
130 -42 75 -85 161 -134 270 -14 32 -40 107 -51 150 -6 22 -14 45 -18 50 -4 6
-14 44 -21 85 -7 41 -15 77 -19 80 -17 13 -45 295 -45 445 1 153 25 394 45
440 4 11 14 49 20 84 6 35 15 71 20 80 4 9 21 57 36 106 16 50 31 92 35 95 4
3 12 24 19 48 7 23 17 42 22 42 4 0 8 6 8 12 0 12 50 118 60 128 3 3 12 19 20
35 8 17 19 35 23 40 17 22 97 157 97 165 0 4 7 10 15 14 8 3 15 10 15 16 0 10
51 80 101 139 93 110 131 191 131 278 0 54 -21 143 -33 143 -5 0 -9 6 -9 14 0
15 -79 96 -94 96 -5 0 -17 7 -26 15 -48 44 -238 39 -304 -8 -46 -31 -157 -149
-251 -264 -30 -38 -128 -167 -142 -189 -116 -177 -150 -237 -228 -399 -115
-237 -193 -464 -244 -705 -55 -259 -56 -273 -55 -545 0 -225 4 -276 23 -375
50 -262 87 -408 127 -499 13 -29 24 -59 24 -65 0 -6 7 -24 16 -41 9 -16 22
-46 29 -65 15 -41 145 -306 180 -365 47 -82 53 -91 66 -115 19 -35 204 -309
231 -343 184 -229 264 -318 394 -437 44 -41 128 -110 192 -158 12 -9 28 -22
35 -27 63 -53 284 -184 412 -244 50 -24 98 -47 107 -52 51 -27 236 -86 294
-94 27 -4 54 -11 59 -16 25 -19 326 -24 1170 -19 623 3 906 8 920 16 11 6 42
22 70 35 134 65 225 244 196 386 -18 93 -72 185 -134 229 -17 13 -37 28 -44
34 -27 23 -123 49 -203 56 -73 6 -81 9 -60 18 14 6 27 13 30 16 3 3 19 12 35
22 97 54 284 229 324 305 l13 26 19 -43 c10 -23 19 -46 19 -52 0 -5 8 -28 19
-51 10 -23 36 -89 56 -147 21 -58 46 -124 56 -147 11 -23 19 -48 19 -55 0 -8
4 -18 8 -23 5 -6 21 -46 37 -90 15 -44 33 -93 40 -110 7 -16 22 -57 34 -90 40
-109 73 -172 110 -213 40 -44 121 -92 157 -92 13 0 26 -4 29 -10 4 -6 117 -10
305 -10 188 0 301 4 305 10 3 6 16 10 28 10 59 0 217 121 217 166 0 8 4 14 9
14 11 0 41 119 41 165 0 43 -30 155 -42 155 -4 0 -8 7 -8 16 0 23 -113 130
-146 138 -16 4 -31 11 -34 14 -7 9 -108 53 -137 59 -13 3 -23 9 -23 13 0 4
-19 12 -42 19 -72 22 -91 44 -124 139 -16 48 -32 89 -36 90 -5 2 -8 10 -8 18
0 15 -85 275 -101 309 -14 30 -39 161 -39 203 0 44 26 188 39 217 5 11 23 51
41 90 55 123 137 238 271 380 37 38 73 84 82 100 53 101 107 219 127 280 13
39 27 79 31 90 22 55 51 214 60 335 13 162 -1 396 -31 509 -11 41 -20 83 -20
93 0 10 -4 18 -9 18 -6 0 -13 20 -16 45 -4 24 -13 50 -21 56 -8 6 -14 15 -14
20 0 4 -18 27 -40 51 -95 100 -174 273 -186 406 l-6 68 71 -4 c39 -2 77 0 84
6 6 5 42 13 78 16 36 4 78 14 94 22 15 8 32 14 39 14 6 0 34 12 61 26 161 85
293 208 354 329 23 44 41 87 41 96 0 8 6 21 13 27 16 17 17 239 1 250 -6 4
-14 19 -17 34 -7 28 -110 138 -130 138 -19 0 -90 52 -144 106 -59 59 -88 110
-97 174 -9 65 -48 200 -58 200 -4 0 -8 8 -8 19 0 10 -9 30 -20 44 -11 14 -20
28 -20 32 0 15 -85 111 -137 155 -87 73 -96 80 -104 80 -4 0 -14 6 -21 14 -20
20 -178 94 -216 102 -18 4 -35 11 -38 15 -3 5 -13 9 -22 9 -9 0 -23 4 -30 9
-22 14 12 170 54 248 41 77 45 128 12 165 -29 32 -69 38 -178 26z m341 -1076
c25 -27 29 -41 29 -88 0 -50 -3 -59 -34 -90 -34 -34 -35 -34 -126 -34 -91 0
-92 0 -126 34 -30 30 -34 40 -34 89 0 45 5 59 28 85 36 40 43 42 145 39 86 -2
89 -3 118 -35z"/>
</g>
</svg>
