<?xml version="1.0" standalone="no"?>
<!DOCTYPE svg PUBLIC "-//W3C//DTD SVG 20010904//EN"
 "http://www.w3.org/TR/2001/REC-SVG-20010904/DTD/svg10.dtd">
<svg version="1.0" xmlns="http://www.w3.org/2000/svg"
 width="900.000000pt" height="900.000000pt" viewBox="0 0 900.000000 900.000000"
 preserveAspectRatio="xMidYMid meet">
<metadata>
Created by potrace 1.16, written by Peter Selinger 2001-2019
</metadata>
<g transform="translate(0.000000,900.000000) scale(0.100000,-0.100000)"
fill="#2C2F61" stroke="none">
<path d="M6016 7751 c-3 -5 -18 -12 -33 -16 -42 -10 -112 -94 -113 -135 -1 -8
-9 -33 -20 -55 -11 -22 -20 -47 -20 -55 0 -8 -6 -26 -13 -40 -7 -14 -26 -61
-42 -105 -16 -44 -31 -84 -35 -90 -4 -5 -10 -23 -14 -40 -4 -16 -13 -43 -21
-60 -33 -78 -55 -135 -55 -147 -1 -7 -9 -31 -20 -53 -11 -22 -19 -46 -20 -53
0 -7 -8 -32 -19 -55 -10 -23 -37 -94 -60 -157 -23 -63 -45 -124 -50 -135 -5
-11 -15 -38 -24 -60 -8 -22 -26 -70 -41 -108 -14 -37 -26 -72 -26 -78 0 -6 -7
-25 -15 -42 -8 -18 -51 -131 -95 -252 -44 -121 -84 -228 -90 -237 -5 -10 -10
-23 -10 -29 0 -6 -7 -25 -15 -42 -13 -30 -39 -98 -52 -139 -4 -13 2 -19 23
-24 16 -4 34 -10 39 -14 6 -4 46 -19 90 -34 44 -15 91 -33 105 -41 14 -7 42
-16 63 -20 20 -4 37 -11 37 -15 0 -5 15 -12 33 -15 17 -4 51 -16 74 -26 23
-11 49 -19 57 -19 8 0 17 -4 20 -9 3 -4 27 -14 53 -21 27 -7 53 -16 58 -20 6
-4 46 -19 90 -35 44 -15 85 -31 90 -35 6 -4 23 -10 40 -14 16 -4 48 -16 72
-27 23 -10 48 -19 55 -19 7 -1 31 -9 53 -20 22 -11 48 -19 57 -20 9 0 19 -4
22 -9 3 -4 27 -14 53 -21 27 -7 53 -16 58 -20 6 -4 46 -19 90 -34 44 -16 94
-34 112 -42 17 -8 45 -17 62 -20 17 -4 34 -11 37 -15 3 -5 13 -9 23 -9 17 0
31 45 48 156 l5 32 286 5 c262 4 411 17 437 37 6 4 25 10 42 13 32 6 113 38
143 57 8 5 35 19 59 31 44 22 166 115 213 162 22 22 102 120 126 153 24 34 37
58 77 140 24 50 47 104 50 120 4 16 11 38 15 49 28 63 41 305 19 362 -12 33
-67 93 -85 93 -7 0 -14 6 -16 13 -4 9 -86 13 -354 15 l-350 3 -18 72 c-18 72
-63 179 -78 185 -4 2 -8 10 -8 18 0 12 -133 152 -171 179 -26 20 -94 54 -149
77 -51 21 -74 23 -306 26 l-251 3 -11 57 c-32 178 -45 239 -52 257 -5 11 -14
58 -21 105 -6 47 -15 90 -19 95 -4 6 -10 34 -14 64 -7 57 -37 125 -66 153 -34
32 -103 58 -156 58 -29 0 -55 -4 -58 -9z"/>
<path d="M1825 6190 c-162 -29 -366 -152 -465 -281 -25 -32 -53 -68 -62 -80
-25 -31 -78 -145 -95 -204 -28 -95 -32 -131 -32 -250 0 -119 4 -155 32 -250
17 -59 70 -173 95 -203 9 -12 37 -48 62 -80 40 -53 147 -146 203 -178 55 -31
125 -63 152 -70 17 -4 35 -10 40 -14 22 -17 135 -30 261 -30 l133 0 -35 -77
c-20 -43 -39 -85 -44 -93 -4 -9 -11 -31 -15 -50 -4 -19 -11 -39 -15 -45 -4 -5
-17 -58 -29 -117 -21 -106 -21 -120 -21 -1486 0 -1322 1 -1382 19 -1421 19
-44 71 -97 109 -112 30 -12 963 -12 994 0 35 13 96 75 104 105 3 14 10 29 15
32 5 3 9 389 9 901 l0 896 53 -8 c57 -8 246 -24 572 -50 116 -9 233 -20 260
-25 28 -6 127 -15 220 -20 94 -6 193 -15 220 -20 28 -5 104 -12 170 -15 66 -3
143 -10 170 -15 28 -5 85 -12 128 -15 l77 -7 0 -814 c0 -782 1 -816 19 -852
25 -48 66 -86 115 -106 33 -14 100 -16 496 -16 403 0 461 2 491 16 51 25 89
64 110 112 18 42 19 86 19 1040 1 1056 -1 1002 46 1227 9 39 23 113 33 165 10
52 20 102 23 110 4 8 13 56 22 105 9 50 23 124 31 165 9 41 24 118 34 170 10
52 20 102 24 110 3 8 11 51 17 94 7 44 16 90 21 103 11 29 -12 43 -123 76 -21
6 -38 14 -38 18 0 4 -25 13 -55 20 -30 7 -55 15 -55 20 0 4 -12 10 -27 13 -27
7 -109 37 -168 62 -16 7 -43 16 -60 20 -16 4 -34 10 -40 14 -5 4 -28 13 -50
20 -22 7 -44 16 -50 20 -5 5 -27 11 -47 15 -21 4 -38 11 -38 15 0 5 -25 14
-55 21 -30 7 -55 15 -55 20 0 4 -12 10 -27 13 -27 7 -109 37 -168 62 -16 7
-43 16 -60 20 -16 4 -34 10 -40 14 -5 4 -28 13 -50 20 -22 7 -44 16 -50 21 -5
5 -15 9 -23 9 -7 0 -32 9 -55 19 -23 11 -59 22 -79 26 -21 4 -38 11 -38 15 0
5 -15 12 -32 15 -18 4 -52 16 -75 26 -40 18 -82 19 -1010 18 -532 0 -988 -4
-1013 -8 -60 -11 -170 -40 -195 -51 -11 -5 -31 -12 -45 -16 -29 -8 -183 -83
-190 -93 -20 -26 -73 -31 -338 -31 -152 0 -304 4 -336 10 -213 35 -363 245
-327 459 28 170 155 301 320 331 29 6 210 10 402 10 192 0 350 4 353 9 3 5 17
12 31 15 32 8 88 63 102 101 23 59 25 94 8 150 -17 59 -34 81 -92 121 l-36 24
-411 -1 c-226 -1 -429 -5 -451 -9z"/>
</g>
</svg>
