<?xml version="1.0" standalone="no"?>
<!DOCTYPE svg PUBLIC "-//W3C//DTD SVG 20010904//EN"
 "http://www.w3.org/TR/2001/REC-SVG-20010904/DTD/svg10.dtd">
<svg version="1.0" xmlns="http://www.w3.org/2000/svg"
 width="900.000000pt" height="900.000000pt" viewBox="0 0 900.000000 900.000000"
 preserveAspectRatio="xMidYMid meet">
<metadata>
Created by potrace 1.16, written by Peter Selinger 2001-2019
</metadata>
<g transform="translate(0.000000,900.000000) scale(0.100000,-0.100000)"
fill="#2C2F61" stroke="none">
<path d="M155 6581 c-44 -11 -96 -49 -125 -90 -25 -36 -25 -37 -24 -266 0
-140 5 -252 12 -285 7 -30 19 -95 27 -145 21 -132 91 -367 133 -451 5 -11 30
-62 56 -114 67 -135 145 -255 218 -335 15 -16 40 -44 55 -61 30 -33 156 -140
193 -164 12 -8 28 -20 34 -26 7 -6 25 -19 41 -28 17 -9 44 -25 60 -36 17 -11
56 -32 87 -47 32 -16 58 -30 58 -33 0 -3 -26 -18 -58 -33 -66 -32 -77 -38
-157 -92 -163 -108 -289 -226 -378 -354 -18 -25 -35 -48 -38 -51 -21 -16 -122
-206 -177 -330 -54 -124 -104 -296 -127 -435 -8 -49 -20 -115 -27 -145 -7 -33
-12 -145 -12 -285 -1 -229 -1 -230 24 -266 43 -63 98 -91 193 -96 93 -6 385
12 431 26 17 6 60 14 96 19 92 13 224 45 228 54 2 4 12 8 22 8 29 0 187 53
262 89 37 17 69 31 72 31 16 0 243 139 277 170 9 8 32 26 50 40 96 71 259 261
328 382 18 32 36 60 41 63 5 3 11 19 15 35 4 17 10 30 15 30 5 0 14 17 21 38
6 20 15 42 18 47 4 6 20 44 35 85 16 41 34 89 41 105 7 17 16 54 20 82 4 29
11 55 15 58 4 3 11 28 15 55 4 27 10 52 15 55 7 4 49 -43 140 -156 19 -23 51
-59 70 -79 19 -20 57 -62 83 -93 64 -76 235 -245 327 -325 41 -36 88 -77 105
-91 24 -20 125 -100 240 -189 34 -26 156 -102 164 -102 5 0 11 -3 13 -8 5 -12
134 -85 218 -124 141 -66 166 -77 195 -84 17 -4 35 -10 40 -14 16 -11 136 -48
180 -56 22 -4 45 -10 50 -14 9 -7 148 -30 180 -30 13 0 15 251 15 1980 0 1729
-2 1980 -15 1980 -32 0 -171 -23 -180 -30 -5 -4 -29 -11 -53 -15 -39 -6 -126
-33 -177 -54 -11 -5 -47 -19 -80 -31 -126 -49 -365 -171 -373 -192 -2 -4 -8
-8 -13 -8 -8 0 -130 -76 -164 -102 -140 -108 -221 -172 -225 -177 -3 -3 -34
-30 -70 -59 -77 -63 -276 -258 -357 -349 -32 -35 -76 -84 -98 -107 -22 -23
-56 -62 -75 -86 -92 -113 -133 -159 -140 -155 -4 3 -11 26 -15 52 -4 27 -10
53 -15 58 -4 6 -11 33 -15 60 -4 28 -12 64 -20 80 -7 17 -25 64 -41 105 -15
41 -31 80 -35 85 -3 6 -12 27 -18 48 -7 20 -16 37 -21 37 -5 0 -11 13 -15 30
-4 16 -10 32 -15 35 -5 3 -23 31 -41 63 -69 121 -232 311 -328 382 -18 14 -41
32 -50 40 -38 34 -259 170 -276 170 -3 0 -36 14 -73 31 -76 36 -233 89 -262
89 -11 0 -20 4 -20 8 0 9 -123 38 -230 54 -36 5 -79 13 -95 18 -70 22 -434 37
-500 21z"/>
<path d="M4660 4500 l0 -1982 68 7 c37 4 85 13 107 20 22 7 56 16 75 20 46 9
150 43 172 55 10 6 23 10 29 10 7 0 35 11 63 24 28 13 87 41 131 61 72 34 283
151 295 165 3 3 12 10 21 15 32 19 134 90 145 100 7 5 24 19 39 29 14 11 35
27 46 35 10 9 31 25 45 36 152 118 439 401 609 600 28 32 60 70 72 84 27 31
26 30 82 106 24 33 50 67 58 75 8 8 34 42 58 75 25 33 48 65 53 70 17 22 58
81 67 97 6 9 31 48 57 85 76 112 88 140 88 213 0 73 -12 101 -88 213 -26 37
-51 76 -57 85 -9 16 -50 75 -67 97 -5 6 -28 37 -53 70 -24 33 -51 67 -60 76
-8 9 -15 21 -15 27 0 7 -4 12 -9 12 -5 0 -19 15 -30 33 -11 17 -31 44 -43 59
-13 15 -39 46 -58 69 -19 23 -44 52 -55 65 -11 12 -45 50 -75 85 -127 146
-406 414 -534 514 -14 11 -35 27 -45 36 -11 8 -32 24 -46 35 -15 10 -32 24
-39 29 -11 10 -113 81 -145 100 -9 6 -18 12 -21 15 -13 14 -224 131 -305 170
-161 76 -171 80 -183 80 -7 0 -20 4 -30 10 -22 12 -126 46 -172 55 -19 4 -53
13 -75 20 -22 7 -70 16 -107 20 l-68 7 0 -1982z m890 387 c19 -12 41 -28 48
-37 27 -33 52 -95 52 -130 0 -35 -25 -97 -52 -130 -32 -39 -87 -62 -148 -61
-94 0 -153 45 -184 139 -16 46 -16 54 -1 104 17 58 35 83 80 112 62 40 141 41
205 3z"/>
</g>
</svg>
