<?xml version="1.0" standalone="no"?>
<!DOCTYPE svg PUBLIC "-//W3C//DTD SVG 20010904//EN"
 "http://www.w3.org/TR/2001/REC-SVG-20010904/DTD/svg10.dtd">
<svg version="1.0" xmlns="http://www.w3.org/2000/svg"
 width="900.000000pt" height="900.000000pt" viewBox="0 0 900.000000 900.000000"
 preserveAspectRatio="xMidYMid meet">
<metadata>
Created by potrace 1.16, written by Peter Selinger 2001-2019
</metadata>
<g transform="translate(0.000000,900.000000) scale(0.100000,-0.100000)"
fill="#FFC700" stroke="none">
<path d="M3005 6957 c-77 -11 -142 -23 -145 -27 -3 -3 -38 -11 -78 -18 -40 -7
-80 -16 -90 -21 -9 -5 -35 -14 -57 -20 -42 -10 -116 -35 -150 -51 -11 -5 -38
-14 -60 -21 -22 -6 -42 -15 -45 -18 -3 -4 -36 -19 -75 -35 -38 -15 -72 -31
-75 -34 -3 -4 -48 -29 -100 -56 -52 -27 -97 -52 -100 -55 -3 -3 -39 -28 -80
-56 -41 -27 -79 -53 -85 -58 -5 -4 -35 -27 -65 -50 -84 -64 -115 -92 -240
-217 -101 -101 -270 -297 -270 -314 0 -3 -7 -14 -16 -23 -40 -46 -143 -223
-203 -348 -23 -49 -49 -103 -57 -120 -21 -45 -74 -195 -85 -240 -5 -22 -16
-60 -24 -85 -26 -86 -36 -131 -60 -287 -22 -138 -25 -189 -25 -434 l0 -277
-187 -4 c-138 -2 -187 -6 -191 -15 -2 -7 -11 -13 -20 -13 -45 0 -211 -103
-256 -158 -6 -7 -19 -22 -29 -33 -32 -35 -84 -123 -97 -164 -7 -22 -18 -46
-24 -54 -7 -9 -11 -72 -10 -180 0 -155 2 -170 25 -221 41 -90 66 -133 98 -170
88 -102 139 -139 276 -202 l50 -23 1340 -5 c1409 -6 1432 -7 1535 -51 75 -33
115 -56 159 -94 75 -65 161 -173 161 -203 0 -6 3 -12 8 -14 16 -7 52 -148 58
-228 9 -122 40 -177 123 -220 53 -26 138 -27 187 -1 52 28 102 87 110 128 14
72 -4 273 -31 358 -31 100 -115 269 -155 314 -16 18 -30 36 -30 40 0 7 -84 95
-131 136 -71 63 -200 145 -249 160 -14 4 -27 11 -30 15 -7 9 -132 48 -200 62
-39 8 -443 13 -1400 17 -1002 5 -1352 9 -1371 18 -47 21 -97 81 -108 131 -22
91 9 168 89 223 l35 24 1588 3 1587 2 0 174 c0 141 -4 191 -21 263 -23 100
-73 233 -100 268 -11 13 -19 27 -19 31 0 8 -41 71 -75 114 -54 69 -181 184
-257 234 -47 31 -89 56 -92 56 -3 0 -29 11 -58 23 -128 57 -193 72 -371 87
-71 5 -117 14 -135 25 -40 25 -82 75 -88 104 -3 14 -10 36 -16 49 -8 16 -8 28
0 45 6 12 13 33 16 47 11 53 86 114 151 124 80 12 372 -27 442 -59 17 -8 40
-15 50 -15 11 0 28 -7 39 -15 10 -8 26 -15 34 -15 8 0 38 -12 65 -25 28 -14
56 -25 63 -25 6 0 12 -4 12 -8 0 -5 12 -14 27 -21 25 -12 133 -80 143 -91 3
-3 23 -18 45 -35 56 -42 183 -170 238 -240 26 -33 52 -65 57 -72 6 -7 10 -14
10 -17 0 -3 18 -34 40 -68 22 -35 40 -68 40 -75 0 -6 6 -18 13 -25 23 -25 94
-223 103 -291 4 -26 10 -47 14 -47 11 0 22 -126 29 -325 l6 -170 1378 -3 1378
-2 41 23 c23 13 55 40 72 61 27 33 31 47 34 111 3 54 0 82 -12 104 -9 17 -23
44 -32 61 -8 16 -20 30 -25 30 -5 0 -9 4 -9 10 0 8 -98 158 -127 195 -4 6 -30
44 -58 85 -27 41 -52 77 -55 80 -10 10 -50 69 -50 75 0 3 -18 30 -40 60 -22
30 -40 59 -40 65 0 5 -5 10 -10 10 -6 0 -15 10 -20 23 -5 12 -32 54 -60 92
-28 39 -53 78 -57 88 -3 9 -9 17 -13 17 -5 0 -12 9 -15 20 -3 11 -12 26 -18
32 -7 7 -35 47 -62 88 -28 41 -52 77 -55 80 -3 3 -20 27 -38 54 l-32 49 0 602
c0 668 1 657 -65 721 -19 18 -51 41 -71 49 -101 42 -349 -1 -533 -93 -128 -64
-141 -72 -141 -83 0 -5 -6 -9 -14 -9 -7 0 -51 -36 -98 -79 -78 -74 -86 -78
-100 -63 -30 32 -144 137 -188 172 -24 19 -48 40 -54 45 -6 6 -40 31 -76 57
-36 26 -70 52 -77 58 -7 5 -25 16 -40 22 -15 7 -30 15 -33 18 -25 28 -360 196
-410 206 -16 4 -30 10 -30 15 0 5 -6 9 -12 9 -15 0 -175 49 -200 61 -9 4 -47
13 -85 19 -37 6 -77 15 -88 20 -109 47 -648 63 -890 27z m2665 -2077 c100 -51
137 -179 79 -276 -22 -37 -87 -84 -115 -84 -11 0 -25 -5 -31 -11 -9 -9 -20 -9
-40 -1 -15 6 -39 13 -53 16 -28 6 -100 72 -100 91 0 7 -5 15 -12 17 -20 7 -15
128 7 163 67 105 165 136 265 85z"/>
</g>
</svg>
