<svg width="39" height="40" viewBox="0 0 39 40" fill="none" xmlns="http://www.w3.org/2000/svg">
<g clip-path="url(#clip0_1345_499)">
<path d="M38.3955 12.2486C38.7292 12.2486 38.9997 11.9782 38.9997 11.6444V9.29305C38.9997 7.75189 37.7459 6.49805 36.2048 6.49805H3.52539C1.98431 6.49797 0.730469 7.75166 0.730469 9.2929V30.4699C0.730469 32.0111 1.98431 33.265 3.52539 33.265H36.2048C37.7459 33.265 38.9997 32.0111 38.9997 30.4699V13.6048C38.9997 13.271 38.7291 13.0005 38.3955 13.0005C38.0617 13.0005 37.7912 13.271 37.7912 13.6048V30.47C37.7912 31.3449 37.0795 32.0566 36.2048 32.0566H3.52539C2.65058 32.0566 1.93894 31.3449 1.93894 30.47V9.2929C1.93894 8.41801 2.65058 7.70629 3.52539 7.70637H36.2048C37.0795 7.70637 37.7912 8.41809 37.7912 9.2929V11.6442C37.7912 11.978 38.0617 12.2486 38.3955 12.2486Z" fill="white"/>
<path d="M23.2305 21.3883C22.9228 21.8133 22.4102 22.0993 21.7611 22.0993C20.5138 22.0993 19.7108 21.1716 19.7108 19.8366C19.7108 18.5708 20.5566 17.5909 21.8039 17.5909C22.2908 17.5909 22.863 17.7821 23.1792 18.224L23.9994 17.5652C23.5209 16.9237 22.5898 16.6289 21.8039 16.6289C19.9416 16.6289 18.5234 17.8687 18.5234 19.8366C18.5234 21.7525 19.8647 23.079 21.7526 23.079C22.7777 23.079 23.5636 22.6802 24.0933 22.004L23.2305 21.3883Z" fill="white"/>
<path d="M15.0433 21.9618L16.8732 20.2922C17.4384 19.7784 17.8959 19.2391 17.8959 18.46C17.8959 17.2953 16.8822 16.6875 15.7789 16.6875C14.7647 16.6875 13.9885 17.2447 13.7207 18.0487L14.7025 18.4742C14.8126 17.9366 15.1877 17.5436 15.761 17.5436C16.3351 17.5436 16.7746 17.9117 16.7746 18.4768C16.7746 18.9478 16.5233 19.2989 16.1288 19.667L13.6797 21.9618V22.9037H17.905V21.9618H15.0433Z" fill="white"/>
<path d="M30.3156 18.4416C30.295 18.2903 30.2457 18.1443 30.1707 18.0112C30.0572 17.8102 29.9244 17.6255 29.7762 17.4578C29.9334 17.1672 29.9682 16.819 29.8586 16.4955C28.4076 12.2107 24.3916 9.33203 19.8652 9.33203C17.0475 9.33203 14.3984 10.4293 12.406 12.4217C10.4137 14.414 9.31641 17.063 9.31641 19.8807C9.31641 22.6985 10.4137 25.3474 12.406 27.3398C14.3984 29.3321 17.0474 30.4294 19.8652 30.4294C22.1361 30.4294 24.2995 29.7188 26.1217 28.3741C27.8966 27.0644 29.197 25.2712 29.8844 23.1863C29.9305 23.0584 29.9556 22.9206 29.9556 22.7769C29.9556 22.562 29.8988 22.3608 29.8004 22.186C29.95 22.0123 30.0835 21.8212 30.1966 21.6126C30.2684 21.4797 30.3149 21.3346 30.3334 21.1846C30.3868 20.7529 30.4137 20.314 30.4137 19.8806C30.4138 19.403 30.3808 18.9188 30.3156 18.4416ZM28.6615 23.0223C28.6615 23.0223 28.6614 23.0227 28.6612 23.023C28.6217 23.1339 28.58 23.2437 28.5362 23.3527C28.5353 23.3552 28.5344 23.3578 28.5332 23.3602C28.4901 23.4676 28.4451 23.5737 28.398 23.679C28.3963 23.6831 28.3946 23.6873 28.3927 23.6913C28.3465 23.7948 28.2982 23.8973 28.2482 23.9987C28.2454 24.0045 28.2426 24.0103 28.2398 24.0161C28.1905 24.1157 28.1394 24.2143 28.0867 24.3118C28.0828 24.3193 28.0786 24.3268 28.0748 24.3342C28.0227 24.4301 27.9688 24.5246 27.9136 24.6183C27.9084 24.6273 27.9031 24.6364 27.8979 24.6453C27.8433 24.7371 27.7871 24.8279 27.7295 24.9175C27.7227 24.9281 27.7161 24.9386 27.7092 24.9492C27.6524 25.037 27.5942 25.1237 27.5344 25.2094C27.5261 25.2214 27.5178 25.2334 27.5094 25.2453C27.4506 25.3291 27.3902 25.4118 27.3287 25.4935C27.3186 25.5069 27.3086 25.5203 27.2984 25.5337C27.2378 25.6132 27.176 25.6918 27.1129 25.7694C27.1008 25.7843 27.0887 25.7992 27.0764 25.814C27.0144 25.8894 26.9511 25.9637 26.8868 26.0371C26.8726 26.0534 26.8582 26.0695 26.844 26.0857C26.7806 26.157 26.7162 26.2273 26.6507 26.2965C26.6343 26.3139 26.6178 26.331 26.6012 26.3483C26.5369 26.4154 26.4714 26.4817 26.405 26.5469C26.3863 26.5653 26.3674 26.5835 26.3483 26.6018C26.283 26.6649 26.2171 26.727 26.1499 26.7882C26.1286 26.8075 26.1071 26.8267 26.0857 26.8459C26.0197 26.9048 25.9531 26.9629 25.8857 27.02C25.8618 27.0401 25.8377 27.06 25.8136 27.0799C25.7472 27.1348 25.6803 27.189 25.6125 27.242C25.5859 27.2629 25.559 27.2833 25.5322 27.3038C25.4657 27.3547 25.3987 27.4051 25.3307 27.4542C25.3014 27.4755 25.2717 27.496 25.242 27.5169C25.1753 27.564 25.1083 27.6106 25.0403 27.6559C25.0082 27.6774 24.9755 27.6981 24.9432 27.7191C24.8767 27.7624 24.8098 27.8053 24.7419 27.8469C24.7069 27.8685 24.6714 27.8892 24.6361 27.9102C24.5698 27.9498 24.5032 27.989 24.4355 28.0271C24.3978 28.0484 24.3594 28.0688 24.3211 28.0896C24.255 28.1255 24.1887 28.1613 24.1217 28.1957C24.0807 28.2168 24.0394 28.2368 23.9982 28.2571C23.9326 28.2895 23.8669 28.322 23.8006 28.3529C23.7567 28.3734 23.7123 28.3925 23.6682 28.4122C23.603 28.4412 23.5381 28.4705 23.4721 28.4981C23.4253 28.5178 23.3778 28.5362 23.3306 28.5551C23.2662 28.5807 23.2022 28.6067 23.1372 28.6309C23.0872 28.6496 23.0367 28.667 22.9863 28.6848C22.9229 28.7073 22.8597 28.7302 22.7956 28.7513C22.7428 28.7688 22.6891 28.7847 22.6357 28.8012C22.5733 28.8206 22.5109 28.8405 22.4478 28.8587C22.392 28.8747 22.3353 28.889 22.279 28.9041C22.2175 28.9205 22.1561 28.9376 22.0941 28.9528C22.0349 28.9673 21.9751 28.9799 21.9156 28.9933C21.8553 29.0068 21.7955 29.0211 21.7348 29.0334C21.6721 29.0461 21.6088 29.0568 21.5456 29.0683C21.487 29.079 21.429 29.0905 21.3701 29.1C21.3036 29.1108 21.2362 29.1195 21.1692 29.1289C21.113 29.1368 21.0571 29.1456 21.0005 29.1525C20.9284 29.1612 20.8557 29.1677 20.7833 29.1746C20.731 29.1797 20.6789 29.1861 20.6263 29.1902C20.5442 29.1968 20.4612 29.2009 20.3787 29.2054C20.335 29.2078 20.2915 29.2115 20.2476 29.2133C20.1207 29.2185 19.9931 29.2212 19.865 29.2212C14.7065 29.2212 10.5249 25.0395 10.5249 19.881C10.5249 14.7226 14.7065 10.5409 19.865 10.5409C19.992 10.5409 20.1183 10.5434 20.2441 10.5485C20.2872 10.5502 20.3298 10.5538 20.373 10.5561C20.4551 10.5605 20.5376 10.5645 20.6193 10.5711C20.6709 10.5753 20.7218 10.5814 20.7732 10.5863C20.8455 10.5933 20.9183 10.5996 20.9902 10.6082C21.0459 10.6149 21.1008 10.6235 21.1562 10.6312C21.2231 10.6404 21.2901 10.649 21.3563 10.6596C21.4146 10.6689 21.472 10.6802 21.5299 10.6907C21.5925 10.702 21.6555 10.7125 21.7178 10.725C21.7775 10.737 21.8365 10.7509 21.8958 10.7641C21.9552 10.7773 22.015 10.7898 22.074 10.8042C22.135 10.8189 22.1949 10.8354 22.2553 10.8514C22.3118 10.8664 22.3686 10.8806 22.4248 10.8967C22.4869 10.9143 22.5481 10.9337 22.6097 10.9526C22.6631 10.9689 22.7167 10.9847 22.7698 11.002C22.8327 11.0227 22.8949 11.0449 22.9573 11.0669C23.0078 11.0846 23.0585 11.1018 23.1087 11.1204C23.1724 11.144 23.2351 11.1691 23.2983 11.1941C23.346 11.2129 23.394 11.2314 23.4413 11.2509C23.5055 11.2776 23.5691 11.3058 23.6326 11.3338C23.6775 11.3536 23.7226 11.3731 23.7672 11.3936C23.8322 11.4235 23.8962 11.4549 23.9604 11.4862C24.0024 11.5067 24.0445 11.5269 24.0862 11.5481C24.1516 11.5813 24.2163 11.6159 24.2808 11.6505C24.32 11.6716 24.3592 11.6924 24.398 11.7139C24.4638 11.7505 24.5286 11.7884 24.5935 11.8266C24.6299 11.848 24.6665 11.8691 24.7025 11.891C24.7686 11.9311 24.8338 11.9724 24.8986 12.0139C24.9323 12.0355 24.966 12.0568 24.9993 12.0789C25.0654 12.1225 25.1307 12.1674 25.1957 12.2125C25.2266 12.2341 25.2576 12.2553 25.2881 12.2773C25.3542 12.3246 25.4195 12.3729 25.4844 12.4218C25.5126 12.4431 25.5407 12.4643 25.5688 12.4859C25.6347 12.5369 25.6999 12.5889 25.7644 12.6416C25.79 12.6625 25.8156 12.6832 25.8409 12.7044C25.9066 12.7591 25.9713 12.815 26.0355 12.8715C26.0584 12.8917 26.0814 12.9119 26.1041 12.9324C26.1694 12.9911 26.2337 13.0507 26.2973 13.1112C26.3178 13.1306 26.3383 13.1501 26.3585 13.1698C26.4233 13.2323 26.487 13.2959 26.5497 13.3603C26.5678 13.3789 26.5858 13.3973 26.6037 13.416C26.6676 13.4825 26.7306 13.5501 26.7924 13.6185C26.8081 13.636 26.8238 13.6535 26.8395 13.671C26.9024 13.7414 26.9641 13.813 27.0248 13.8854C27.0385 13.9017 27.052 13.9181 27.0656 13.9344C27.1273 14.0089 27.1877 14.0842 27.247 14.1607C27.2586 14.1757 27.2703 14.1908 27.2818 14.206C27.342 14.2845 27.401 14.364 27.4588 14.4445C27.4685 14.458 27.478 14.4716 27.4877 14.4851C27.5463 14.5678 27.6037 14.6515 27.6597 14.7361C27.6676 14.7479 27.6752 14.76 27.6832 14.7719C27.74 14.8588 27.7956 14.9465 27.8495 15.0353C27.8558 15.0455 27.8617 15.0557 27.8679 15.0661C27.9229 15.157 27.9762 15.2487 28.028 15.3413C28.0328 15.3499 28.0374 15.3587 28.0422 15.3673C28.0947 15.4622 28.1457 15.558 28.1949 15.6548C28.1982 15.6613 28.2014 15.668 28.2047 15.6746C28.2549 15.7737 28.3033 15.8738 28.3499 15.9748C28.3521 15.9793 28.354 15.9839 28.356 15.9883C28.4036 16.0917 28.4492 16.1959 28.493 16.3013C28.4939 16.3035 28.4948 16.3058 28.4957 16.3079C28.5741 16.4971 28.6478 16.6886 28.7138 16.8838C28.3 16.7178 27.8339 16.6293 27.3308 16.6293C25.469 16.6293 24.0938 17.8652 24.0938 19.8273C24.0938 21.7375 25.4689 23.0601 27.3308 23.0601C27.8472 23.0601 28.3249 22.9605 28.7469 22.7775C28.72 22.8594 28.6907 22.9407 28.6615 23.0223ZM29.1342 21.0367C29.1089 21.0832 29.0816 21.1281 29.0535 21.1722C29.0454 21.1846 29.0369 21.1968 29.0286 21.209C29.007 21.241 28.9847 21.2724 28.9615 21.3031C28.9524 21.3152 28.9431 21.3272 28.9336 21.3391C28.9077 21.3717 28.8807 21.4035 28.8528 21.4344C28.8462 21.4418 28.8399 21.4495 28.8331 21.4567C28.4676 21.8497 27.9518 22.0827 27.3393 22.0827C26.1096 22.0827 25.2641 21.132 25.2641 19.8268C25.2641 18.5649 26.0926 17.5879 27.3393 17.5879C27.9487 17.5879 28.4567 17.8187 28.819 18.2C28.8262 18.2077 28.8333 18.2158 28.8406 18.2237C28.8673 18.2529 28.8933 18.2828 28.9185 18.3136C28.9282 18.3255 28.9377 18.3375 28.9471 18.3496C28.9698 18.3787 28.9916 18.4086 29.0127 18.4391C29.0211 18.4512 29.0298 18.4631 29.0378 18.4753C29.066 18.5176 29.0931 18.5608 29.1183 18.6054C29.1752 19.0224 29.2053 19.4481 29.2053 19.8808C29.2053 20.2721 29.1809 20.6579 29.1342 21.0367Z" fill="white"/>
</g>
<defs>
<clipPath id="clip0_1345_499">
<rect width="38.2692" height="38.2692" fill="white" transform="translate(0.730469 0.746094)"/>
</clipPath>
</defs>
</svg>
