<svg width="100" height="100" viewBox="0 0 100 100" fill="none" xmlns="http://www.w3.org/2000/svg">
<g clip-path="url(#clip0_1345_562)">
<path d="M50.0014 99.8837C22.4521 99.8837 0.117188 77.5488 0.117188 49.9995C0.117188 22.4501 22.4521 0.115234 50.0014 0.115234C77.5508 0.115234 99.8857 22.4501 99.8857 49.9995C99.8857 77.5488 77.5508 99.8837 50.0014 99.8837Z" fill="#FFC600"/>
<path d="M13.4759 41.1309C13.0019 41.6931 12.5664 42.2608 12.1641 42.8561C12.2247 42.8782 12.2853 42.9002 12.3404 42.9168C12.3956 42.8231 12.5279 42.7183 12.5664 42.6412C12.6161 42.542 12.8145 42.3876 12.8145 42.2388C12.8145 42.1396 12.9137 42.1892 12.9633 42.1396C13.1177 41.8364 13.2169 41.5388 13.4704 41.3844C13.4263 41.2301 13.6248 41.175 13.4759 41.1309Z" fill="white"/>
<path d="M31.6265 24.0046C31.5273 22.9958 31.169 22.0423 31.0202 21.3367C30.9209 21.0335 30.6178 20.4768 30.5131 20.328C30.4634 20.2729 30.3146 20.1737 30.265 20.0744C29.9618 19.6225 29.7138 18.9169 29.5099 18.5696C29.4106 18.4704 29.2618 18.3161 29.2618 18.2114C29.2122 17.9633 28.8594 17.9137 28.8594 17.7098C28.8594 17.5554 28.8098 17.6546 28.7602 17.5554C28.5122 17.2027 28.0547 16.8995 27.8562 16.7011C27.757 16.5467 27.757 16.3979 27.6082 16.2987C27.5531 16.2987 27.6578 16.0947 27.6082 16.0506C27.509 15.8963 27.2058 15.7971 27.1011 15.6923C27.0515 15.6427 27.1562 15.4939 27.1011 15.4443C27.0515 15.3947 26.8971 15.4994 26.853 15.4443C26.7538 15.3451 26.7042 15.2404 26.605 15.1963C26.3018 14.9482 26.2026 14.9923 25.7451 14.9482C25.3593 14.9096 24.8632 14.8049 24.4112 14.7773C25.5246 16.2821 25.9546 18.1562 25.6679 19.9532C25.6679 20.2508 25.6624 20.6367 25.5963 20.9894C25.0892 25.2172 24.086 29.9025 23.2261 33.8271C23.1269 34.2846 22.9229 35.0397 22.8237 35.3374C22.8237 35.3925 22.8237 35.4366 22.8237 35.4366C22.8237 35.5909 22.7245 35.5358 22.7245 35.5909C22.6253 35.839 22.6749 36.1421 22.5757 36.4453C22.3717 37.3548 22.1733 38.2092 21.9749 39.1187C21.7709 39.9234 21.4677 40.9266 21.4677 41.6377C21.4677 41.7314 21.3189 41.7314 21.3189 41.7314C21.2638 42.0897 21.2638 42.4369 21.2197 42.7456C21.0654 43.2968 20.8614 43.7984 20.8173 44.2559C20.8173 44.4047 20.7181 44.3496 20.7181 44.4047C20.6189 44.7079 20.6685 45.0607 20.5693 45.4134C20.5693 45.4134 20.4701 45.463 20.4701 45.5127C20.4149 45.7166 20.3708 45.8158 20.3157 45.915C20.2661 46.1135 20.2165 46.3119 20.2165 46.4166C20.1173 46.7584 20.0677 46.6702 19.9795 46.9072C20.007 46.9072 20.0677 46.9844 20.0677 47.023C20.0677 47.023 19.8637 47.271 19.8196 47.271C19.6653 47.5191 19.4613 48.0758 19.4613 48.175C19.4613 48.3293 19.3676 48.2301 19.3125 48.2742C19.1637 48.5774 19.1086 48.6766 18.9598 48.7813C18.9046 48.8309 18.9598 49.0294 18.9598 49.0294C18.9046 49.0845 18.7558 49.0294 18.7117 49.0294C18.6566 49.0845 18.6125 49.2774 18.5574 49.2774C18.4581 49.3766 18.3093 49.4813 18.2046 49.531C17.3998 50.0822 16.1927 50.4845 15.0296 50.4349C14.98 49.9829 15.0848 49.4758 15.184 49.0238C15.2336 48.5719 15.3824 47.7671 15.5368 47.6679C15.5864 47.6128 15.5368 47.4639 15.5368 47.4143C15.7848 46.8631 16.2423 45.6505 16.5455 45.4024C16.5951 45.3528 16.5455 45.1985 16.5455 45.1544C16.5455 45.1544 16.6447 45.1544 16.6943 45.1544C16.6943 45.0993 16.6447 44.9504 16.6943 44.9008H16.7935C16.8486 44.8512 16.7935 44.7024 16.7935 44.6528C16.8486 44.5536 16.9975 44.5039 17.0471 44.4047V44.2559C17.0471 44.1567 17.1408 44.2008 17.1959 44.1567C17.2124 44.1291 17.2179 44.1016 17.2345 44.074C17.1849 44.074 17.1353 44.0795 17.0856 44.074C16.9919 44.0685 16.8982 44.0575 16.8045 44.052C16.6888 44.2835 16.6061 44.4984 16.4407 44.7575C16.3911 44.8126 16.3415 44.7575 16.2919 44.7575C16.2368 44.8126 16.3415 45.0055 16.2919 45.0055C16.2368 45.1048 16.1376 45.1599 16.0384 45.2591C15.6415 46.0087 15.2336 46.8686 14.9304 47.6789C14.7816 47.9269 14.6824 48.1805 14.6824 48.4341C14.6824 48.5278 14.5336 48.5278 14.5336 48.5278C14.4343 48.886 14.4343 48.9853 14.4343 49.2829C14.3792 49.4869 14.3351 49.5861 14.28 49.6853C14.28 49.7845 14.4839 50.3908 14.032 50.2861C14.032 50.0877 13.7288 50.1924 13.7839 49.9333C13.7288 49.1782 14.032 48.5774 14.032 48.0207C14.032 47.9214 14.1312 47.9655 14.1808 47.9214C14.28 47.5687 14.28 47.2159 14.4343 46.9127C14.4343 46.8576 14.5336 46.8576 14.5336 46.7584C14.6824 46.4607 14.8312 46.0032 14.9304 45.904C15.0296 45.7497 15.184 45.5016 15.184 45.3969C15.184 45.193 15.3824 45.193 15.432 44.9945C15.432 44.8953 15.5919 44.6142 15.6911 44.4213C15.6911 44.3441 15.6856 43.9472 15.7297 43.837C15.7683 43.7433 15.8068 43.6496 15.8565 43.5614C15.9557 43.2803 16.1817 43.137 16.336 42.8503C16.3801 42.7952 16.2974 42.6519 16.2919 42.6023C16.2809 42.5527 16.5179 42.4535 16.5069 42.4038C16.8927 41.7204 17.1242 41.0589 17.692 40.5408C17.6479 40.4416 17.7636 40.3423 17.8408 40.2597C17.8463 40.2156 17.8518 40.1715 17.8573 40.1274C17.8353 40.1219 17.8132 40.1108 17.7691 40.1108C17.2951 40.866 16.6998 41.4888 16.2147 42.1999C16.0604 42.481 15.8179 42.7897 15.7462 42.9551C15.6635 43.0708 15.7407 43.2086 15.658 43.3299C15.6029 43.4622 15.4486 43.5834 15.3328 43.7157C15.2942 43.7047 15.195 43.7102 15.184 43.7267C14.8808 44.1291 14.7816 44.5866 14.4288 44.8843C14.4288 45.0386 14.3296 45.1874 14.2745 44.9835C14.2745 44.9835 14.2745 44.9339 14.2745 44.8843C14.3737 44.8843 14.4288 44.8843 14.4288 44.7355C14.5777 44.5315 14.6769 44.1346 14.7816 43.8756C14.8312 43.7764 14.7596 43.7157 14.8092 43.5173C14.8147 43.5063 14.8202 43.5008 14.8257 43.4897C15.0517 43.0873 15.2281 42.6409 15.4541 42.244C16.0824 41.2022 16.8541 40.1825 17.4605 39.3006C17.6313 39.1187 17.9014 38.9092 17.7361 38.584C17.4715 38.5289 17.2896 38.4131 17.1463 38.1871C16.8156 38.0438 16.6557 38.2808 16.4297 38.4737C16.2037 38.6226 16.1706 39.2399 15.8509 38.9423C15.895 38.8871 16.0659 38.4407 15.7572 38.4517C15.3108 38.5344 15.9336 38.0052 15.5919 38.121C15.1895 37.895 15.7462 37.3217 15.4045 37.1343C14.721 37.0075 14.28 37.4044 14.0871 37.7406C14.043 37.8013 13.8886 37.7792 13.8335 37.7902C13.7564 37.906 13.6461 38.1375 13.5634 38.2533C13.4367 38.38 13.1996 38.4737 13.117 38.595C12.9847 38.7218 12.913 38.8927 12.7862 39.0194C12.5327 39.3226 12.2846 39.6258 12.0862 39.9234C11.8326 40.2982 11.5681 40.7502 11.3035 41.1912C11.2814 41.1747 11.2594 41.1581 11.2373 41.1361C11.094 41.3676 11.0444 41.4723 10.9011 41.6211C10.857 41.6652 10.8901 41.781 10.8956 41.8471C10.8735 41.8857 10.846 41.9243 10.8239 41.9629C10.7192 42.0676 10.5759 42.1448 10.4987 42.2275V42.3763C10.4987 42.3983 10.4932 42.4094 10.4877 42.4259C10.4767 42.4369 10.4656 42.4535 10.4546 42.4645C10.4271 42.47 10.394 42.4535 10.394 42.481C10.0908 43.137 9.88688 43.7929 9.49001 44.1457C9.43489 44.1953 9.53411 44.3386 9.49001 44.3937H9.39079C9.3467 44.3937 9.26401 44.6914 9.23645 44.7465C9.18685 44.9504 9.23645 44.9504 9.14275 44.9945C9.08763 45.0496 9.14275 45.2481 9.14275 45.2481C9.08763 45.2977 8.98841 45.2481 8.98841 45.2481C8.9388 45.2977 8.98841 45.4961 8.98841 45.4961C8.88919 45.7993 8.83959 46.0969 8.74037 46.1521C8.74037 46.1521 8.74037 46.356 8.74037 46.4001C8.68525 46.9072 8.58603 47.1553 8.64115 47.508C8.64115 47.8663 8.8451 48.6711 8.88919 48.7703C8.88919 48.9742 8.98841 49.0735 8.98841 49.1672C9.04353 49.2223 8.98841 49.3711 8.98841 49.4207C9.04353 49.4703 9.19236 49.6247 9.23645 49.6688C9.33567 49.768 9.29158 49.9168 9.39079 50.0215C9.4404 50.1208 9.53962 50.2255 9.63884 50.2696C9.73805 50.4239 9.78766 50.5231 9.88688 50.672C10.0908 50.9751 10.4381 51.3279 10.642 51.5318C10.6972 51.6807 10.7413 51.835 10.8956 51.9342C10.9893 52.0334 11.1436 51.9838 11.2484 52.0334C11.4964 52.2319 11.4964 52.535 11.75 52.535C11.9539 52.5902 11.9539 52.7831 12.1523 52.7831C12.2516 52.8382 12.2019 52.8823 12.2516 52.9374C12.4004 53.0366 12.6043 52.987 12.7587 53.0366C12.7587 53.0862 12.8524 53.1359 12.9075 53.1855C13.2603 53.3894 13.7674 53.5878 14.1642 53.5382C14.3186 53.6926 14.3682 53.7918 14.5225 53.9406C14.721 54.0894 14.9745 54.2934 15.0241 54.2934C15.1785 54.3485 15.0793 54.3926 15.1785 54.4477C15.4761 54.6462 15.9281 55.0485 16.1872 55.0485C16.3911 55.1037 16.4848 55.2966 16.6888 55.2966C16.788 55.3517 16.7439 55.3958 16.788 55.4509C17.1408 55.5997 17.5983 55.699 17.951 55.8037C18.8109 56.1565 19.6102 56.5092 20.3157 56.5588C21.2748 56.7077 22.4324 56.5588 22.9891 56.4596C23.3418 56.3604 23.8434 56.2116 23.9978 56.0573C23.9978 56.0573 24.2017 56.1124 24.2458 56.0573C24.2458 56.0573 24.1962 55.958 24.2458 55.958C24.2458 55.9084 24.549 55.8588 24.5986 55.8092C24.7529 55.7596 24.8522 55.6604 25.001 55.5612C25.2049 55.4068 25.249 55.3572 25.3538 55.2029C25.4089 55.1533 25.5577 55.258 25.6073 55.2029C25.7561 55.1092 25.9601 54.9052 26.0042 54.806C26.1034 54.7068 26.2081 54.4036 26.3569 54.1997C26.6105 53.8469 26.8641 53.2957 27.0129 53.0421C27.068 52.9429 27.068 52.8382 27.1121 52.6894C27.2113 52.3862 27.3161 52.1823 27.3657 51.9342C27.4153 51.835 27.5145 51.835 27.5145 51.7799C27.6137 51.383 27.6633 50.9751 27.7625 50.5231C27.8176 50.2696 27.9665 50.016 28.0106 49.768C28.0657 49.4648 28.0657 49.112 28.1098 48.7593C28.209 48.2081 28.413 47.6513 28.5122 47.1442C28.6114 46.4883 28.661 45.8875 28.7602 45.2315C28.8153 44.978 28.9642 44.3221 29.0138 44.2228C29.113 43.7157 29.0634 43.5173 29.113 43.1094C29.1626 42.911 29.2122 42.8613 29.2618 42.7125C29.565 40.5959 29.9177 38.5344 30.2705 36.5666C30.3697 35.9602 30.4745 35.4586 30.5186 34.9074C30.5186 34.8082 30.6178 34.8082 30.6178 34.8082C30.6729 34.6539 30.6178 34.4499 30.6178 34.3011C30.6729 33.8491 30.8217 33.4412 30.8713 33.0443C31.0202 32.2341 31.169 31.2805 31.2682 30.7734C31.3233 30.3214 31.3233 30.167 31.3674 29.8694C31.6265 28.1827 31.7753 25.818 31.6265 24.0046ZM9.36323 48.2797C9.06007 48.1309 9.30811 47.4198 9.20889 47.023C9.30811 47.023 9.30811 47.0726 9.36323 47.1718C9.40733 47.6238 9.56167 47.8828 9.36323 48.2797ZM13.4422 43.159C13.3595 43.2748 13.4422 43.4126 13.3595 43.5338C13.2548 43.8094 13.0949 44.0464 12.9847 44.2724C12.913 44.4378 12.8854 44.548 12.8028 44.6638C12.7421 44.8788 12.6815 45.0993 12.5823 45.3749C12.5492 45.4851 12.6429 45.6505 12.6154 46.0363C12.5492 46.4718 12.3783 47.0175 12.3783 47.5301C12.3287 48.186 12.4776 48.7923 12.6319 49.4483C12.2295 49.3932 12.1744 49.0955 11.976 48.7923C11.976 48.7923 11.7224 48.7372 11.7224 48.6931C11.6232 48.4892 11.6728 48.39 11.6232 48.186C11.5736 48.1364 11.4744 47.6348 11.6232 47.1773C11.6232 47.0285 11.8767 46.4718 11.9815 46.1686C12.0311 45.9646 12.0311 45.8158 12.1303 45.6615C12.1303 45.5623 12.3342 45.4575 12.3783 45.4134C12.4776 45.2095 12.3783 45.0607 12.4776 44.9063C12.5327 44.8126 12.6815 44.7079 12.7311 44.6583C12.8248 44.4543 12.7807 44.3551 12.8799 44.1567C12.8799 44.1016 12.9792 44.1567 12.9792 44.0024C12.9792 43.8535 13.1941 43.0267 13.3374 42.7676C13.8831 41.77 14.5391 40.9542 15.0131 40.1384C15.2722 40.1439 14.6989 40.9211 14.5942 41.1471C14.4343 41.3786 14.1532 41.792 14.0099 42.1227C13.8997 42.3487 13.8501 42.6188 13.7343 42.8393C13.7123 42.9495 13.4697 43.0488 13.4422 43.159ZM22.7024 50.1979C23.0607 49.5916 23.3584 48.2797 23.5623 47.4253C23.6615 47.1277 23.7663 46.8245 23.8104 46.5214C23.9096 46.1686 23.8655 45.8654 23.9647 45.5127C23.9647 45.5127 24.0639 45.5127 24.0639 45.4134C24.0639 45.1103 24.1135 45.0111 24.2128 44.6583C24.2679 44.3551 24.2679 43.9527 24.312 43.6496C24.312 43.6496 24.4608 43.6496 24.4608 43.5007C24.4608 43.1976 24.5159 43.0984 24.56 42.7456C25.216 39.3722 25.8719 35.6957 26.5774 32.1624C26.7814 31.2584 27.0294 30.3545 27.2334 29.3954C27.283 29.0922 27.283 28.7394 27.3326 28.3866C27.3326 28.3866 27.4814 28.3866 27.4814 28.2874C27.4814 27.6866 27.7295 26.7771 27.8342 26.0165V25.7684C28.187 24.4565 28.3854 22.1966 28.4901 20.4823V20.08C28.5893 20.1351 28.6941 20.2343 28.7382 20.3335C28.9421 20.8351 28.8374 21.3863 28.8374 21.8383C28.8925 23.7565 28.6334 25.4653 28.3358 27.2787C27.7846 30.6025 27.0735 33.9759 26.3184 37.3548C26.3184 37.4044 26.3735 37.5036 26.3184 37.6028C26.3184 37.7021 26.2191 37.7021 26.2191 37.7021C26.0703 38.3029 26.0703 38.9588 25.9711 39.6147C25.7231 40.7227 25.4199 41.9298 25.216 43.1425C25.1167 43.5448 25.0671 43.9527 24.9679 44.4047C24.9183 44.5039 24.9679 44.5536 24.9679 44.6528C24.8191 45.1048 24.6151 46.1135 24.4608 46.7694C24.4112 46.9237 24.3616 47.023 24.312 47.1718C24.312 47.271 24.2128 47.271 24.2128 47.271C24.1135 47.6238 24.1631 47.8773 24.0639 48.175C24.0639 48.2301 23.9647 48.175 23.9647 48.2742C23.9647 48.3734 23.7608 48.7262 23.7112 48.9301C23.6615 49.0294 23.6174 49.1782 23.5623 49.2829C23.5127 49.3821 23.3584 49.4869 23.3143 49.5365C23.2592 49.6853 23.2592 49.7845 23.2151 49.9333C23.0662 50.1869 22.7631 50.4405 22.5591 50.7932C22.3056 50.7491 22.5536 50.3467 22.7024 50.1979ZM16.2643 50.5452C16.314 50.3908 16.6171 50.4901 16.7659 50.446C17.2731 50.2916 17.6754 49.994 18.177 49.9389C17.7691 50.3908 17.0636 50.4956 16.2643 50.5452ZM23.7112 52.5626C23.6615 52.6618 23.5623 52.5626 23.5623 52.7169C23.5623 52.8658 23.3584 52.8658 23.3143 52.965C23.1103 53.2681 23.1599 53.3618 22.8072 53.5658C22.708 53.665 22.7576 53.665 22.708 53.7201C22.6087 53.7697 22.5095 53.9241 22.4599 53.9682C22.4103 54.0178 22.2119 53.9186 22.2119 53.9682C22.1568 53.9682 22.2119 54.0674 22.2119 54.0674C22.1568 54.117 21.9638 54.0674 21.9638 54.0674C21.8095 54.2713 20.7512 54.6682 20.4535 54.7233C19.2464 54.8722 18.1385 54.6241 17.1793 54.0674C17.3282 53.8634 17.6865 53.8634 17.9345 53.8194C18.4361 53.7642 19.0424 53.8194 19.7976 53.7201C21.7599 53.4666 23.171 52.5571 24.0805 51.3003C24.1797 51.3003 24.2293 51.3499 24.2293 51.4492C24.0694 51.8019 23.9151 52.2098 23.7112 52.5626ZM30.6123 28.2874C30.4138 29.1914 30.2154 30.7072 30.0115 31.9144C29.9122 32.4656 29.7083 33.0223 29.6091 33.5735C29.4602 34.3287 29.4051 34.9846 29.2563 35.6901C29.1075 36.291 28.9035 37.4981 28.7492 38.2036C28.6996 38.3029 28.7492 38.4076 28.7492 38.4572C28.6996 38.5564 28.6004 38.606 28.6004 38.606C28.5011 39.2124 28.5011 39.8683 28.3523 40.4691C28.3523 40.4691 28.2531 40.5683 28.2531 40.6179C28.1539 41.0203 28.0988 41.577 27.9995 42.1282C27.5476 44.3992 27.1452 46.5655 26.594 48.7813C26.39 49.6412 26.2357 50.3908 25.9876 51.2011C25.8884 51.5043 25.7396 51.8571 25.5908 52.061C25.4916 52.2098 25.4364 52.309 25.3372 52.4579C25.238 52.6122 25.1884 52.8602 25.0892 52.965C24.8852 53.2681 24.4828 53.3618 24.334 53.7201C24.1852 53.7201 24.1301 53.7201 24.086 53.8194C23.9316 53.7642 24.086 53.7201 24.086 53.5658C24.4828 53.1689 24.6372 52.513 24.99 51.9563C25.0892 51.8019 25.238 51.3003 25.3427 50.942C25.3978 50.7436 25.5467 50.5452 25.5963 50.2861C25.8939 49.1782 26.1971 47.8718 26.5003 46.5103C26.5995 45.9095 26.7483 45.3528 26.853 44.7465C26.9523 44.1457 27.1011 43.4897 27.2554 42.8834C27.3546 42.2275 27.3546 41.6266 27.5035 40.9707C27.5035 40.9707 27.6027 40.9707 27.6027 40.8715C27.6523 40.5683 27.6523 40.4691 27.7515 40.1163C27.8066 39.8132 27.8066 39.4108 27.8507 39.1076C27.8507 39.1076 27.9995 39.1076 27.9995 38.9533C27.9995 38.6556 28.0547 38.5564 28.0988 38.1981C28.1539 37.9501 28.198 37.6469 28.2531 37.3438C28.2531 37.3438 28.3523 37.3438 28.3523 37.1894C28.4019 36.8863 28.4019 36.7926 28.5011 36.4343C28.5563 36.1366 28.5563 35.7783 28.6004 35.4256C28.6004 35.4256 28.7492 35.4256 28.7492 35.3263C28.7492 34.8744 28.8484 34.2735 29.0027 33.6672C29.1516 32.9121 29.3004 32.1073 29.5043 31.3025C29.5043 31.2033 29.4547 31.0986 29.5043 31.049C29.8075 29.7922 30.0555 27.7803 30.2595 26.1102C30.3587 24.7542 30.4138 23.3927 30.3587 21.9816C30.7115 22.3344 30.7115 22.8856 30.7611 23.2384C30.965 24.7487 30.7611 26.3086 30.6068 28.0229C30.6123 28.0835 30.6674 28.1827 30.6123 28.2874Z" fill="white"/>
<path d="M63.1786 81.9038V83.0503C63.1786 84.4889 62.0045 85.663 60.5658 85.663C59.1272 85.663 57.9531 84.4889 57.9531 83.0503V81.9038C58.5484 81.7329 59.1107 81.4683 59.6343 81.1155C59.6784 81.0825 59.7225 81.0549 59.7721 81.0329V82.1959C59.7721 82.6369 60.1249 82.9896 60.5658 82.9896C61.0013 82.9896 61.3541 82.6369 61.3541 82.1959V81.0273C61.4037 81.0494 61.4533 81.0769 61.4974 81.11C62.021 81.4683 62.5888 81.7329 63.1786 81.9038Z" fill="#EC7843"/>
<path d="M62.3667 75.4542L60.7186 76.992C60.6965 77.0141 60.68 77.0306 60.6635 77.0527C60.5918 77.1298 60.5091 77.1409 60.4595 77.1354C60.4154 77.1354 60.3327 77.1243 60.2666 77.0416C60.25 77.0251 60.239 77.0086 60.2225 76.992L58.7563 75.4707C58.6626 75.3384 58.6185 75.1841 58.6515 75.0738C58.6681 75.0132 58.7177 74.8368 58.9823 74.7927C59.2413 74.7431 59.6272 74.8534 59.8918 75.2061C60.0516 75.4156 60.2997 75.5368 60.5642 75.5368C60.8288 75.5368 61.0769 75.4101 61.2367 75.2006C61.4958 74.8533 61.8651 74.7541 62.1021 74.7817C62.2785 74.8037 62.3943 74.8809 62.4494 75.0187C62.5155 75.1345 62.4769 75.3109 62.3667 75.4542Z" fill="#FFC600"/>
<path d="M81.7792 66.2221C80.7926 68.1513 77.8877 67.7544 76.8018 65.5055C76.664 65.2354 76.3829 64.7173 76.2782 64.4582C76.2341 64.348 76.1845 64.2377 76.1183 64.1275C76.0522 64.0172 76.0026 63.9125 75.964 63.8078C75.8813 63.6479 75.8207 63.5046 75.7766 63.3613C75.727 63.2235 75.6608 63.0857 75.5671 62.9479C75.5506 62.9038 75.4955 62.8156 75.3962 62.6943C75.297 62.562 75.1758 62.4242 75.0325 62.2534C74.8781 62.088 74.7183 61.9282 74.5419 61.7573C74.4206 61.636 74.2993 61.5368 74.1836 61.4541L76.5317 59.9934C77.5239 59.2383 78.9515 59.5469 79.5413 60.6438L81.7131 64.0062C82.0714 64.6952 82.1375 65.5331 81.7792 66.2221Z" fill="#2B2B5F"/>
<path d="M46.5254 33.9314C46.6412 34.2456 46.6412 33.6558 46.8396 33.733C46.8396 33.5345 46.9939 33.496 47.231 33.5345C47.4294 33.8873 46.9939 34.2401 47.1152 34.7913C47.705 34.8685 47.5066 34.2015 48.0192 34.2015C48.4105 34.3173 48.8019 34.7527 49.0389 35.1827C49.0775 35.2212 49.0389 35.3811 49.0389 35.3811C49.3531 35.6567 49.2373 35.7724 49.0389 36.4008C48.9617 36.7536 48.8846 37.1064 48.7633 37.5804C48.7633 37.5804 48.6476 37.5804 48.6476 37.6576C48.6476 37.8946 48.6476 37.9718 48.5704 38.1702C48.5318 38.286 48.5318 38.3245 48.4546 38.6001C48.4546 38.6387 48.3775 38.6001 48.3775 38.7159C48.3775 38.9915 48.3775 39.0687 48.3003 39.3829C48.3003 39.4214 48.2231 39.4214 48.2231 39.4986C48.1845 39.7742 48.1845 39.8514 48.1074 40.1656C48.1074 40.2042 48.0302 40.2042 48.0302 40.2813C47.9916 40.5569 47.9916 40.6341 47.9144 40.9483C47.9144 40.9869 47.8373 40.9869 47.8373 41.064C47.7987 41.3011 47.7987 41.3782 47.7215 41.6538C47.4845 42.7121 47.3302 43.776 47.1317 44.917C47.016 45.7438 46.8561 46.5265 46.7404 47.4691C46.7404 47.6234 46.779 47.8218 46.7404 47.9817C46.7404 48.0589 46.6632 48.0974 46.6632 48.2573C46.5475 49.5912 46.5089 51.2062 46.9388 52.1488C46.9774 52.226 47.016 52.3032 47.0546 52.3472C47.0932 52.463 47.1703 52.5457 47.253 52.6614C47.3302 52.7772 47.727 53.0528 47.6444 53.4441C47.49 53.5599 47.2916 53.2898 47.253 53.367C47.0546 53.5654 46.7404 53.4056 46.4703 53.0528C46.4317 53.0142 46.4703 52.8985 46.4703 52.8544C46.4317 52.8158 46.2718 52.7772 46.2718 52.7386C46.2333 52.7386 46.2718 52.5843 46.2718 52.5402C46.2333 52.5402 46.0734 52.5016 46.0734 52.463C46.0348 52.4244 46.0734 52.3087 46.0734 52.2646C46.0348 52.226 45.875 52.1874 45.875 52.1488C45.7978 52.0331 45.8364 51.9118 45.7592 51.7575C45.7206 51.7189 45.6821 51.796 45.6821 51.6803C45.6435 51.6031 45.5663 51.4047 45.4836 51.2889C45.3238 51.0905 45.2466 50.5834 45.1694 50.1865C45.1308 49.9881 45.0151 49.4424 45.0923 49.0455C44.8938 49.0841 44.9765 49.4369 44.9765 49.5967C44.9765 50.2637 45.0151 51.2448 45.4891 51.559C45.6435 51.6362 45.4506 52.0275 45.6876 52.0716C45.6876 52.5016 46.2002 52.3858 46.0789 52.9756C45.8805 52.9756 45.7262 52.9756 45.5663 52.9756C45.8805 53.2512 45.2907 53.1741 45.0978 53.0528C44.8608 52.937 44.6678 52.7 44.4694 52.463C44.4694 52.4244 44.3151 52.3858 44.271 52.3472C44.271 52.3087 44.3096 52.1874 44.271 52.1488C44.1938 52.0331 44.0725 51.9945 43.9954 51.8732C43.841 51.6748 43.7198 51.322 43.4827 50.9692C43.4056 50.8535 43.4442 50.7708 43.4056 50.5779C43.367 50.5007 43.367 50.3409 43.2898 50.1865C42.9756 49.1668 43.0914 46.8848 43.2127 45.5894C43.1741 45.4737 43.1355 45.628 43.0142 45.5894C43.0914 45.865 42.8158 45.7879 42.8158 45.9808C42.8158 46.1737 42.5402 46.1792 42.5016 46.3722C42.5016 46.4879 42.3473 46.6092 42.3032 46.6863C42.226 46.8021 42.0661 47.0005 41.9118 47.1549C41.8732 47.232 41.7575 47.3147 41.7134 47.3919C41.7134 47.3919 41.752 47.5462 41.7134 47.5903C41.6362 47.6289 41.4378 47.6675 41.4378 47.8659C41.3992 48.0203 41.1622 48.103 41.0464 48.2573C41.0078 48.2959 41.085 48.4116 41.0464 48.4557C40.8921 48.5715 40.6165 48.7313 40.4566 48.9683C40.3794 49.0455 40.418 49.1282 40.3409 49.2054C40.0653 49.5196 39.5526 49.9495 39.1613 50.3078C39.0455 50.3849 39.0069 50.5062 38.8471 50.5834C38.8085 50.6606 38.7313 50.7377 38.6487 50.7818C38.6487 50.8204 38.4888 50.7432 38.4502 50.7818C38.4502 50.8204 38.4888 50.8976 38.4502 50.8976C38.4502 50.8976 38.2959 50.859 38.2518 50.8976C38.2518 50.8976 38.2904 50.9747 38.2518 50.9747C38.2518 51.0133 38.0974 50.9747 38.0534 50.9747C37.9376 51.1291 36.8738 51.3275 36.521 51.0905C36.4438 51.0519 36.284 50.9747 36.1296 50.8921C35.9698 50.7763 35.8926 50.655 35.7383 50.5007C35.2642 50.5007 34.9501 50.6165 34.4815 50.5007C34.4044 50.4621 34.4044 50.385 34.3658 50.385C33.9744 50.2692 33.8532 50.2692 33.5775 50.1093C33.539 50.0708 33.5775 49.9936 33.4618 49.9936C33.5004 49.9936 32.872 49.4038 32.7948 49.3266C32.7177 49.2109 32.6791 49.0896 32.5964 48.9739C32.5578 48.8967 32.4421 48.8195 32.398 48.7754C32.3594 48.7368 32.4366 48.577 32.398 48.577C32.1995 48.4171 32.0452 47.4746 32.0066 46.9675C31.968 46.3777 32.0452 45.7493 32.0838 45.1981C32.1224 44.9611 32.0838 44.7681 32.0838 44.5311C32.2381 43.2744 32.5523 41.8578 32.8665 40.5624C33.1807 39.3829 33.5335 38.0875 33.9689 36.9851C34.2831 36.1583 34.5201 35.2157 35.2642 35.1C35.4627 35.2984 35.1871 35.3756 35.2642 35.6898C35.38 35.8882 35.5013 35.2212 35.854 35.2984C35.9698 35.574 36.0084 35.9268 36.0525 36.2796C36.4824 36.4339 36.2068 35.8882 36.521 35.8882C36.758 35.7724 36.758 36.0866 36.9124 36.2024C36.9509 36.2024 37.1108 36.1638 37.1108 36.2024C37.188 36.2796 37.2265 36.3181 37.3092 36.4008C37.3864 36.4394 37.5462 36.5993 37.6234 36.6764C37.6234 36.715 37.5848 36.8308 37.6234 36.8749C37.662 36.952 37.7392 36.952 37.7777 37.0733C37.8163 37.3103 37.6234 38.1316 37.5021 38.5285C37.5021 38.5671 37.5407 38.6828 37.5021 38.7269C37.425 38.8041 37.425 38.8427 37.425 39.0025C37.425 39.0411 37.425 39.201 37.425 39.201C37.3092 39.3167 37.188 39.9451 37.1108 40.3034C36.9124 41.3231 36.6808 42.4255 36.521 43.5665C36.4438 44.2335 36.4052 44.6248 36.3226 45.3359C36.284 45.8485 36.2454 46.5155 36.1241 47.1824C36.5155 47.1438 36.6753 46.7525 36.9068 46.5155C37.0612 46.3997 37.1824 46.2785 37.2982 46.1241C37.414 46.0084 37.4966 45.8485 37.6124 45.7328C37.6896 45.617 37.8494 45.4572 37.9652 45.3414C38.0037 45.2642 38.1195 45.1871 38.1636 45.143C38.2022 45.1044 38.125 44.9445 38.1636 44.9445C38.1636 44.9059 38.2408 44.9445 38.2408 44.9445C38.3565 44.7902 38.4392 44.5918 38.5549 44.4319C38.5935 44.3547 38.6707 44.3547 38.7534 44.2335C38.792 44.1949 38.792 44.1177 38.8306 44.035C38.9463 43.9193 39.1447 43.798 39.2605 43.6437C39.2991 43.5665 39.2605 43.4453 39.3377 43.3681C39.3763 43.2909 39.492 43.2909 39.5361 43.2523C39.6519 43.098 39.6904 42.9381 39.8503 42.7838C40.0873 42.431 40.4015 41.957 40.7157 41.4885C40.7929 41.4113 40.8755 41.3727 40.9141 41.29C40.9527 41.2514 40.8755 41.1357 40.9141 41.0916C40.9527 41.0916 40.9913 41.0916 41.0299 41.0916C41.0685 41.0144 41.0685 40.8932 41.107 40.7774C41.1456 40.7388 41.2614 40.7388 41.3055 40.7002C41.3826 40.5845 41.3441 40.5018 41.4212 40.386C41.4598 40.3475 41.5756 40.2703 41.6197 40.1876C41.6582 40.149 41.6582 39.9892 41.6968 39.912C41.7354 39.8734 41.8567 39.8348 41.8953 39.7963C41.9724 39.7191 41.9339 39.5978 42.011 39.5207C42.0496 39.4435 42.1654 39.3608 42.2095 39.3222C42.248 39.245 42.248 39.0852 42.2866 39.008C42.3252 38.9694 42.4851 38.9694 42.4851 38.9309C42.5622 38.8151 42.5236 38.7324 42.6008 38.6167C42.6394 38.5781 42.7551 38.5009 42.7992 38.4182C42.9591 38.2198 42.9977 38.0269 43.1906 37.7899C43.3064 37.6355 43.4276 37.3599 43.582 37.0843C43.6205 37.0071 43.7363 36.9686 43.7804 36.8859C43.819 36.8087 43.819 36.6874 43.8576 36.6103C43.9347 36.5331 44.0119 36.4559 44.056 36.4118C44.1718 36.2575 44.3316 35.9433 44.4474 35.7063C44.5245 35.6291 44.6017 35.5905 44.6458 35.5079C44.6844 35.4693 44.6458 35.3535 44.6458 35.3094C44.7615 35.2323 44.8001 35.111 44.8442 34.9952C44.8828 34.9567 45.0427 34.8795 45.0812 34.7968C45.1584 34.6811 45.1584 34.4826 45.2797 34.3228C45.2797 34.2456 45.434 34.1684 45.4781 34.1243C45.4781 34.0858 45.4395 33.9259 45.4781 33.9259C45.5167 33.8873 45.6765 33.6117 45.7537 33.4133C45.8309 33.3361 46.0293 33.3747 46.0679 33.2148C46.2222 33.2148 46.3821 33.2148 46.5364 33.2148C46.7238 33.4188 46.564 33.6944 46.5254 33.9314ZM34.5422 47.4856C34.5422 47.447 34.6193 46.8958 34.465 47.1714C34.5422 47.5242 34.228 48.2738 34.6634 48.2738C34.6634 48.0754 34.5807 47.7612 34.5422 47.4856Z" fill="white"/>
<path d="M58.0729 57.2642C58.1887 57.187 58.31 57.1484 58.3871 57.0658C58.4257 56.9886 58.6627 56.8673 58.7785 56.7516C58.9769 56.5531 59.2084 56.2389 59.4454 55.9633C59.5226 55.8862 59.5612 55.7649 59.6439 55.6492C59.7982 55.4948 60.0352 55.1806 60.2337 54.8664C60.3108 54.7893 60.388 54.668 60.4707 54.5908C60.5093 54.5137 60.5864 54.431 60.625 54.3924C60.7022 54.2766 60.625 54.1168 60.7022 54.001C60.7408 53.9625 60.9006 53.9239 60.9006 53.8853C60.9778 53.6869 60.9778 53.6097 61.0991 53.4113C61.1377 53.3341 61.2534 53.2955 61.2975 53.2569C61.3747 53.1026 61.3361 52.9813 61.4133 52.8656C61.4133 52.7884 61.4904 52.8656 61.4904 52.7498C61.4904 52.5955 61.766 52.1986 61.8818 51.9671C61.9975 51.7687 62.0802 51.5372 62.196 51.3001C62.196 51.223 62.2346 51.1458 62.2731 51.1017C62.3503 50.9859 62.3503 50.9418 62.3889 50.7875C62.4661 50.4733 62.7803 49.7292 62.8574 49.2166C62.9346 48.7866 63.1716 48.0756 62.659 47.7228C62.422 47.9598 62.4606 48.274 62.3834 48.6268C62.3448 48.6654 62.3834 48.7811 62.3834 48.8252C62.229 48.941 62.1078 49.5693 61.992 49.8835C61.755 50.5891 61.6007 51.3773 61.088 51.7687C61.088 52.0057 61.2865 52.0828 61.088 52.2813C60.9337 52.2427 61.1266 52.1269 61.088 51.9671C60.8124 52.1655 60.7739 52.4797 60.614 52.7498C60.5754 52.827 60.4597 52.9097 60.4597 52.9482C60.4211 52.9868 60.4597 53.1467 60.4597 53.1467C60.4211 53.1467 60.3439 53.1467 60.3439 53.1467C60.3053 53.1853 60.3825 53.301 60.3439 53.301C60.2667 53.3782 60.2282 53.3782 60.1455 53.4994C60.1069 53.6152 59.9911 53.6152 59.947 53.6979C59.9085 53.7365 59.9856 53.8963 59.947 53.8963C59.947 53.9349 59.8699 53.8963 59.8313 53.8963C59.7541 54.0507 59.7541 54.1719 59.6329 54.2877C59.5943 54.3648 59.5171 54.442 59.4344 54.4861C59.3958 54.5633 59.3958 54.6404 59.3573 54.6845C59.2415 54.8389 59.1588 54.883 59.0431 54.9987C59.0045 55.0759 59.0431 55.1972 58.9659 55.2743C58.9273 55.3129 58.806 55.3515 58.7675 55.3901C58.7289 55.4287 58.806 55.5444 58.7675 55.5885C58.1005 56.1397 57.5493 57.2752 56.4083 57.4736C56.0941 57.3965 55.8957 57.2366 55.6256 57.1595C54.92 57.1595 54.6444 57.3138 54.1318 57.0823C53.8562 56.8453 54.1704 56.5697 53.7405 56.4925C53.7405 56.2169 53.8948 56.1783 53.9389 55.9799C53.9775 55.7043 53.3877 56.057 53.4263 55.7814C53.3491 55.3515 53.779 55.3901 54.0161 55.2688C56.0169 53.1853 57.395 50.3962 58.4533 47.3314C57.5107 47.37 56.8052 47.133 56.2925 46.7417C55.4271 46.6645 54.7602 46.3889 54.5232 45.6833C54.2476 45.6447 53.972 45.6062 53.7349 45.5676C53.4979 45.529 53.2223 45.529 53.0294 45.4904C52.9908 45.4518 53.0294 45.3747 52.9522 45.3747C52.9136 45.3747 52.7924 45.2975 52.7538 45.2975C52.5554 45.1817 52.2412 45.0219 52.0482 44.7849C51.9711 44.7077 52.0097 44.5864 51.9711 44.4707C51.9325 44.4321 51.8167 44.3549 51.7726 44.2722C51.6955 44.1951 51.7341 44.0738 51.6569 43.9966C51.6183 43.9195 51.5411 43.8809 51.4585 43.7982C51.4199 43.721 51.3041 43.6439 51.26 43.5998C51.26 43.5612 51.2986 43.4454 51.26 43.4013C50.9072 43.0871 51.1443 42.0674 51.26 41.4776C51.2986 41.4005 51.2214 41.1249 51.26 41.0863C51.26 41.0477 51.3758 41.0863 51.3758 41.0863C51.4144 40.8878 51.4144 40.7335 51.4529 40.5736C51.5687 40.298 51.7671 39.9067 51.9656 39.5925C51.9656 39.5539 52.0042 39.3169 52.0427 39.3169C52.2412 39.1626 52.2798 38.9641 52.4341 38.6885C52.5113 38.6113 52.6711 38.4901 52.7483 38.4129C52.7483 38.3743 52.7097 38.2586 52.7483 38.2145C52.7869 38.1759 52.9026 38.1373 52.9467 38.0987C52.9467 38.0601 52.9081 37.9444 52.9467 37.9003C53.0239 37.8231 53.0625 37.8231 53.1451 37.7019C53.2223 37.6247 53.3436 37.5475 53.4208 37.4263C53.4593 37.3877 53.4208 37.2278 53.4208 37.2278C53.4979 37.1507 53.7349 37.1121 53.7349 36.9136C53.7349 36.7593 54.2476 36.3624 54.4019 36.1254C54.5177 36.0482 54.6389 35.927 54.7161 35.8498C54.7547 35.8112 54.6775 35.6514 54.7161 35.6514C55.0303 35.3758 55.4216 34.9458 55.8185 34.6702C56.0169 34.5159 56.1327 34.356 56.4083 34.1576C56.4855 34.0804 56.6067 33.9206 56.6839 33.882C56.7225 33.8434 56.8823 33.882 56.8823 33.882C57.1194 33.5678 57.5493 33.452 57.9847 33.1764C58.0233 33.1379 58.2604 33.0993 58.2604 33.0607C58.2989 33.0607 58.2604 32.9835 58.2604 32.9835C58.2989 32.9835 58.4588 33.0221 58.4588 32.9835C58.7344 32.6308 59.4785 32.8292 60.0297 32.8678C60.2667 32.9064 60.3825 32.8678 60.5423 32.9835C60.5809 33.0221 60.5809 33.0607 60.6195 33.0607C60.8951 33.2591 61.4463 33.5347 61.4849 34.0804C61.7219 34.2348 62.0747 34.356 62.2676 34.549C62.4661 34.9017 62.5432 35.4143 62.9732 35.5301C62.8574 35.8443 62.5432 35.7285 62.3834 35.8443C62.3062 35.8443 62.3834 35.9215 62.2676 35.9215C62.1519 35.9215 62.0306 36.1199 61.8763 36.2356C61.6007 36.4341 61.3251 36.6656 61.0936 36.9026C60.9778 37.0569 60.818 37.1782 60.7022 37.294C60.625 37.3711 60.6636 37.531 60.625 37.6082C60.5864 37.6467 60.4707 37.6467 60.4707 37.6853C60.3164 37.8397 60.2723 38.0381 60.1565 38.1979C60.1179 38.2751 60.0022 38.2751 59.9581 38.3964C59.9195 38.435 59.9195 38.5121 59.8423 38.5948C59.7651 38.7491 59.5667 38.8318 59.451 38.9862C59.4124 39.0633 59.4124 39.1846 59.3738 39.3004C59.3352 39.3389 59.2966 39.2618 59.258 39.3775C59.258 39.4547 59.1423 39.6145 59.0596 39.6917C58.9439 39.8461 58.8612 40.0445 58.6682 40.3587C58.6297 40.4358 58.5139 40.513 58.4698 40.5571C58.4312 40.6729 58.4312 40.7555 58.3926 40.8713C58.3541 40.9099 58.2383 40.9871 58.1942 41.0697C58.1556 41.1083 58.2328 41.2241 58.1942 41.2682C58.0785 41.3453 58.0785 41.4225 57.9958 41.5438C57.9572 41.6209 57.8359 41.6981 57.7973 41.7422C57.7202 41.8965 57.6816 42.095 57.5989 42.2548C57.4446 42.4918 57.2075 42.7675 57.0863 43.0816C57.5548 43.2801 58.0674 43.2801 58.5801 43.3958C58.5801 43.3958 58.5801 43.473 58.6572 43.473C58.6958 43.473 58.7344 43.473 58.773 43.473C58.8501 43.5116 58.9273 43.5502 59.0486 43.5887C59.1257 43.5887 59.1257 43.6659 59.1643 43.6659C59.5171 43.7817 59.7927 43.7045 60.0297 43.8644C60.1069 43.9029 60.1069 43.9801 60.1455 43.9801C60.3439 44.0959 60.4983 44.1344 60.6967 44.3715C60.9723 44.6471 61.2479 44.9998 61.4849 45.3526C61.6393 45.551 61.9149 45.5896 62.0747 45.744C62.1519 46.0582 62.4661 46.1739 62.4661 46.5322C62.6645 46.6865 62.9787 46.8078 63.1716 47.0448C63.1716 47.0834 63.133 47.1992 63.1716 47.2432C63.2102 47.2432 63.3259 47.2818 63.37 47.3204C63.37 47.359 63.3315 47.5189 63.37 47.5189C63.37 47.5574 63.5244 47.596 63.5685 47.6346C63.6456 47.7504 63.6071 47.8716 63.6456 48.026C63.6842 48.0645 63.8441 48.1803 63.8441 48.2244C63.8827 48.3401 63.8441 48.5 63.8441 48.6158C63.9213 48.8528 63.9213 49.2055 63.8441 49.6741C63.6897 50.8922 63.4913 51.7576 62.9787 52.9372C62.9401 53.0144 62.9401 53.1357 62.8629 53.2514C62.8243 53.29 62.7086 53.3286 62.6645 53.4057C62.5873 53.5601 62.5873 53.7971 62.4661 53.9955C62.4275 54.0727 62.3062 54.1113 62.2676 54.194C62.229 54.2711 62.229 54.3924 62.1905 54.4696C62.1519 54.5467 62.0306 54.6239 61.992 54.668C61.8763 54.8223 61.8377 54.9822 61.6778 55.1806C61.5621 55.2964 61.5235 55.4562 61.4022 55.6492C61.3251 55.7263 61.2479 55.8035 61.2038 55.8476C60.9668 56.1618 60.7298 56.476 60.5368 56.7516C59.9856 57.3799 59.3958 57.9312 58.8501 58.2453C58.8116 58.2453 58.6958 58.2068 58.6517 58.2453C58.6517 58.2453 58.6903 58.3225 58.6517 58.3225C58.2604 58.3997 57.9076 58.2453 57.6706 58.3225C57.7091 58.0855 57.2792 58.1241 57.2792 57.9312C57.2792 57.854 57.0808 57.7713 57.0808 57.7327C57.0808 57.4185 57.5493 57.3799 57.869 57.1429C57.9076 56.7516 58.3375 56.713 58.4588 56.3547C58.6958 56.5531 58.1446 56.8287 58.0674 57.0602C57.9903 57.0602 57.9903 57.1374 57.869 57.1374C57.869 57.2146 57.869 57.2532 57.869 57.3358C57.9572 57.3083 58.0344 57.3083 58.0729 57.2642ZM52.7703 43.4785C52.7703 43.6769 52.8475 43.7541 52.9688 43.7927C52.9688 43.6328 52.8861 43.5171 52.7703 43.4785ZM55.0468 46.0692C55.2838 46.1078 55.6366 46.5377 55.9122 46.2676C55.6752 46.1904 55.2067 45.8763 55.0468 46.0692ZM60.3494 35.464C60.151 35.6183 59.9967 35.8939 59.7596 36.1309C59.6053 36.2908 59.3297 36.4451 59.247 36.5223C59.2084 36.638 59.247 36.7593 59.1698 36.8365C59.0155 36.9963 58.7399 37.1121 58.6572 37.2278C58.6186 37.305 58.6572 37.4263 58.5801 37.5034C58.4643 37.6578 58.1887 37.779 58.1887 37.8948C58.1887 38.0932 57.9131 38.1318 57.8745 38.2861C57.8745 38.4846 57.6761 38.5232 57.5989 38.6003C57.5603 38.6389 57.5989 38.7547 57.5989 38.7988C57.5603 38.8759 57.4446 38.9145 57.4005 38.9972C57.202 39.2342 56.8107 39.6642 56.8107 39.9012C56.8107 39.9783 56.6563 40.0996 56.6122 40.1768C56.4965 40.3366 56.2981 40.5295 56.2981 40.6894C56.2981 40.8878 56.1437 40.965 56.0225 41.0808C55.9839 41.0808 55.9453 41.3178 55.9067 41.3564C55.7909 41.5548 55.7909 41.7091 55.9067 41.869C55.7909 41.869 55.7524 41.7146 55.7083 41.869C55.7083 41.9847 55.5539 42.0288 55.7083 42.0674C55.7468 41.9131 55.824 42.0288 55.7083 42.1446C55.6311 42.2218 55.5925 42.4588 55.5098 42.6186C55.4712 42.7344 55.1956 43.0486 55.5098 43.01C55.5484 43.2084 56.061 43.0871 56.0225 42.8942C56.6508 41.5989 57.3564 40.3421 58.1832 39.2011C59.01 38.0216 59.914 36.9247 61.0109 36.0593C61.088 35.9435 61.2865 35.8222 61.4022 35.7451C61.518 35.6679 61.8322 35.6679 61.7936 35.3537C61.3196 35.3151 61.2038 35.3537 60.8896 35.0781C60.7353 35.2765 60.614 35.3537 60.5368 35.4695C60.5093 35.5025 60.3935 35.4254 60.3494 35.464ZM58.7785 34.8742C58.7399 34.8742 58.6241 34.9899 58.5801 35.0726C58.4643 35.1498 58.2659 35.3482 58.3816 35.464C58.773 34.9127 59.484 34.7198 59.9526 34.2844C59.5612 34.2072 59.0872 34.6757 58.9714 34.8742C58.9383 34.8742 58.8171 34.8356 58.7785 34.8742Z" fill="white"/>
<path d="M73.12 53.1414C72.9657 53.1414 72.7672 53.1028 72.646 53.0256C72.5688 53.0256 72.5688 52.8713 72.5302 52.8272C72.4916 52.8272 72.3759 52.8658 72.3318 52.8272C72.3318 52.75 72.3318 52.6287 72.2932 52.5902C72.2546 52.5902 72.0948 52.6287 72.0562 52.5902C72.0562 52.5902 72.0948 52.513 72.0562 52.513C71.9404 52.4358 71.7806 52.4744 71.6648 52.3972C71.5877 52.3586 71.6262 52.1216 71.5105 52.083C71.4333 52.0059 71.3121 52.0445 71.2349 51.9673C71.1191 51.8901 71.0364 51.5759 70.8435 51.5373C70.7664 51.9673 71.2349 52.0886 71.3947 52.4027C71.4719 52.5185 71.3947 52.6398 71.4719 52.7169C71.6703 52.9539 71.9404 53.1469 72.2601 53.2296C72.0231 53.5823 71.6318 53.0752 71.4333 52.9539C71.2349 52.7169 71.0034 52.4799 70.8049 52.3256C70.6065 52.0886 70.375 51.8956 70.138 51.6972C70.0222 51.4602 69.7466 51.2232 69.5868 51.0688C69.5096 50.9145 69.5482 50.7546 69.4269 50.6389C69.3497 50.5231 69.2285 50.4019 69.1513 50.2861C69.0356 50.0491 68.9143 49.7735 68.7985 49.542C68.4072 48.7593 68.1316 48.1254 67.856 47.0671L67.8174 46.6371C67.7016 46.5599 67.8174 46.3615 67.7402 46.2072H67.6631C67.5859 45.893 67.6245 45.4245 67.5859 45.0662C67.5859 45.0276 67.5087 45.0276 67.5087 44.9504C67.5087 44.4378 67.5087 43.7708 67.5087 43.0653C67.5087 42.5968 67.4701 42.2385 67.5087 41.8085C67.5859 41.103 67.7072 39.8462 67.9001 38.9423C67.9001 38.6281 67.9772 38.2367 68.0158 37.8839C68.0158 37.8839 68.093 37.8454 68.1316 37.7682C68.2473 36.9028 68.5615 35.6075 68.7985 34.6649C68.7985 34.5877 68.7985 34.2735 68.8371 34.235H68.9529C68.9915 33.9208 69.03 33.4908 69.1072 33.1766C69.1072 33.1766 69.223 33.1766 69.223 33.0995C69.223 32.7853 69.3387 32.7467 69.3387 32.3553C69.0245 32.0412 68.4733 32.3553 68.082 32.3553C67.6079 32.3553 67.2166 32.4325 66.9024 32.2782C66.9024 32.0412 66.8252 32.0026 66.8638 31.8041C66.8638 31.4514 67.0622 31.6057 67.0622 31.0986C67.0237 30.9442 66.9851 30.9442 66.9851 30.7458C66.9465 30.4702 66.7481 30.9442 66.5165 30.7458C66.4008 30.156 65.6897 30.0403 65.9653 28.9764C65.9653 28.9379 66.1197 28.8607 66.0811 28.778C66.3953 28.4252 66.9079 28.3866 67.2993 28.2268C67.3378 28.2268 67.3378 28.1496 67.415 28.1496C67.7292 28.111 68.082 28.0339 68.556 27.9126C68.5946 27.874 68.6332 27.7969 68.6332 27.7969C69.1458 27.6811 69.7356 27.6811 70.2041 27.5984C70.2041 27.5984 70.2427 27.5213 70.3199 27.5213C70.397 27.5213 70.5183 27.5213 70.5955 27.5213C70.8711 27.4441 71.1853 27.2457 71.4995 27.4055C71.8522 27.2071 71.7751 26.8543 71.8522 26.5401C71.8908 26.3803 71.9294 26.2259 71.968 26.0275C71.968 25.9889 72.0452 25.9889 72.0837 25.9117C72.1223 25.6747 72.1223 25.6747 72.1995 25.3991C72.1995 25.3991 72.1995 25.2448 72.2381 25.2007C72.4365 25.0849 72.5523 24.2581 72.7066 23.8668C72.7838 23.514 72.8609 23.2384 72.9436 22.8856C73.0208 22.6872 73.0208 22.5328 73.0594 22.373C73.098 22.3344 73.1751 22.3344 73.1751 22.2572C73.2137 21.9816 73.2523 21.943 73.2909 21.7446C73.3295 21.706 73.2909 21.5462 73.2909 21.5462C73.4893 21.3918 73.3681 21.3092 73.4452 20.995C73.4452 20.995 73.5224 20.995 73.5224 20.9178C73.561 20.7635 73.561 20.6036 73.561 20.4879C73.5996 20.4493 73.6767 20.4493 73.6767 20.3721C73.6767 20.2178 73.6767 20.1737 73.7539 20.1351C74.0295 19.8981 74.1067 20.2122 74.4594 20.1351C74.4209 20.4493 74.6965 20.4879 74.6138 20.7635C74.928 20.802 74.928 20.4107 75.165 20.6863C75.2807 20.8847 75.5178 21.0005 75.7162 21.1989C75.8705 21.3532 76.0304 21.5903 76.069 21.8273C75.8705 21.8273 75.8319 21.7115 75.6776 21.7501C75.7162 21.9045 75.8375 21.9485 75.9146 22.0643C76.1131 22.1801 76.306 22.1029 76.4273 22.1801C76.5044 22.2186 76.8572 22.6541 76.8572 22.8856C76.7029 23.084 76.543 22.7698 76.4658 23.084C76.5044 23.2384 76.4658 23.3211 76.3887 23.3211C76.1902 24.6164 75.7989 25.7188 75.4461 26.8984C75.6445 26.8212 76.0359 27.0141 76.0359 26.7826C76.1902 26.2314 76.3887 25.6031 76.5485 24.8975C76.6643 24.6219 76.6257 24.1534 76.747 23.8778C76.747 23.8392 76.8241 23.8778 76.8241 23.7234C76.8241 23.5691 76.8241 23.1722 77.1769 23.2549C77.2926 24.4345 76.9399 25.6912 76.747 26.7881C76.984 26.9039 77.2155 26.7881 77.4911 26.7881C77.8053 26.7881 78.1195 26.8267 78.4722 26.7881C78.6707 26.7881 78.7864 26.6724 78.9463 26.6724C79.6132 26.6338 80.2416 26.6724 80.9472 26.6724C81.1456 26.6338 81.2999 26.5952 81.4598 26.5566C82.3252 26.4795 83.5048 26.5566 84.7229 26.5566C85.7812 26.5566 86.8837 26.5181 87.8648 26.5566C88.0191 26.5566 88.1404 26.6338 88.2947 26.6724C89.1216 26.711 89.9814 26.711 90.8468 26.9094C91.1224 26.948 91.3595 27.0252 91.6351 27.1078C91.9107 27.1464 92.302 27.2677 92.3406 27.3063C92.3406 27.3063 92.539 27.5433 92.5776 27.6205C92.6162 27.6591 92.539 27.7748 92.5776 27.8189H92.6934C92.6934 27.8575 92.6162 28.0559 92.6548 28.0559H92.732C92.8091 28.3701 92.6548 28.7229 92.6934 28.9985C92.6934 29.3513 92.539 29.5111 92.2634 29.5111C92.3792 29.8253 92.7761 29.8639 92.8146 30.1395C92.8918 30.4537 92.6162 30.3765 92.6162 30.5694C92.969 30.8836 92.732 31.7876 92.4178 32.0632C92.1422 31.9474 92.1422 32.2175 91.9052 32.179C91.5138 32.2561 91.7453 31.7049 91.5524 31.5506C90.0586 31.1978 88.4105 31.3962 86.7624 31.3136C86.134 31.275 85.66 31.1537 85.0316 31.1978C83.7748 31.3136 81.8125 31.1978 80.3574 31.3136C80.1589 31.3136 80.0432 31.3907 79.8888 31.3907C79.2219 31.4293 78.6321 31.3521 78.0037 31.3907C77.4525 31.4679 76.5485 31.5451 75.7658 31.6277C75.4516 31.9033 75.6115 32.3333 75.4902 32.7302C75.4902 32.7302 75.413 32.7302 75.413 32.8073C75.2973 33.7499 75.0217 34.8523 74.8232 35.9492C74.7461 36.3792 74.7075 36.6933 74.6689 37.1288C74.5917 37.4816 74.5531 37.8343 74.5146 38.2698C74.5146 38.2312 74.3988 38.2698 74.3988 38.347C74.3602 38.5454 74.4374 38.8155 74.3602 39.0911C74.3216 39.1683 74.2445 39.1683 74.2445 39.3281C74.2059 39.4824 74.2445 39.7195 74.2059 39.9565C74.1673 40.2707 74.0901 40.662 74.0075 41.2132C73.9689 41.566 73.9303 42.2716 73.8531 42.9054C73.7759 43.0598 73.6988 43.2196 73.6988 43.4181C73.6216 44.2835 73.5444 45.1874 73.5444 46.0528C73.5444 46.2072 73.583 46.4442 73.6216 46.604C73.6216 47.3096 73.583 48.0592 73.6988 48.8034C73.7374 49.1947 73.7759 49.6302 73.8972 50.0215C74.0956 50.8098 74.1728 51.6311 74.8784 51.9452C74.8784 52.0996 74.8398 52.298 74.8398 52.4579C74.9941 52.7335 75.2697 51.8295 75.5067 52.2208C75.5453 52.772 74.9941 53.202 75.5453 53.4004C75.9753 53.5162 75.7823 52.772 76.2123 52.8878C76.4107 53.0862 76.5265 53.2406 76.4879 53.6319C76.4879 53.9461 76.3335 54.1831 76.1351 54.3375C75.6225 54.3375 75.391 54.139 75.154 53.8249C74.8784 53.8249 74.724 53.9792 74.4484 54.0619C74.1728 53.7477 73.7429 53.6319 73.5059 53.2792C73.3074 53.3563 73.1531 53.5933 72.8003 53.5162C72.4861 53.3618 73.0759 53.3618 73.2302 53.4004C73.1972 53.2571 73.12 53.2185 73.12 53.1414ZM69.8183 32.9506C69.5041 33.9704 69.2285 35.0728 69.1127 36.0154C69.1127 36.0925 69.0356 36.0925 69.0356 36.0925C68.9198 36.4453 68.9198 36.8367 68.8371 37.1508C68.6387 38.369 68.5615 39.4273 68.4458 40.5297C68.33 42.1007 68.1316 43.6716 68.2914 45.1654C68.2914 45.2426 68.2528 45.3638 68.2914 45.4796C68.2914 45.5568 68.3686 45.5567 68.3686 45.5567C68.3686 45.7111 68.33 45.8709 68.33 45.9867C68.33 46.0639 68.4458 46.0639 68.4458 46.1024C68.4844 46.4552 68.4844 46.808 68.5615 47.1608H68.6387C68.6773 47.1608 68.6387 47.3206 68.6387 47.3592C68.6773 47.5576 68.793 47.7891 68.793 47.8718C68.793 48.1088 68.9915 48.186 68.9474 48.3018C68.9474 48.4175 69.0245 48.3403 69.0631 48.4175C69.0631 48.4175 69.0245 48.8089 69.2616 48.6159C69.0245 48.5002 69.1458 48.1033 69.1072 47.8718C68.9915 47.2434 68.9529 46.5379 68.9088 45.9095C68.9088 45.7111 68.8702 45.5182 68.8702 45.3583C68.7544 43.0377 68.9474 40.3699 69.3001 37.8564C69.5757 35.8941 69.9671 34.009 70.3199 32.3168C70.5183 32.1624 70.3199 31.8868 70.1214 32.1183C69.8844 32.0797 70.0057 32.2341 69.923 32.4325C69.8569 32.5979 69.8183 32.8294 69.8183 32.9506ZM71.3506 41.5936C71.312 41.7093 71.3892 41.9849 71.4278 41.792C71.505 41.6322 71.3892 41.3566 71.3506 41.5936ZM71.5436 40.0998C71.5436 40.2156 71.4664 40.9266 71.5821 40.6124C71.5876 40.4912 71.6648 39.7856 71.5436 40.0998ZM71.742 39.7856C71.8192 38.9974 72.0176 37.9005 72.1719 37.465C72.2105 37.3493 72.1719 37.228 72.1719 37.1508C72.3263 36.5611 72.4861 36.0925 72.6019 35.5799C72.6405 35.2271 72.679 34.6759 72.8389 34.5602C72.8389 34.5216 72.8775 34.3231 72.8775 34.3231C72.9161 34.009 72.9546 33.9318 72.9932 33.7719C73.109 33.2979 73.1917 32.9451 73.2302 32.5152C73.346 32.201 73.6216 31.7711 73.3074 31.6884C72.7948 33.9649 72.1664 36.4398 71.8136 38.7218C71.742 39.0801 71.5436 39.51 71.742 39.7856ZM72.5302 48.4285C72.4916 48.3514 72.4145 48.3514 72.4145 48.3128C72.4145 48.0372 72.4145 47.6458 72.3759 47.2545C72.3373 46.9789 72.2601 46.6261 72.216 46.3505C72.1774 45.3693 72.2546 44.3441 72.216 43.4842C72.2546 43.3685 72.1774 43.2086 72.1389 43.3685C72.0231 45.4134 72.0231 47.3757 72.5302 48.8309C72.646 49.1727 72.5302 48.4671 72.5302 48.4285ZM72.2546 41.4337C72.216 41.6707 72.2932 41.8251 72.4089 41.8637C72.4475 41.6707 72.4089 41.4723 72.2546 41.4337ZM72.2932 40.9266C72.2546 41.125 72.3318 41.2794 72.4475 41.3566C72.409 41.1581 72.5688 40.8053 72.2932 40.9266ZM72.2932 40.6069C72.5302 40.7668 72.6074 40.2541 72.4089 40.2927C72.3704 40.3699 72.3704 40.4471 72.2932 40.4085C72.2932 40.4912 72.2932 40.5683 72.2932 40.6069ZM72.5688 39.6643C72.4916 39.8187 72.3704 39.8628 72.4145 40.0943C72.6846 40.2541 72.7231 39.6258 72.5688 39.6643ZM72.646 39.4714C72.6846 39.3557 72.7617 39.3943 72.7617 39.3557C72.8003 39.2785 72.646 39.2013 72.6846 39.0415C72.7231 38.9643 72.8003 38.9257 72.8003 38.9257C72.8389 38.6501 72.8775 38.2202 72.9161 37.8674C73.0759 37.1619 73.3074 36.0209 73.5059 35.3925C73.6216 34.8799 73.7429 34.3728 73.7815 33.9373C73.7815 33.8215 73.8972 33.783 73.8972 33.783C73.9744 33.4302 73.9358 33.116 74.1342 32.9562C74.3327 32.8018 74.0956 31.9364 74.2886 31.8978C74.2886 31.8207 74.2886 31.6994 74.2114 31.6994C73.4673 34.1357 72.9932 36.9248 72.442 39.5541C72.5302 39.5486 72.646 39.5486 72.646 39.4714ZM74.8067 26.937C75.1595 25.8787 75.5122 24.3022 75.7879 23.4037C75.8264 23.288 75.7879 23.0895 75.8264 22.9738C75.8264 22.858 76.1406 22.5439 75.865 22.4226C75.5894 23.8778 75.1209 25.2503 74.8453 26.4299C74.8067 26.5456 74.5697 26.8212 74.8067 26.937ZM75.3193 29.2576C75.3579 29.1418 75.3965 29.0205 75.4737 28.9434C75.1595 29.0205 75.2752 29.0205 74.961 28.9434C74.9225 28.982 74.6854 29.3347 74.9225 29.3733C75.0437 29.0205 75.0823 29.2576 75.3193 29.2576ZM90.5602 28.8221C90.1688 28.7449 89.772 28.7835 89.3806 28.7449C87.6498 28.5851 85.8033 28.5465 83.841 28.5465C82.7386 28.5465 81.5645 28.3922 80.5778 28.5465C80.4621 28.5465 80.4235 28.6237 80.2637 28.6237C79.8723 28.6623 79.5195 28.6237 79.1612 28.6237C78.7699 28.6623 78.4557 28.7008 78.0588 28.7394C77.3919 28.778 76.2894 28.5796 76.2509 29.1694C76.2123 29.2851 76.4493 29.2465 76.6036 29.2465C77.1548 29.2851 77.5848 29.1694 78.0588 29.1694C79.7455 29.0536 81.8291 29.015 83.2843 28.9323C84.6568 28.8166 86.3876 28.9323 87.4459 29.0095C87.9585 29.0481 88.5042 29.0095 89.0554 29.0095C89.2538 29.0095 89.3696 29.1253 89.568 29.1638C90.3122 29.241 90.8248 29.1638 91.2988 29.241C91.3374 29.1253 91.2988 29.0426 91.2602 29.004C91.1114 28.9434 90.7145 28.8662 90.5602 28.8221ZM91.4642 28.8221C91.6185 28.8221 91.5414 29.1363 91.7398 29.0205C91.817 28.8221 91.5028 28.5906 91.4642 28.8221Z" fill="white"/>
<path d="M73.9859 67.8373C73.9914 67.7767 73.9914 67.7161 73.9804 67.6554C73.9859 67.5838 73.9804 67.5176 73.9749 67.457C73.9694 67.3964 73.9639 67.3302 73.9639 67.2586C73.9528 67.1538 73.9528 67.0546 73.9694 66.9609C73.9804 66.8562 73.9804 66.757 73.9694 66.6688C73.9639 66.5861 73.9363 66.4262 73.8977 66.1837C73.8647 65.9357 73.8095 65.7372 73.7379 65.5664C73.7103 65.4892 73.6772 65.4175 73.6331 65.3404C73.589 65.2687 73.556 65.1971 73.5284 65.1254C73.4733 65.0152 73.4347 64.9214 73.4071 64.8277C73.3741 64.734 73.33 64.6403 73.2638 64.5577C73.2583 64.5301 73.2197 64.4695 73.1536 64.3868C73.0874 64.2986 73.0048 64.1994 72.9056 64.0946C72.8063 63.9844 72.6906 63.8742 72.5803 63.7639C72.4701 63.6537 72.3488 63.56 72.2386 63.4938C72.1835 63.4552 72.0732 63.4001 71.9134 63.3064C71.748 63.2182 71.6433 63.1576 71.6047 63.1355C71.3456 62.9702 71.0976 62.8489 70.8551 62.7497C70.607 62.6615 70.3204 62.6064 69.9897 62.5898C69.9731 62.6009 69.9125 62.6009 69.8078 62.6009C69.703 62.5954 69.5928 62.6009 69.477 62.6009C69.3558 62.6064 69.24 62.6064 69.1408 62.6064C69.0361 62.6009 68.9754 62.6009 68.9699 62.5954C68.8817 62.6119 68.7991 62.6229 68.7329 62.6284C68.6557 62.6395 68.5731 62.6615 68.4794 62.6891C68.3801 62.7221 68.2919 62.7552 68.2037 62.7883C68.1156 62.8214 68.0274 62.8599 67.9337 62.893C67.8896 62.893 67.8455 62.8985 67.8069 62.904C67.7628 62.904 67.7242 62.9151 67.6856 62.9206C67.6195 62.9316 67.5588 62.9536 67.5147 62.9647C67.4706 62.9812 67.41 63.0032 67.3384 63.0308C67.2667 63.0584 67.1785 63.1025 67.0738 63.1631C66.969 63.2237 66.8312 63.3009 66.6604 63.3891C66.5501 63.4442 66.4399 63.5048 66.3462 63.5545C66.2415 63.6096 66.1367 63.6757 66.032 63.7529C65.8942 63.8686 65.7895 63.9679 65.7068 64.034C65.6241 64.1057 65.5414 64.1773 65.4698 64.238C65.3871 64.2986 65.3485 64.3372 65.3375 64.3482C65.3044 64.3813 65.2162 64.486 65.0784 64.6569C64.9461 64.8388 64.8414 64.9711 64.7807 65.0758C64.7532 65.1199 64.7036 65.2136 64.6154 65.3569C64.5382 65.5112 64.4831 65.5994 64.461 65.6325C64.4004 65.7262 64.3398 65.8144 64.2736 65.8861C64.2075 65.9687 64.1469 66.0514 64.0917 66.1396C63.998 66.2884 63.9043 66.4759 63.8216 66.7074C63.7279 66.9444 63.6453 67.1649 63.5736 67.3853C63.5019 67.6058 63.4248 67.8759 63.3476 68.2122C63.309 68.3279 63.287 68.4602 63.276 68.587C63.2704 68.7193 63.2594 68.8405 63.2539 68.9673C63.2594 69.0555 63.2594 69.1492 63.2649 69.2319C63.2704 69.3146 63.276 69.4083 63.287 69.502C63.2815 69.535 63.276 69.5957 63.2815 69.6729C63.276 69.7555 63.2815 69.8382 63.287 69.9264C63.2925 70.0091 63.2925 70.0973 63.287 70.1745C63.2815 70.2571 63.276 70.3012 63.2815 70.3233C63.2925 70.4225 63.3311 70.5603 63.3862 70.7312C63.4468 70.9076 63.5185 71.0839 63.6012 71.2769C63.6894 71.4753 63.7831 71.6517 63.8713 71.8336C63.965 72.01 64.0587 72.1478 64.1579 72.2525C64.3122 72.4068 64.45 72.5446 64.5878 72.688C64.7091 72.8037 64.8304 72.9084 64.9461 73.0132C65.0619 73.1179 65.1556 73.1896 65.2162 73.2281C65.2493 73.2502 65.3264 73.2943 65.4422 73.3604C65.569 73.4321 65.6902 73.5037 65.817 73.5809C65.9493 73.6526 66.0761 73.7187 66.1974 73.7794C66.3241 73.8455 66.4068 73.8786 66.4454 73.8841C66.506 73.9061 66.6163 73.9392 66.7761 73.9778C66.936 74.0164 67.0572 74.0384 67.1454 74.0384H67.3163C67.3714 74.0329 67.4321 74.0384 67.5037 74.0439C67.5809 74.0605 67.6636 74.077 67.7462 74.088C67.8234 74.1046 67.9061 74.1101 67.9998 74.1101C68.1762 74.099 68.3085 74.0825 68.4242 74.0715C68.5345 74.0605 68.6502 74.0494 68.7605 74.0274C68.8762 74.0109 68.9589 73.9998 69.0085 73.9943C69.0636 73.9778 69.1518 73.9392 69.2621 73.8841C69.3778 73.829 69.5046 73.7738 69.6424 73.7022C69.7802 73.636 69.907 73.5754 70.0393 73.5203C70.166 73.4652 70.2653 73.41 70.3314 73.3715C70.4251 73.3163 70.4968 73.2722 70.5409 73.2447C70.596 73.2116 70.6566 73.1785 70.7173 73.1344C70.7834 73.0903 70.8551 73.0352 70.9377 72.9691C71.0149 72.9029 71.1252 72.8092 71.2519 72.699C71.3787 72.5943 71.5055 72.495 71.6267 72.4068C71.7535 72.3131 71.8693 72.2139 71.974 72.0982C72.0236 72.043 72.1008 71.9383 72.211 71.8005C72.3158 71.6572 72.4315 71.5029 72.5528 71.332L73.0048 70.6926C73.1756 70.4335 73.3134 70.1469 73.4347 69.8492C73.556 69.5461 73.6607 69.2594 73.7324 69.0004C73.8095 68.7468 73.8647 68.5208 73.8977 68.3444C73.9308 68.157 73.9473 68.0688 73.9418 68.0468C73.9804 67.9641 73.9859 67.9035 73.9859 67.8373ZM67.5368 70.7036C66.7596 70.7036 66.1202 70.0697 66.1202 69.2925C66.1202 68.5098 66.7596 67.8759 67.5368 67.8759C68.3195 67.8759 68.9534 68.5098 68.9534 69.2925C68.9534 70.0697 68.3195 70.7036 67.5368 70.7036Z" fill="#2B2B5F"/>
<path d="M33.9906 72.5274C33.9685 72.9243 33.9575 73.1723 33.9575 73.2826V73.9716C33.9244 74.0487 33.8913 74.2251 33.8583 74.5283C33.8142 74.837 33.8031 75.0244 33.8031 75.1016C33.8031 75.3496 33.8142 75.5701 33.8583 75.7906C33.8913 76.0055 33.9134 76.2205 33.9134 76.4355C33.9134 76.7552 33.8362 77.0914 33.6929 77.4442C33.5441 77.797 33.3842 78.0671 33.2134 78.249C33.1362 78.3151 32.9708 78.3923 32.7283 78.4639C32.4802 78.5301 31.9952 78.5742 31.2896 78.5742C31.1794 78.5742 30.9258 78.5631 30.5179 78.5411C30.1101 78.519 29.8289 78.519 29.6967 78.519C28.6604 78.519 27.4367 78.508 26.0421 78.486C24.6366 78.4639 23.4074 78.4639 22.3766 78.4639H21.8419C21.5884 78.4639 21.3238 78.4529 21.0482 78.4308C20.7616 78.4198 20.486 78.4088 20.2434 78.4088H19.7198C19.5655 78.4088 19.3009 78.4198 18.915 78.4308C18.5182 78.4529 18.1103 78.4639 17.6858 78.486C17.2559 78.508 16.8535 78.519 16.4511 78.5411C16.0653 78.5631 15.7897 78.5742 15.6574 78.5742C15.3708 78.5742 15.0841 78.4529 14.7975 78.2214C14.5219 77.9954 14.34 77.7694 14.2739 77.5544C14.2298 77.4111 14.2188 77.1465 14.2188 76.7607V76.0055C14.2188 75.4047 14.2739 74.9197 14.4006 74.5669C14.5329 74.2141 14.6928 73.8338 14.9078 73.4369C14.9519 73.3763 15.018 73.233 15.1227 73.0235C15.233 72.803 15.3542 72.5715 15.4645 72.318C15.5968 72.0699 15.718 71.8384 15.8173 71.629C15.9275 71.414 16.0157 71.2541 16.0873 71.1494C16.2251 70.9289 16.3519 70.7305 16.4842 70.532C16.6 70.3281 16.7212 70.1297 16.826 69.9092C16.9638 69.7383 17.085 69.5344 17.1677 69.2973C17.2614 69.0714 17.3606 68.8454 17.4654 68.6304C17.5315 68.454 17.6252 68.2997 17.7299 68.1453C17.8402 68.0075 17.9339 67.8477 18.0386 67.6713C18.193 67.4894 18.3142 67.3185 18.4465 67.1587C18.5678 67.0043 18.6835 66.839 18.7883 66.6516C18.8985 66.4807 18.9867 66.2878 19.0528 66.0948C19.119 65.8964 19.2182 65.72 19.3229 65.5326C19.3836 65.4609 19.4387 65.3948 19.4828 65.3176C19.5159 65.2405 19.571 65.1743 19.6481 65.1027C19.8521 64.783 20.0726 64.3916 20.3151 63.9286C20.5411 63.4656 20.745 63.0687 20.9269 62.7435C21.0372 62.5726 21.1529 62.4017 21.2687 62.2419C21.401 62.0765 21.5002 61.9222 21.5553 61.7348C21.7097 61.4867 21.8144 61.2111 21.875 60.908C21.9522 60.6103 21.9853 60.4174 21.9853 60.3513C21.9853 60.0316 21.8364 59.8441 21.5333 59.7945C21.2356 59.7394 21.0317 59.7063 20.9214 59.7063C20.8112 59.7063 20.5576 59.7394 20.1497 59.7945C19.7418 59.8441 19.4607 59.8662 19.3284 59.8662H18.5733C18.43 59.8662 18.1433 59.8993 17.7244 59.9544C17.2945 59.9985 17.0023 60.0316 16.8645 60.0316C16.4401 60.0316 16.0873 59.9323 15.8007 59.7449C15.5141 59.5465 15.3212 59.337 15.2109 59.1166C15.1007 58.9126 15.04 58.6921 15.029 58.4496C15.007 58.2236 14.996 57.6944 14.996 56.8842C14.996 56.7408 14.9739 56.4432 14.9188 56.0022C14.8637 55.5502 14.8306 55.2361 14.8306 55.0707C14.8306 54.9935 14.8526 54.7896 14.8857 54.4533C14.9298 54.1116 14.9629 53.8856 14.996 53.7754V53.1966C14.996 52.9816 15.029 52.8218 15.1007 52.7115C15.1338 52.6454 15.2881 52.4469 15.5527 52.1217C15.8173 51.8131 16.4015 51.6477 17.2945 51.6477H18.2536L18.3583 51.7028H18.9536C19.0583 51.7028 19.2733 51.6918 19.5985 51.6697C19.9072 51.6587 20.2655 51.6367 20.6293 51.6146C21.0041 51.6036 21.3624 51.5816 21.6711 51.565C21.9908 51.554 22.2278 51.543 22.3711 51.543C22.7239 51.543 23.1373 51.554 23.6003 51.565C24.0578 51.5816 24.4547 51.5926 24.7799 51.5926C24.8901 51.5926 25.05 51.6036 25.2539 51.6146C25.4689 51.6367 25.7169 51.6477 25.987 51.6477C26.2406 51.6477 26.4941 51.6587 26.7091 51.6697C26.9131 51.6918 27.0729 51.7028 27.1831 51.7028C27.4698 51.7028 27.7619 51.6918 28.0596 51.6697C28.3572 51.6587 28.6604 51.6477 28.9415 51.6477C29.5092 51.6036 30.0274 51.5926 30.4628 51.5926H31.9346C32.155 51.5926 32.3535 51.6146 32.574 51.6697C32.7889 51.7249 33.0315 51.9233 33.3236 52.232C33.5 52.491 33.6047 52.6895 33.6157 52.8438C33.6378 53.0037 33.6268 53.2517 33.5937 53.5769V54.8006C33.5937 55.5117 33.4945 56.0739 33.3236 56.4597C33.1417 56.8456 32.844 57.4023 32.4141 58.1134C31.918 58.8244 31.4936 59.5189 31.1353 60.1969C30.8101 60.8032 30.4518 61.4261 30.0715 62.0655C29.6746 62.6994 29.388 63.1183 29.2116 63.2947C28.9635 63.6144 28.7596 63.8735 28.5997 64.0664C28.4344 64.2593 28.3021 64.4577 28.1698 64.6562C28.0485 64.8491 27.9107 65.0641 27.7729 65.3011C27.6296 65.5271 27.4532 65.8633 27.2383 66.2767C26.9131 66.8941 26.654 67.4288 26.4445 67.8918C26.224 68.3548 26.1248 68.7902 26.1248 69.2202C26.1248 69.7163 26.2626 70.0139 26.5493 70.1021C26.8304 70.1848 27.1005 70.2289 27.343 70.2289C27.4532 70.2289 27.6627 70.2179 27.9879 70.2068C28.3076 70.1848 28.5281 70.1738 28.6383 70.1738C28.699 70.1738 28.8533 70.1627 29.0848 70.1572C29.3163 70.1352 29.4596 70.1242 29.5368 70.1242H29.9116C29.9447 70.1242 30.066 70.1352 30.2534 70.1572C30.4518 70.1627 30.6723 70.1738 30.9203 70.1738H31.9952C32.381 70.1738 32.7889 70.3281 33.2244 70.6037C33.6543 70.8903 33.9024 71.2817 33.9685 71.7778C34.0016 71.8825 34.0126 72.1416 33.9906 72.5274Z" fill="#2B2B5F"/>
<path d="M57.2138 66.4586C57.0815 65.9239 56.9437 65.4389 56.7948 65.0144C56.6405 64.5845 56.4972 64.2262 56.3594 63.9506C56.2161 63.6695 56.1389 63.5207 56.1058 63.4931C56.0617 63.3939 56.0011 63.3002 55.935 63.212C55.8743 63.1183 55.8027 63.0411 55.731 62.9695C55.6538 62.8647 55.5767 62.7765 55.4995 62.6994C55.4223 62.6222 55.3452 62.5285 55.268 62.4293C55.1357 62.297 55.031 62.1592 54.9483 62.0104C54.8546 61.856 54.7499 61.7182 54.6286 61.597C54.5239 61.4922 54.3089 61.2883 53.9782 60.9851C53.6475 60.6764 53.3333 60.4394 53.0301 60.2686C52.8978 60.1914 52.76 60.1252 52.6112 60.0536C52.4568 59.9929 52.319 59.9213 52.1978 59.8496C51.9938 59.7504 51.8174 59.6512 51.6631 59.541C51.5088 59.4417 51.3324 59.348 51.1284 59.2819C51.0843 59.2488 50.9521 59.2047 50.7536 59.1441C50.5497 59.0835 50.3016 59.0228 50.0095 58.9512C49.7173 58.8905 49.4142 58.8354 49.089 58.7803C48.7748 58.7252 48.4771 58.7031 48.2015 58.7031C48.0692 58.7031 47.8212 58.7197 47.4353 58.7417C47.0605 58.7638 46.818 58.7803 46.7188 58.7803C46.1069 58.7803 45.5392 58.8244 45.0266 58.9126C44.5084 59.0063 43.9572 59.1882 43.3674 59.4638C43.3454 59.4969 43.2462 59.5465 43.0698 59.6402C42.8879 59.7229 42.7005 59.8331 42.4965 59.9378C42.2981 60.0536 42.1052 60.1583 41.9288 60.2465C41.7469 60.3402 41.6477 60.3843 41.6201 60.3843C41.4878 60.4835 41.3666 60.5662 41.2618 60.6434C41.1461 60.7205 41.0248 60.8253 40.8925 60.9521C40.7713 61.0843 40.65 61.2056 40.5342 61.3324C40.4185 61.4536 40.3027 61.5859 40.176 61.7127C40.0988 61.7568 40.0326 61.8064 39.972 61.845C39.9003 61.8836 39.8507 61.9277 39.7956 61.9773C39.6964 62.0545 39.6137 62.1316 39.5531 62.1923C39.4925 62.2529 39.4153 62.3356 39.3216 62.4348C39.2279 62.534 39.1287 62.6773 39.0129 62.8537C38.8972 63.0301 38.7428 63.2616 38.5389 63.5372C38.4176 63.7136 38.2963 63.89 38.1806 64.0498C38.0648 64.2207 37.9601 64.4026 37.8609 64.601C37.7562 64.8822 37.679 65.1137 37.6073 65.29C37.5467 65.4664 37.4861 65.6318 37.4254 65.7806C37.3593 65.935 37.3262 66.0232 37.3262 66.0507C37.3042 66.1279 37.2711 66.3484 37.2325 66.7177C37.1939 67.087 37.1719 67.3681 37.1719 67.572C37.1719 67.6492 37.1884 67.8256 37.2105 68.1067C37.2435 68.3823 37.249 68.5587 37.249 68.6359C37.249 68.8123 37.2435 68.9886 37.2105 69.1485C37.1884 69.3194 37.1719 69.4847 37.1719 69.6611C37.1719 69.9422 37.227 70.2895 37.3262 70.6919C37.4254 71.0998 37.5302 71.4801 37.6459 71.8494C37.7617 72.2187 37.9381 72.6707 38.164 73.2054C38.2357 73.4038 38.3404 73.6023 38.4617 73.7952C38.594 73.9771 38.7153 74.17 38.842 74.3464C38.9412 74.4676 39.0405 74.5889 39.1507 74.7047C39.2499 74.8204 39.3657 74.9417 39.4869 75.0629C39.52 75.1181 39.5696 75.2008 39.6633 75.3055C39.746 75.4212 39.8452 75.537 39.9444 75.6472C40.0437 75.763 40.1374 75.8787 40.2145 75.989C40.2917 76.1047 40.3358 76.1709 40.3689 76.1929C40.4901 76.3252 40.7051 76.474 40.9972 76.667C41.2894 76.8599 41.6091 77.0473 41.9619 77.2402C42.3201 77.4331 42.6729 77.6095 43.0312 77.7749C43.384 77.9347 43.6982 78.045 43.9793 78.0946C44.4092 78.1718 44.8116 78.2489 45.1974 78.3151C45.5282 78.3702 45.8479 78.4143 46.1676 78.4529C46.4818 78.4915 46.7188 78.508 46.8731 78.508C46.9503 78.508 47.1267 78.5025 47.4023 78.4915C47.6834 78.4749 47.9755 78.4694 48.2842 78.4529C48.5819 78.4363 48.874 78.4198 49.1551 78.3922C49.4307 78.3702 49.6126 78.3481 49.6843 78.3151C49.8166 78.293 50.037 78.2379 50.3512 78.1442C50.6709 78.0615 50.9024 77.9733 51.0568 77.9017C51.1615 77.8465 51.2552 77.8025 51.3489 77.7473C51.4316 77.6922 51.5418 77.6481 51.6686 77.593C51.823 77.5489 51.9773 77.4938 52.1261 77.4387C52.2694 77.3946 52.4238 77.3229 52.5781 77.2457C52.8592 77.0693 53.0852 76.926 53.2671 76.8103C53.4435 76.6945 53.6199 76.5788 53.7963 76.452C53.9727 76.3197 54.105 76.237 54.1766 76.1819C54.2538 76.1047 54.3585 75.9835 54.4963 75.8016C54.6341 75.6252 54.7884 75.4323 54.9538 75.2118C55.1137 74.9968 55.2735 74.7984 55.4278 74.6055C55.5822 74.4125 55.6979 74.2527 55.7696 74.1314C55.8688 73.9771 55.946 73.8558 55.9901 73.7731C56.0452 73.6794 56.1058 73.5802 56.1665 73.4644C56.2271 73.3487 56.2877 73.2109 56.3594 73.0455C56.42 72.8857 56.5027 72.6652 56.6019 72.3786C56.7011 72.125 56.8059 71.8825 56.9216 71.6344C57.0374 71.3974 57.1201 71.1549 57.1752 70.8903C57.1972 70.769 57.2193 70.5541 57.2523 70.2619C57.2744 69.9698 57.2964 69.6501 57.3185 69.2973L57.3957 68.002C57.3957 67.5059 57.335 66.9878 57.2138 66.4586ZM51.2387 69.1375C51.1946 69.5068 51.1395 69.7548 51.0843 69.8816C51.0623 69.9808 51.0237 70.08 50.9686 70.1627C50.9245 70.2564 50.8694 70.3446 50.8142 70.4549C50.7702 70.5761 50.7205 70.6974 50.682 70.8131C50.6434 70.9289 50.5827 71.0502 50.5056 71.1714C50.4615 71.2706 50.3237 71.425 50.1087 71.6289C49.8937 71.8274 49.6347 72.0423 49.326 72.2573C49.0173 72.4723 48.6756 72.6542 48.2952 72.8085C47.9149 72.9628 47.5291 73.04 47.1487 73.04C47.0936 73.04 46.8566 73.0069 46.4211 72.9408C45.9912 72.8802 45.6329 72.7865 45.3518 72.6597C44.6958 72.3069 44.2494 71.9652 44.0234 71.6344C43.7919 71.3037 43.61 71.0006 43.4887 70.7249C43.3564 70.4659 43.2517 70.1737 43.158 69.843C43.0753 69.5123 43.0257 69.0493 43.0257 68.4374C43.0257 67.8587 43.147 67.3571 43.406 66.9547C43.6596 66.5578 43.9021 66.2106 44.1226 65.9295C44.3045 65.731 44.4588 65.5767 44.5801 65.4775C44.7124 65.3727 44.977 65.2239 45.3849 65.02C45.6384 64.9207 45.8589 64.8436 46.0353 64.7885C46.2117 64.7444 46.3936 64.6892 46.5865 64.6341C46.7794 64.59 46.9393 64.5569 47.066 64.5569C47.3196 64.59 47.5235 64.6121 47.6779 64.6341C47.8322 64.6672 48.0472 64.6892 48.3283 64.7113C48.5267 64.7664 48.7748 64.8491 49.0559 64.9814C49.3315 65.1137 49.5024 65.1963 49.5465 65.2515C49.5795 65.2735 49.6457 65.3341 49.7614 65.4444C49.8772 65.5436 49.9985 65.6594 50.1197 65.7806C50.252 65.9129 50.3788 66.0342 50.5001 66.1499C50.6323 66.2657 50.7205 66.3539 50.7702 66.431C50.9024 66.6295 51.0237 66.9492 51.1395 67.3791C51.2552 67.8091 51.3103 68.1453 51.3103 68.3658C51.3158 68.5091 51.2883 68.7682 51.2387 69.1375Z" fill="#2B2B5F"/>
<path d="M68.8204 79.5064C68.5283 79.1812 68.0267 79.1536 67.6959 79.4403C66.9022 80.1568 65.8825 80.5482 64.8241 80.5482C63.9532 80.5482 63.1099 80.2891 62.3933 79.7986C61.3019 79.0489 59.8302 79.0489 58.7333 79.7986C58.0167 80.2891 57.1789 80.5482 56.308 80.5482C55.2497 80.5482 54.2244 80.1568 53.4362 79.4403C53.111 79.1536 52.6094 79.1812 52.3117 79.5064C52.0196 79.8316 52.0472 80.3332 52.3724 80.6254C53.4583 81.601 54.8583 82.1412 56.308 82.1412C56.33 82.1412 56.3466 82.1357 56.3686 82.1357V83.0452C56.3686 85.3602 58.2482 87.2509 60.5688 87.2509C62.8894 87.2509 64.769 85.3657 64.769 83.0452V82.1357C64.7911 82.1357 64.8076 82.1412 64.8297 82.1412C66.2793 82.1412 67.6739 81.601 68.7653 80.6254C69.085 80.3332 69.1125 79.8316 68.8204 79.5064ZM63.176 83.0452C63.176 84.4838 62.002 85.6579 60.5633 85.6579C59.1247 85.6579 57.9506 84.4838 57.9506 83.0452V81.9042C58.5459 81.7278 59.1081 81.4632 59.6318 81.1104C59.6759 81.0829 59.72 81.0553 59.7696 81.0277V82.1963C59.7696 82.6318 60.1223 82.99 60.5633 82.99C60.9988 82.99 61.3571 82.6318 61.3571 82.1963V81.0277C61.4011 81.0553 61.4508 81.0829 61.4949 81.1104C62.013 81.4632 62.5807 81.7333 63.176 81.9042V83.0452Z" fill="#2B2B5F"/>
<path d="M47.2213 70.3723C48.0037 70.3723 48.6379 69.738 48.6379 68.9557C48.6379 68.1733 48.0037 67.5391 47.2213 67.5391C46.4389 67.5391 45.8047 68.1733 45.8047 68.9557C45.8047 69.738 46.4389 70.3723 47.2213 70.3723Z" fill="#2B2B5F"/>
<path d="M64.0007 74.3466C63.7086 73.6686 63.0747 73.2056 62.303 73.1174C61.6967 73.0458 61.0848 73.2111 60.5722 73.5584C60.01 73.1781 59.332 73.0182 58.6871 73.1395C57.8878 73.2883 57.2705 73.8395 57.05 74.6112C56.8626 75.2451 57.0224 75.9617 57.4579 76.5294C57.4744 76.5514 57.4965 76.5735 57.5185 76.5955L59.0013 78.1334C59.3595 78.5523 59.8777 78.8004 60.4344 78.8114H60.4675C61.0076 78.8114 61.5203 78.5854 61.8841 78.194L63.5487 76.6396L63.6149 76.5735C63.9676 76.1601 64.155 75.642 64.155 75.1348C64.1605 74.8647 64.1109 74.5947 64.0007 74.3466ZM62.3691 75.4601L60.721 76.9979C60.699 77.0145 60.6824 77.0365 60.6659 77.053C60.6494 77.0696 60.6328 77.0861 60.6163 77.0971H60.6108C60.5722 77.1247 60.5391 77.1357 60.506 77.1357C60.4895 77.1412 60.473 77.1412 60.462 77.1412C60.4179 77.1412 60.3352 77.1247 60.269 77.0475C60.2525 77.031 60.2415 77.0089 60.2249 76.9924L58.7587 75.4766C58.665 75.3388 58.6209 75.19 58.654 75.0742C58.6595 75.0632 58.665 75.0411 58.676 75.0191C58.676 75.0081 58.6871 74.9915 58.6981 74.975C58.7146 74.9474 58.7367 74.9144 58.7697 74.8923C58.7863 74.8703 58.8028 74.8592 58.8249 74.8482C58.8414 74.8372 58.869 74.8262 58.8965 74.8151C58.9241 74.8041 58.9572 74.7931 58.9902 74.7876C59.2272 74.7435 59.558 74.8262 59.8115 75.1018C59.8446 75.1293 59.8722 75.1624 59.8997 75.201L59.9659 75.2782C60.01 75.3278 60.0596 75.3664 60.1147 75.4049C60.2525 75.4931 60.4068 75.5427 60.5722 75.5427C60.8368 75.5427 61.0848 75.416 61.2447 75.2065C61.2722 75.1679 61.3053 75.1293 61.3384 75.0963C61.399 75.0301 61.4707 74.975 61.5368 74.9309C61.6415 74.8648 61.7463 74.8207 61.84 74.7986C61.9392 74.7766 62.0329 74.771 62.1101 74.7821C62.1542 74.7876 62.1927 74.7986 62.2313 74.8096C62.3085 74.8317 62.3636 74.8703 62.4077 74.9254C62.4298 74.9529 62.4518 74.9805 62.4628 75.0136C62.518 75.1348 62.4794 75.3167 62.3691 75.4601Z" fill="#2B2B5F"/>
</g>
<defs>
<clipPath id="clip0_1345_562">
<rect width="100" height="100" fill="white"/>
</clipPath>
</defs>
</svg>
