<svg width="37" height="16" viewBox="0 0 37 16" fill="none" xmlns="http://www.w3.org/2000/svg">
<path d="M1.86503 0.686533L1.87417 0.713964C2.04787 1.31736 1.58162 1.9116 0.9508 1.9116H0.941655C0.420544 1.9116 0 1.49106 0 0.969947V0.942522C0 0.421411 0.411404 0.0100036 0.932515 0.000861321C1.35306 -0.0174233 1.74618 0.256845 1.86503 0.686533ZM2.20329 4.39831V12.0138C2.20329 12.5349 1.78275 12.9555 1.26163 12.9555H0.95994C0.43883 12.9555 0.0182857 12.5349 0.0182857 12.0138V4.39831C0.0182857 3.8772 0.43883 3.45665 0.95994 3.45665H1.26163C1.78275 3.45665 2.20329 3.8772 2.20329 4.39831Z" fill="white"/>
<path d="M3.94922 12.4152V3.98604C3.94922 3.68434 4.18692 3.4375 4.49776 3.4375H5.21085C5.46684 3.4375 5.69539 3.62034 5.74111 3.87633C5.81424 4.27859 6.28964 4.44315 6.60962 4.20545C7.27701 3.69348 7.99925 3.44664 8.80377 3.44664C10.8699 3.44664 11.9122 4.61686 11.9122 6.95728V12.4061C11.9122 12.7078 11.6745 12.9546 11.3636 12.9546H10.2483C9.94656 12.9546 9.69972 12.7169 9.69972 12.4061V6.95728C9.69972 5.90592 9.21518 5.38481 8.25524 5.38481C7.61527 5.38481 6.97532 5.64079 6.35364 6.14362C6.21651 6.25332 6.14337 6.3996 6.14337 6.56416V12.4152C6.14337 12.7169 5.90567 12.9638 5.59483 12.9638H4.47947C4.18692 12.9546 3.94922 12.7169 3.94922 12.4152Z" fill="white"/>
<path d="M14.2615 1.90234H14.5357C14.8831 1.90234 15.194 2.14004 15.258 2.49659L15.3311 2.86228C15.4043 3.20055 15.7059 3.45653 16.0534 3.45653H16.9036C17.315 3.45653 17.6533 3.79479 17.6533 4.2062V4.60846C17.6533 5.01986 17.315 5.35813 16.9036 5.35813H16.4465C16.0351 5.35813 15.6968 5.69639 15.6968 6.1078V9.72814C15.6968 10.6149 16.0442 11.0629 16.7482 11.0629H16.8944C17.3059 11.0629 17.6441 11.4012 17.6441 11.8126V12.2148C17.6441 12.6262 17.3059 12.9645 16.8944 12.9645H15.6877C14.2249 12.9645 13.4844 12.1051 13.4844 10.3955V2.66115C13.5118 2.24061 13.8501 1.90234 14.2615 1.90234Z" fill="white"/>
<path d="M23.9621 12.937C24.1449 12.9278 24.3004 12.8364 24.4192 12.7084L25.4523 11.4468C25.6351 11.2182 25.4523 10.8799 25.1597 10.9257C24.5564 11.0079 23.9621 11.0445 23.3587 11.0445C22.0605 11.0445 21.2286 10.7062 20.8629 10.0114C20.6252 9.56346 20.9726 9.03321 21.4663 9.03321H25.8271C26.1928 9.03321 26.4854 8.74065 26.5037 8.39325C26.5128 8.2104 26.5128 8.04584 26.5128 7.86299C26.5128 4.91917 25.178 3.44727 22.5268 3.44727C19.7932 3.44727 18.4219 5.00146 18.4219 8.10069C18.4219 11.3462 20.0035 12.9644 23.1759 12.9644C23.4501 12.9553 23.7061 12.9461 23.9621 12.937ZM22.5359 5.33058C23.761 5.33058 24.3644 5.98882 24.3644 7.30531V7.37845H21.448C20.9909 7.37845 20.6526 6.92133 20.808 6.49165C21.0823 5.71455 21.6491 5.33058 22.5359 5.33058Z" fill="white"/>
<path d="M32.5113 8.46568L35.2083 12.086C35.446 12.4151 35.2174 12.8814 34.806 12.8814H34.7329C33.7364 12.8814 32.7947 12.406 32.2005 11.6106L31.3503 10.477C31.14 10.2119 30.7469 10.2119 30.5549 10.477L28.7538 12.8814L27.2271 14.8013C26.6328 15.5235 25.7643 15.9624 24.8318 15.9989C24.4113 16.0081 24.1644 15.5418 24.4204 15.2035L29.4487 8.48396C29.5675 8.30112 29.5675 8.04513 29.4395 7.88057L26.7243 4.26022C26.4866 3.9311 26.7151 3.46484 27.1265 3.46484H27.9127C28.4613 3.46484 28.9641 3.72083 29.2932 4.15052" fill="#3387FE"/>
<path d="M36.3482 1.35352H36.1105C35.2419 1.35352 34.4283 1.76492 33.9072 2.45973L31.3565 5.86066C30.9908 6.27207 30.5977 5.90638 30.5977 5.90638L32.4993 8.46622C32.3621 8.28337 32.3713 8.03653 32.4993 7.87197L36.7504 2.15804C36.9881 1.82891 36.7596 1.35352 36.3482 1.35352Z" fill="#1DC3FC"/>
</svg>
