<svg width="11" height="14" viewBox="0 0 11 14" fill="none" xmlns="http://www.w3.org/2000/svg">
<path d="M5.5 0C2.46728 0 0 2.27451 0 5.07025C0 8.53985 4.92196 13.6334 5.13152 13.8486C5.32835 14.0507 5.67201 14.0503 5.86848 13.8486C6.07804 13.6334 11 8.53985 11 5.07025C10.9999 2.27451 8.53269 0 5.5 0ZM5.5 7.62123C3.97416 7.62123 2.73284 6.47687 2.73284 5.07025C2.73284 3.66363 3.97419 2.51929 5.5 2.51929C7.02581 2.51929 8.26713 3.66366 8.26713 5.07028C8.26713 6.47689 7.02581 7.62123 5.5 7.62123Z" fill="#FBC400"/>
</svg>
