<svg width="39" height="40" viewBox="0 0 39 40" fill="none" xmlns="http://www.w3.org/2000/svg">
<g clip-path="url(#clip0_1345_512)">
<path d="M37.9789 12.3435C38.3155 12.3435 38.5882 12.0706 38.5882 11.7342V9.36322C38.5882 7.80921 37.3239 6.54492 35.77 6.54492H2.81822C1.26429 6.54485 0 7.80921 0 9.36314V30.7167C0 32.2708 1.26429 33.5351 2.81822 33.5351H35.7698C37.3238 33.5351 38.588 32.2707 38.588 30.7167V13.7109C38.588 13.3744 38.3153 13.1017 37.9788 13.1017C37.6422 13.1017 37.3695 13.3745 37.3695 13.7109V30.7166C37.3695 31.5988 36.6518 32.3165 35.7698 32.3165H2.81822C1.93619 32.3165 1.21854 31.5988 1.21854 30.7166V9.36314C1.21854 8.48104 1.93619 7.76339 2.81822 7.76339H35.7698C36.6518 7.76339 37.3695 8.48104 37.3695 9.36314V11.7341C37.3696 12.0706 37.6423 12.3435 37.9789 12.3435Z" fill="white"/>
<path d="M23.1698 10.584C21.7833 10.584 20.4248 11.0158 19.2935 11.8059C18.1622 11.0158 16.8038 10.584 15.4173 10.584C11.6849 10.584 8.64844 13.6206 8.64844 17.353C8.64844 21.0852 11.685 24.1217 15.4173 24.1217C16.804 24.1217 18.1624 23.6899 19.2935 22.9002C20.4247 23.69 21.7831 24.1217 23.1698 24.1217C26.9022 24.1217 29.9386 21.0852 29.9386 17.353C29.9386 13.6206 26.9021 10.584 23.1698 10.584ZM15.4173 22.9031C12.3568 22.9031 9.86698 20.4134 9.86698 17.353C9.86698 14.2925 12.3568 11.8025 15.4173 11.8025C16.4455 11.8025 17.4553 12.0913 18.325 12.6257C18.3204 12.6304 18.3162 12.6353 18.3116 12.6401C18.2434 12.7103 18.1768 12.7817 18.112 12.8544C18.1068 12.8602 18.1016 12.8657 18.0964 12.8715C18.0314 12.9449 17.9685 13.0198 17.9069 13.0958C17.8966 13.1083 17.8864 13.1209 17.8764 13.1335C17.8169 13.2079 17.759 13.2834 17.7029 13.3601C17.6934 13.3732 17.6839 13.3864 17.6745 13.3996C17.6176 13.4785 17.5621 13.5581 17.5087 13.6392C17.5045 13.6456 17.5004 13.6522 17.4962 13.6588C17.4438 13.7389 17.3933 13.8203 17.3446 13.9025C17.3394 13.9112 17.3341 13.9198 17.329 13.9284C17.2804 14.0111 17.234 14.095 17.189 14.1796C17.181 14.1945 17.1731 14.2095 17.1652 14.2245C17.1216 14.308 17.0798 14.3923 17.0399 14.4775C17.0331 14.492 17.0265 14.5066 17.0199 14.5212C16.9793 14.6093 16.9401 14.6982 16.9034 14.7881C16.9011 14.7936 16.8991 14.7991 16.8969 14.8046C16.861 14.8931 16.8272 14.9824 16.7951 15.0724C16.7909 15.084 16.7866 15.0953 16.7826 15.1069C16.7511 15.1966 16.7219 15.2871 16.6941 15.3781C16.689 15.395 16.6839 15.4119 16.6788 15.4289C16.6521 15.5194 16.6271 15.6104 16.6042 15.702C16.6004 15.7173 16.5969 15.7325 16.5932 15.7477C16.5699 15.8434 16.5482 15.9394 16.5292 16.0361C16.5286 16.0395 16.528 16.043 16.5274 16.0464C16.5087 16.1418 16.4925 16.2381 16.478 16.3346C16.4759 16.3485 16.4736 16.3623 16.4716 16.3762C16.4579 16.4709 16.4465 16.5661 16.4368 16.6617C16.435 16.6796 16.4333 16.6976 16.4316 16.7157C16.4226 16.8113 16.4155 16.9071 16.4106 17.0034C16.4098 17.0186 16.4094 17.0336 16.4087 17.0487C16.4043 17.1499 16.4013 17.2512 16.4013 17.3531C16.4013 17.4549 16.4043 17.5563 16.4087 17.6575C16.4094 17.6726 16.4099 17.6877 16.4106 17.7028C16.4155 17.7991 16.4227 17.895 16.4316 17.9907C16.4333 18.0085 16.435 18.0264 16.4368 18.0442C16.4465 18.14 16.4579 18.2353 16.4716 18.3301C16.4735 18.3438 16.4758 18.3573 16.4779 18.3709C16.4925 18.4678 16.5088 18.5643 16.5276 18.6601C16.5283 18.6633 16.5287 18.6665 16.5293 18.6696C16.5484 18.7666 16.5702 18.8629 16.5935 18.9587C16.5971 18.9736 16.6006 18.9886 16.6043 19.0034C16.6273 19.0954 16.6523 19.1867 16.6791 19.2775C16.684 19.2941 16.689 19.3106 16.6941 19.3271C16.7219 19.4186 16.7513 19.5095 16.7829 19.5995C16.7867 19.6105 16.7908 19.6214 16.7947 19.6323C16.8271 19.7231 16.8612 19.8133 16.8975 19.9025C16.8995 19.9074 16.9013 19.9125 16.9034 19.9173C16.9403 20.0076 16.9796 20.0969 17.0205 20.1855C17.027 20.1995 17.0333 20.2137 17.0399 20.2277C17.08 20.3133 17.1221 20.3979 17.1658 20.4818C17.1734 20.4965 17.1812 20.511 17.189 20.5256C17.2341 20.6105 17.2807 20.6947 17.3294 20.7777C17.3344 20.7861 17.3396 20.7945 17.3446 20.8028C17.3936 20.8854 17.4444 20.9671 17.497 21.0476C17.501 21.0539 17.505 21.0602 17.509 21.0665C17.5624 21.1476 17.6179 21.2274 17.6749 21.3064C17.6844 21.3196 17.6937 21.3327 17.7033 21.3458C17.7594 21.4224 17.8171 21.4979 17.8766 21.5722C17.8868 21.5849 17.8972 21.5976 17.9075 21.6104C17.9689 21.6861 18.0317 21.7608 18.0965 21.8342C18.1019 21.8403 18.1076 21.8463 18.113 21.8523C18.1775 21.9246 18.2436 21.9955 18.3114 22.0653C18.3162 22.0703 18.3206 22.0755 18.3253 22.0803C17.4555 22.6144 16.4456 22.9031 15.4173 22.9031ZM20.0888 20.3494C20.0547 20.4024 20.0206 20.4552 19.9847 20.507C19.9625 20.5391 19.9392 20.5704 19.9164 20.602C19.882 20.6496 19.8472 20.697 19.8111 20.7436C19.7861 20.7759 19.7603 20.8077 19.7346 20.8395C19.6984 20.8841 19.6618 20.9283 19.6243 20.9718C19.5971 21.0033 19.5694 21.0345 19.5415 21.0655C19.503 21.1082 19.4637 21.1502 19.4237 21.1918C19.3949 21.2218 19.3662 21.2516 19.3366 21.281C19.3227 21.295 19.308 21.3083 19.2937 21.3221C19.2795 21.3083 19.2648 21.2949 19.2508 21.2809C19.2214 21.2516 19.1926 21.2217 19.1639 21.1919C19.1239 21.1503 19.0846 21.1082 19.046 21.0655C19.0181 21.0346 18.9905 21.0034 18.9634 20.972C18.9258 20.9283 18.889 20.884 18.8528 20.8393C18.8271 20.8076 18.8014 20.7759 18.7765 20.7436C18.7404 20.6969 18.7056 20.6495 18.671 20.6018C18.6482 20.5703 18.625 20.5391 18.6029 20.5071C18.5668 20.455 18.5324 20.402 18.4984 20.3488C18.4799 20.3201 18.4607 20.2918 18.4428 20.2628C18.3999 20.1932 18.359 20.1224 18.3193 20.0512C18.3118 20.0377 18.3035 20.0247 18.2961 20.011C18.2496 19.9259 18.2055 19.8396 18.1637 19.7521C18.1511 19.7259 18.1398 19.699 18.1277 19.6726C18.0993 19.6108 18.0713 19.549 18.0451 19.4862C18.0308 19.452 18.0179 19.4171 18.0043 19.3826C17.9824 19.3267 17.9607 19.2708 17.9406 19.2141C17.9272 19.1764 17.9148 19.1384 17.9022 19.1004C17.8841 19.0457 17.8666 18.9909 17.8501 18.9357C17.8385 18.8963 17.8274 18.8567 17.8167 18.8171C17.8017 18.7621 17.7875 18.7069 17.7742 18.6514C17.7646 18.6112 17.7553 18.571 17.7465 18.5305C17.7344 18.4743 17.7234 18.4177 17.713 18.3609C17.7057 18.3209 17.6983 18.2809 17.6918 18.2406C17.6823 18.1816 17.6744 18.122 17.6668 18.0625C17.6619 18.0241 17.6564 17.9861 17.6524 17.9475C17.6454 17.8817 17.6405 17.8153 17.6357 17.749C17.6335 17.7165 17.6301 17.6841 17.6284 17.6514C17.6231 17.5522 17.62 17.4526 17.62 17.3527C17.62 17.2527 17.6231 17.1531 17.6283 17.054C17.6301 17.021 17.6334 16.9885 17.6357 16.9558C17.6405 16.8897 17.6453 16.8235 17.6523 16.7579C17.6564 16.7192 17.6619 16.6809 17.6668 16.6424C17.6745 16.583 17.6823 16.5237 17.6918 16.4648C17.6983 16.4243 17.7057 16.3841 17.7132 16.3439C17.7236 16.2874 17.7344 16.231 17.7466 16.175C17.7553 16.1343 17.7647 16.0937 17.7745 16.0533C17.7877 15.9982 17.8017 15.9434 17.8165 15.8888C17.8274 15.8487 17.8385 15.8086 17.8504 15.7688C17.8666 15.7142 17.884 15.6599 17.9018 15.6059C17.9146 15.5674 17.9271 15.5288 17.9407 15.4906C17.9605 15.4348 17.982 15.3796 18.0035 15.3245C18.0174 15.289 18.0306 15.2534 18.0453 15.2183C18.0709 15.1568 18.0984 15.0963 18.1261 15.0359C18.1388 15.0081 18.1505 14.9801 18.1638 14.9526C18.2056 14.8655 18.2495 14.7794 18.2959 14.6946C18.3044 14.679 18.3139 14.664 18.3225 14.6486C18.3612 14.5794 18.4008 14.5106 18.4425 14.443C18.461 14.413 18.4807 14.3841 18.4997 14.3545C18.5334 14.3022 18.5673 14.2499 18.6027 14.1987C18.6251 14.1663 18.6487 14.1345 18.6719 14.1025C18.7061 14.0553 18.7405 14.0083 18.7763 13.9621C18.8014 13.9296 18.8274 13.8976 18.8533 13.8657C18.8892 13.8212 18.9259 13.7772 18.9634 13.7337C18.9906 13.7022 19.0183 13.671 19.0461 13.64C19.0847 13.5973 19.1241 13.5551 19.1641 13.5135C19.1927 13.4837 19.2214 13.454 19.2508 13.4248C19.2648 13.4107 19.2796 13.3974 19.2939 13.3834C19.3082 13.3973 19.323 13.4108 19.3371 13.4249C19.3663 13.4541 19.395 13.4837 19.4235 13.5134C19.4637 13.5552 19.5032 13.5975 19.5418 13.6404C19.5696 13.6712 19.5971 13.7022 19.6241 13.7334C19.6618 13.7772 19.6986 13.8215 19.7349 13.8663C19.7606 13.898 19.7862 13.9296 19.8111 13.9617C19.8474 14.0085 19.8822 14.0561 19.9168 14.1038C19.9395 14.1352 19.9627 14.1664 19.9847 14.1981C20.0208 14.2502 20.0552 14.3032 20.0893 14.3564C20.1078 14.3852 20.1271 14.4135 20.1449 14.4426C20.1877 14.5124 20.2286 14.5831 20.2684 14.6544C20.2758 14.6678 20.2841 14.6808 20.2914 14.6943C20.3379 14.7795 20.382 14.8658 20.4239 14.9532C20.4365 14.9796 20.4479 15.0068 20.4602 15.0335C20.4885 15.095 20.5165 15.1565 20.5425 15.219C20.5568 15.2534 20.5698 15.2882 20.5833 15.3229C20.6053 15.3789 20.627 15.4347 20.6471 15.4913C20.6605 15.529 20.6729 15.5671 20.6855 15.605C20.7035 15.6596 20.7211 15.7143 20.7375 15.7695C20.7491 15.809 20.7602 15.8486 20.771 15.8884C20.7859 15.9434 20.8001 15.9986 20.8134 16.054C20.823 16.0941 20.8324 16.1343 20.841 16.1747C20.8532 16.231 20.8642 16.2879 20.8746 16.3447C20.8819 16.3846 20.8893 16.4244 20.8957 16.4646C20.9052 16.5239 20.9131 16.5834 20.9208 16.643C20.9257 16.6813 20.9311 16.7194 20.9352 16.7578C20.9422 16.8236 20.9471 16.8897 20.9519 16.956C20.9541 16.9887 20.9575 17.0213 20.9593 17.0541C20.9645 17.1532 20.9676 17.2528 20.9676 17.3527C20.9676 17.4527 20.9645 17.5522 20.9593 17.6513C20.9575 17.6841 20.9542 17.7167 20.9519 17.7494C20.9471 17.8156 20.9423 17.8818 20.9353 17.9475C20.9312 17.986 20.9257 18.0241 20.9208 18.0624C20.9132 18.122 20.9053 18.1816 20.8958 18.2407C20.8894 18.281 20.8819 18.3208 20.8746 18.3608C20.8642 18.4175 20.8532 18.4742 20.8411 18.5306C20.8324 18.5711 20.8231 18.6113 20.8134 18.6515C20.8001 18.7069 20.786 18.762 20.771 18.8169C20.7602 18.8567 20.7491 18.8963 20.7375 18.9358C20.7211 18.991 20.7035 19.0456 20.6855 19.1002C20.6729 19.1382 20.6605 19.1764 20.6471 19.2141C20.6271 19.2706 20.6053 19.3265 20.5834 19.3822C20.5698 19.4169 20.5567 19.452 20.5425 19.4863C20.5166 19.5487 20.4886 19.6102 20.4603 19.6715C20.448 19.6984 20.4366 19.7256 20.4239 19.7522C20.382 19.8396 20.338 19.9258 20.2915 20.0109C20.2838 20.025 20.2752 20.0386 20.2674 20.0526C20.2279 20.1234 20.1874 20.1936 20.1449 20.2625C20.1268 20.2921 20.1074 20.3206 20.0888 20.3494ZM23.1698 22.9031C22.1246 22.9031 21.1316 22.6209 20.2608 22.0815C20.266 22.0761 20.2709 22.0704 20.2762 22.0649C20.3428 21.9964 20.4077 21.9268 20.4711 21.8558C20.4776 21.8485 20.4844 21.8414 20.4908 21.8341C20.5551 21.7615 20.6173 21.6874 20.6782 21.6125C20.6892 21.599 20.7001 21.5856 20.7109 21.572C20.7699 21.4982 20.8273 21.4233 20.883 21.3472C20.893 21.3337 20.9027 21.3199 20.9125 21.3063C20.9691 21.2278 21.0245 21.1484 21.0775 21.0677C21.0819 21.0611 21.086 21.0542 21.0904 21.0476C21.1424 20.968 21.1925 20.8872 21.241 20.8056C21.2466 20.7962 21.2524 20.787 21.2579 20.7776C21.3063 20.6952 21.3526 20.6116 21.3974 20.5273C21.4054 20.5121 21.4136 20.4969 21.4215 20.4816C21.465 20.3983 21.5068 20.3141 21.5467 20.2291C21.5535 20.2145 21.5601 20.1998 21.5668 20.1852C21.6074 20.0969 21.6467 20.0082 21.6834 19.9183C21.6856 19.913 21.6875 19.9077 21.6897 19.9024C21.7256 19.8138 21.7595 19.7243 21.7917 19.6342C21.7959 19.6226 21.8002 19.6111 21.8043 19.5994C21.8357 19.5098 21.865 19.4192 21.8928 19.3281C21.8979 19.3112 21.903 19.2944 21.9081 19.2775C21.9348 19.187 21.9599 19.0959 21.9828 19.0042C21.9866 18.989 21.9901 18.9739 21.9938 18.9587C22.017 18.863 22.0388 18.7669 22.0578 18.6699C22.0585 18.6668 22.059 18.6636 22.0596 18.6604C22.0783 18.5647 22.0945 18.4683 22.1091 18.3714C22.1112 18.3576 22.1134 18.3439 22.1154 18.33C22.1291 18.2353 22.1405 18.1401 22.1502 18.0445C22.1521 18.0265 22.1538 18.0084 22.1555 17.9903C22.1645 17.8948 22.1716 17.7991 22.1765 17.7027C22.1773 17.6875 22.1777 17.6723 22.1784 17.6571C22.1829 17.556 22.1858 17.4546 22.1858 17.3528C22.1858 17.251 22.1829 17.1496 22.1784 17.0485C22.1777 17.0333 22.1773 17.018 22.1765 17.0028C22.1716 16.9066 22.1644 16.8109 22.1555 16.7154C22.1538 16.6973 22.152 16.679 22.1502 16.6609C22.1405 16.5654 22.1291 16.4703 22.1154 16.3758C22.1134 16.3617 22.111 16.3477 22.1089 16.3337C22.0944 16.2373 22.0783 16.1414 22.0596 16.0459C22.059 16.0425 22.0584 16.0389 22.0577 16.0354C22.0387 15.9388 22.0171 15.8431 21.9939 15.7477C21.9901 15.732 21.9865 15.7164 21.9826 15.7008C21.9598 15.6094 21.9348 15.5188 21.9083 15.4287C21.9032 15.4113 21.8979 15.394 21.8926 15.3766C21.8651 15.286 21.8359 15.196 21.8047 15.1068C21.8003 15.0944 21.7956 15.0821 21.7912 15.0697C21.7594 14.9808 21.7259 14.8924 21.6904 14.805C21.6879 14.7988 21.6856 14.7927 21.6831 14.7866C21.6465 14.6972 21.6077 14.6091 21.5673 14.5216C21.5603 14.5062 21.5534 14.4909 21.5462 14.4756C21.5066 14.3911 21.4651 14.3076 21.422 14.2248C21.4136 14.2089 21.4051 14.193 21.3967 14.1771C21.3522 14.0934 21.3063 14.0104 21.2583 13.9287C21.2522 13.9185 21.2459 13.9084 21.2399 13.8982C21.192 13.8177 21.1426 13.7382 21.0914 13.6596C21.0866 13.6522 21.082 13.6447 21.0771 13.6373C21.0242 13.557 20.9693 13.4781 20.913 13.4001C20.9028 13.3859 20.8928 13.3718 20.8825 13.3579C20.8269 13.2821 20.7697 13.2074 20.7108 13.1337C20.6999 13.1201 20.6888 13.1066 20.6778 13.093C20.617 13.0181 20.5549 12.9441 20.4906 12.8717C20.4842 12.8643 20.4773 12.8571 20.4708 12.8498C20.4074 12.7788 20.3422 12.709 20.2755 12.6403C20.2704 12.635 20.2657 12.6295 20.2606 12.6243C21.1316 12.0847 22.1245 11.8025 23.1697 11.8025C26.23 11.8025 28.7199 14.2924 28.7199 17.3529C28.72 20.4133 26.2302 22.9031 23.1698 22.9031Z" fill="white"/>
<path d="M2.87109 29.8114C2.87109 28.805 2.87109 27.8192 2.87109 26.8335C3.07403 26.8335 3.29726 26.8335 3.5205 26.8335C3.54079 26.9156 3.54079 26.9772 3.56109 27.1004C3.82491 26.8335 4.12931 26.7102 4.4946 26.7513C4.85989 26.7718 5.12371 26.9361 5.38753 27.2647C5.42812 27.2031 5.42812 27.1415 5.46871 27.1004C5.93546 26.587 6.92986 26.6075 7.33574 27.1826C7.43721 27.3469 7.53868 27.5523 7.53868 27.7371C7.55897 28.4148 7.53868 29.0926 7.53868 29.8114C7.33574 29.8114 7.11251 29.8114 6.86898 29.8114C6.86898 29.6265 6.86898 29.4417 6.86898 29.2569C6.84869 28.8256 6.84869 28.3943 6.8284 27.963C6.8081 27.6139 6.56457 27.3674 6.23987 27.388C5.91517 27.4085 5.59047 27.5933 5.57018 28.0041C5.54988 28.5175 5.54988 29.031 5.57018 29.5444C5.57018 29.7703 5.52959 29.8525 5.28606 29.8525C4.79901 29.8319 4.85989 29.8935 4.85989 29.4006C4.85989 28.9488 4.85989 28.4764 4.8396 28.0246C4.8396 27.6549 4.61637 27.4085 4.27137 27.388C3.94667 27.3674 3.60167 27.6139 3.58138 27.963C3.54079 28.4764 3.56108 29.0104 3.54079 29.5239C3.54079 29.8319 3.54079 29.8319 3.23638 29.8319C3.13491 29.8114 3.01315 29.8114 2.87109 29.8114Z" fill="white"/>
<path d="M34.2868 29.5643C33.6171 30.0983 32.785 29.8929 32.3589 29.4616C31.8515 28.9276 31.7704 28.0034 32.1762 27.3873C32.3995 27.0382 32.7445 26.8328 33.1503 26.7712C33.5562 26.7096 33.9215 26.7917 34.2665 27.0793C34.2665 26.648 34.2665 26.2578 34.2665 25.8675C34.2665 25.6827 34.3274 25.6211 34.51 25.6211C35.0985 25.6416 34.9768 25.58 34.9971 26.0935C34.9971 27.2436 34.9971 28.3937 34.9971 29.5438C34.9971 29.7491 34.9565 29.8518 34.7333 29.8107C34.6724 29.8107 34.5912 29.8107 34.5303 29.8107C34.3883 29.8313 34.2665 29.7902 34.2868 29.5643ZM33.4953 29.2152C34.023 29.2152 34.368 28.8455 34.368 28.291C34.3477 27.6748 33.9824 27.3668 33.5156 27.3668C33.0286 27.3668 32.6633 27.6954 32.643 28.291C32.643 28.8455 32.988 29.2152 33.4953 29.2152Z" fill="white"/>
<path d="M10.4417 27.0381C10.4011 26.7917 10.5635 26.8122 10.7258 26.8122C10.8273 26.8122 10.9085 26.7917 10.9896 26.8122C11.0505 26.8327 11.152 26.9149 11.152 26.9765C11.152 27.8596 11.152 28.7633 11.152 29.6464C11.152 29.7696 11.1114 29.8107 10.9896 29.8107C10.8882 29.8107 10.807 29.8107 10.7055 29.8107C10.5432 29.8312 10.4011 29.8107 10.4214 29.5437C10.0561 29.8723 9.65026 29.9134 9.22409 29.8518C8.89939 29.7901 8.61527 29.6053 8.39204 29.3383C7.94558 28.7838 7.92529 27.8185 8.37175 27.2846C8.91968 26.6479 9.58938 26.5658 10.4417 27.0381ZM9.62996 29.2151C10.1373 29.2356 10.4823 28.8249 10.5026 28.3114C10.5229 27.798 10.117 27.3667 9.65026 27.3462C9.1835 27.3462 8.77762 27.7775 8.77762 28.2909C8.77762 28.8454 9.12262 29.2151 9.62996 29.2151Z" fill="white"/>
<path d="M29.0677 29.79C28.8648 29.79 28.6619 29.79 28.4589 29.79C28.4386 29.7078 28.4183 29.6257 28.3981 29.5435C27.6675 30.0159 26.9166 29.9543 26.4093 29.3587C25.9019 28.7631 25.9019 27.7773 26.4296 27.1817C26.7948 26.7504 27.6878 26.4424 28.3981 27.0379C28.4183 26.9558 28.4183 26.8942 28.4386 26.812C28.6416 26.812 28.8445 26.812 29.0677 26.812C29.0677 27.8184 29.0677 28.8042 29.0677 29.79ZM27.566 29.2149C28.0734 29.256 28.4183 28.8658 28.4589 28.3113C28.4995 27.8184 28.0734 27.346 27.5863 27.3665C27.1398 27.3871 26.7543 27.6746 26.7137 28.2702C26.6934 28.8042 27.0587 29.2149 27.566 29.2149Z" fill="white"/>
<path d="M20.4248 28.5579C19.7145 28.5579 19.0245 28.5579 18.3345 28.5579C18.2939 28.8249 18.5172 29.133 18.8013 29.1946C19.126 29.2768 19.471 29.2357 19.7551 29.0508C19.9174 28.9482 19.9986 28.9482 20.1204 29.1125C20.3436 29.4411 20.3436 29.4411 20.0189 29.6464C19.4101 29.975 18.3954 29.9545 17.9083 29.3589C17.3198 28.6196 17.4822 27.3873 18.2736 26.9149C18.7201 26.648 19.2274 26.6274 19.6942 26.8739C20.1813 27.1203 20.4045 27.5516 20.4248 28.1061C20.4248 28.2499 20.4248 28.3731 20.4248 28.5579ZM19.6739 28.0034C19.6739 27.6543 19.3898 27.3668 19.0448 27.3462C18.6998 27.3052 18.2533 27.6748 18.2939 28.0034C18.7607 28.0034 19.2274 28.0034 19.6739 28.0034Z" fill="white"/>
<path d="M13.1814 26.668C13.4655 26.7501 13.7902 26.8528 14.1352 26.9555C14.2772 26.9966 14.2569 27.0787 14.2164 27.1814C14.2164 27.2019 14.1961 27.2019 14.1961 27.2225C14.0337 27.5716 14.0337 27.5716 13.6887 27.4484C13.3843 27.3457 13.0596 27.2225 12.7349 27.4073C12.6537 27.4484 12.5725 27.5716 12.5725 27.6538C12.5725 27.7154 12.6943 27.8386 12.7755 27.8591C13.1002 27.9413 13.4046 28.0029 13.7293 28.0851C14.0946 28.1672 14.3178 28.4342 14.3584 28.7423C14.399 29.1941 14.2366 29.5432 13.8714 29.7075C13.2017 29.9951 12.532 29.954 11.8826 29.6048C11.7405 29.5227 11.7202 29.4611 11.8014 29.3379C11.8014 29.3173 11.8217 29.3173 11.8217 29.2968C12.0043 28.9887 12.0043 28.9887 12.3087 29.1325C12.6334 29.2762 12.9784 29.3173 13.3437 29.2352C13.4858 29.1941 13.6278 29.1325 13.6481 28.9682C13.6481 28.7833 13.5061 28.7423 13.3437 28.7012C13.0393 28.6396 12.7146 28.578 12.4102 28.4958C12.0246 28.3726 11.8217 28.0851 11.8217 27.7359C11.8217 27.3662 12.0449 26.9966 12.4102 26.8733C12.6334 26.7707 12.877 26.7501 13.1814 26.668Z" fill="white"/>
<path d="M16.0207 27.428C16.0207 27.9004 16.0004 28.3317 16.0207 28.763C16.041 29.1943 16.2439 29.2764 16.7107 29.1532C16.8122 29.1326 16.8933 29.0916 16.9948 29.0505C17.0557 29.2148 17.1166 29.3586 17.1572 29.5023C17.1774 29.5434 17.1572 29.6461 17.1166 29.6666C16.7513 29.9131 15.9192 29.9747 15.6148 29.605C15.4728 29.4407 15.3713 29.1943 15.351 28.9683C15.3104 28.4549 15.3307 27.9415 15.3307 27.4075C15.1278 27.4075 14.9451 27.4075 14.7422 27.4075C14.7422 27.2021 14.7422 26.9967 14.7422 26.7708C14.864 26.7708 15.006 26.7708 15.1278 26.7708C15.2698 26.7708 15.3307 26.7298 15.3307 26.5655C15.3104 26.3395 15.3307 26.1342 15.3307 25.8672C15.5336 25.8672 15.7163 25.8672 15.8989 25.8672C15.9395 25.8672 16.0004 25.9699 16.0004 26.0109C16.0207 26.1958 16.0207 26.3601 16.0004 26.5449C16.0004 26.6887 16.0613 26.7503 16.2033 26.7503C16.4672 26.7503 16.7513 26.7503 16.9948 26.7503C17.0151 26.7914 17.0151 26.8119 17.0151 26.8119C17.0963 27.387 17.0963 27.387 16.528 27.387C16.4063 27.428 16.2236 27.428 16.0207 27.428Z" fill="white"/>
<path d="M25.4394 28.9676C25.5206 29.1114 25.622 29.2346 25.6829 29.3784C25.7032 29.44 25.6829 29.5427 25.6423 29.5838C25.1553 29.9534 24.6073 29.9534 24.0594 29.7686C23.4912 29.5632 23.1665 29.1319 23.1056 28.4953C23.0447 27.8175 23.2071 27.2425 23.8565 26.9139C24.445 26.6058 25.0335 26.6263 25.6017 26.9755C25.7032 27.0371 25.7641 27.1192 25.6626 27.2425C25.5814 27.3657 25.5206 27.4889 25.4191 27.6327C24.8712 27.3452 24.3435 27.1809 23.9174 27.797C23.6941 28.1256 23.7144 28.6185 23.9782 28.9266C24.445 29.3989 24.932 29.2346 25.4394 28.9676Z" fill="white"/>
<path d="M30.5492 26.7916C30.5492 26.8943 30.5492 26.9559 30.5695 27.0791C30.8536 26.7505 31.1783 26.6889 31.5436 26.73C31.7668 26.7505 31.8074 26.7916 31.7262 27.0175C31.7059 27.0997 31.6654 27.1613 31.6654 27.2434C31.6451 27.4283 31.5436 27.4488 31.3812 27.4077C30.8739 27.305 30.5695 27.5515 30.5695 28.0855C30.5695 28.5784 30.5695 29.0713 30.5695 29.5436C30.5695 29.7285 30.5289 29.8106 30.326 29.7901C29.7983 29.7696 29.8795 29.8517 29.8795 29.3383C29.8795 28.5578 29.8795 27.7774 29.8795 27.0175C29.8795 26.8532 29.9201 26.7916 30.0824 26.7916C30.2245 26.8122 30.3665 26.7916 30.5492 26.7916Z" fill="white"/>
<path d="M22.7601 27.408C22.5572 27.408 22.3745 27.3875 22.2122 27.408C21.8672 27.4902 21.7454 27.675 21.7454 28.0241C21.7454 28.5376 21.7454 29.0716 21.7454 29.585C21.7454 29.7698 21.6846 29.8314 21.5019 29.8109C21.0352 29.8109 21.0352 29.8109 21.0352 29.3385C21.0352 28.517 21.0352 27.675 21.0352 26.8535C21.4004 26.7098 21.6846 26.7714 21.7657 27.0178C22.0296 26.7303 22.3543 26.6892 22.7195 26.7303C22.9022 26.7508 22.9428 26.833 22.9022 26.9973C22.8616 27.141 22.8007 27.2848 22.7601 27.408Z" fill="white"/>
</g>
<defs>
<clipPath id="clip0_1345_512">
<rect width="38.5882" height="38.5882" fill="white" transform="translate(0 0.746094)"/>
</clipPath>
</defs>
</svg>
