<svg width="40" height="40" viewBox="0 0 40 40" fill="none" xmlns="http://www.w3.org/2000/svg">
<g clip-path="url(#clip0_1345_530)">
<path d="M38.557 12.3435C38.8935 12.3435 39.1662 12.0707 39.1662 11.7342V9.36322C39.1662 7.80921 37.902 6.54492 36.348 6.54492H3.39634C1.84242 6.54485 0.578125 7.80906 0.578125 9.36314V30.7167C0.578125 32.2707 1.84242 33.535 3.39634 33.535H36.3481C37.9021 33.535 39.1663 32.2707 39.1662 30.7167V13.7109C39.1662 13.3743 38.8934 13.1016 38.557 13.1016C38.2204 13.1016 37.9477 13.3743 37.9477 13.7109V30.7165C37.9477 31.5987 37.23 32.3163 36.348 32.3163H3.39634C2.51424 32.3163 1.79667 31.5987 1.79667 30.7165V9.36314C1.79667 8.48104 2.51424 7.76339 3.39634 7.76346H36.3479C37.23 7.76346 37.9476 8.48111 37.9476 9.36322V11.7342C37.9477 12.0707 38.2204 12.3435 38.557 12.3435Z" fill="white"/>
<path d="M28.1022 16.9109C28.1012 16.9078 28.1001 16.9048 28.099 16.9017C27.878 16.2919 27.5029 15.7582 27.0061 15.3399C27.0691 13.8295 26.7463 12.8334 25.9 11.8659C24.9644 10.7963 23.3145 10.2539 20.9963 10.2539H15.1468C14.4822 10.2539 13.9311 10.8298 13.75 11.3718C13.739 11.4047 13.7309 11.4385 13.7256 11.4729L11.3859 26.7978C11.3813 26.8282 11.3789 26.859 11.3789 26.8898C11.3789 27.5483 11.8619 28.084 12.4558 28.084H15.3642L15.2117 29.0142C15.2064 29.0468 15.2036 29.0799 15.2036 29.1129C15.2036 29.7468 15.6465 30.1895 16.2806 30.1895H19.1966C19.9064 30.1895 20.451 29.7393 20.6179 29.0146C20.6209 29.0017 20.6234 28.9885 20.6256 28.9753L21.2104 25.349C21.2126 25.3347 21.2145 25.3205 21.2157 25.3062C21.2244 25.2077 21.2706 25.0424 21.4807 25.0424H21.7792C23.4806 25.0424 24.8789 24.6599 25.9352 23.9055C27.1546 23.0346 27.9265 21.6716 28.2294 19.8541C28.421 18.7023 28.3783 17.7121 28.1022 16.9109ZM15.5645 26.8655H12.6083L14.9205 11.7204C14.978 11.5918 15.0984 11.4868 15.1533 11.4726H20.9962C22.92 11.4726 24.2985 11.8861 24.9828 12.6682C25.4924 13.2509 25.7367 13.8256 25.7859 14.6485C25.1157 14.4189 24.4768 14.3615 24.1119 14.3495C24.0924 14.3476 24.073 14.3467 24.0532 14.3467H22.3472C22.3336 14.3467 22.3201 14.3471 22.3066 14.348H18.7708C18.7634 14.348 18.756 14.3482 18.7487 14.3484C18.0372 14.3742 17.5027 14.8387 17.354 15.5604C17.352 15.5705 17.3501 15.5805 17.3486 15.5907L16.4167 21.6465L15.5645 26.8655ZM25.7627 15.9663C25.7546 16.0029 25.7456 16.0385 25.7371 16.0748C25.7304 16.1038 25.7235 16.1326 25.7165 16.1614C25.7094 16.1905 25.703 16.2202 25.6957 16.2489C25.6855 16.289 25.6742 16.3279 25.6635 16.3673C25.6571 16.3912 25.6507 16.415 25.644 16.4386C25.6354 16.4695 25.6274 16.501 25.6186 16.5315C25.6068 16.5721 25.5938 16.6115 25.5815 16.6515C25.5765 16.6675 25.5715 16.6835 25.5666 16.6993C25.5555 16.7344 25.5451 16.7702 25.5338 16.8047C25.5203 16.8458 25.5056 16.8854 25.4914 16.9259C25.4881 16.9354 25.4848 16.9449 25.4813 16.9544C25.4679 16.9923 25.4551 17.031 25.4411 17.0683C25.4256 17.1098 25.409 17.1497 25.393 17.1904C25.391 17.1953 25.3891 17.2002 25.3872 17.205C25.3716 17.2442 25.3567 17.284 25.3406 17.3225C25.3232 17.364 25.3047 17.4041 25.2866 17.4449C25.2685 17.4857 25.251 17.5273 25.2323 17.5673C25.2135 17.6074 25.1936 17.6463 25.1741 17.6856C25.1549 17.7246 25.1361 17.7644 25.1161 17.8026C25.0957 17.8418 25.0742 17.8796 25.053 17.918C25.0327 17.9548 25.013 17.9924 24.9921 18.0286C24.9701 18.0666 24.9469 18.1031 24.9242 18.1403C24.9028 18.1753 24.8821 18.211 24.8601 18.2452C24.8364 18.2821 24.8114 18.3176 24.7869 18.3538C24.7647 18.3866 24.7431 18.4202 24.7202 18.4522C24.6946 18.4883 24.6677 18.5229 24.6413 18.558C24.6183 18.5886 24.596 18.6199 24.5724 18.6499C24.5452 18.6846 24.5165 18.7178 24.4886 18.7516C24.4646 18.7805 24.4412 18.8101 24.4167 18.8383C24.3876 18.8717 24.3574 18.9035 24.3277 18.9359C24.3027 18.963 24.2784 18.991 24.2528 19.0174C24.2219 19.0495 24.1897 19.0801 24.158 19.1112C24.1323 19.1365 24.1072 19.1625 24.081 19.1871C24.0483 19.2177 24.0143 19.2468 23.981 19.2765C23.9543 19.3002 23.9282 19.3246 23.901 19.3476C23.8666 19.3767 23.831 19.4043 23.7957 19.4324C23.7681 19.4544 23.7412 19.4772 23.7131 19.4987C23.6767 19.5265 23.639 19.5527 23.6018 19.5794C23.5735 19.5996 23.5459 19.6208 23.5171 19.6406C23.4788 19.6668 23.4391 19.6915 23.4 19.7167C23.3709 19.7354 23.3425 19.755 23.3129 19.7731C23.2723 19.7981 23.2303 19.8214 23.1888 19.8453C23.1594 19.8622 23.1306 19.88 23.1007 19.8964C23.0578 19.92 23.0134 19.942 22.9695 19.9645C22.9396 19.9798 22.9106 19.9958 22.8804 20.0105C22.836 20.0322 22.7902 20.0522 22.7449 20.0728C22.7137 20.087 22.6833 20.1019 22.6517 20.1155C22.6058 20.1353 22.5585 20.1534 22.5117 20.1721C22.4794 20.185 22.4478 20.1988 22.415 20.2112C22.3675 20.2291 22.3187 20.2455 22.2703 20.2623C22.2368 20.274 22.2039 20.2865 22.17 20.2978C22.1216 20.3137 22.0716 20.3281 22.0222 20.3429C21.9869 20.3535 21.9524 20.365 21.9166 20.3751C21.8668 20.3892 21.8157 20.4016 21.765 20.4147C21.7283 20.4241 21.6924 20.4343 21.6552 20.4432C21.6027 20.4558 21.5486 20.4668 21.495 20.4783C21.4584 20.4863 21.4226 20.4949 21.3855 20.5023C21.331 20.5131 21.275 20.5224 21.2195 20.5322C21.182 20.5387 21.1453 20.5461 21.1073 20.5522C21.0512 20.5612 20.9937 20.5686 20.9366 20.5765C20.8979 20.5819 20.8601 20.5882 20.8209 20.5931C20.7626 20.6003 20.7029 20.6059 20.6436 20.6121C20.6043 20.6162 20.5659 20.6212 20.5261 20.6247C20.4669 20.6301 20.4064 20.6338 20.3463 20.6381C20.3051 20.6411 20.2647 20.6448 20.2231 20.6473C20.1573 20.6512 20.0899 20.6534 20.0229 20.656C19.9857 20.6574 19.9493 20.6597 19.9117 20.6609C19.8065 20.6639 19.6999 20.6654 19.5919 20.6654H17.837C17.825 20.6658 17.8127 20.666 17.8004 20.6664L18.5504 15.7936C18.5977 15.5827 18.7018 15.57 18.7825 15.5666H22.3496C22.3633 15.5666 22.3768 15.5662 22.3903 15.5653H24.0134C24.0221 15.566 24.031 15.5663 24.0397 15.5666C24.2955 15.5729 24.9569 15.6159 25.5882 15.8752C25.6351 15.896 25.6935 15.9239 25.7591 15.959C25.7604 15.9613 25.7614 15.9639 25.7627 15.9663ZM27.0275 19.654C26.56 22.4598 24.8433 23.8238 21.7794 23.8238H21.4809C20.5007 23.8238 20.0645 24.6211 20.0046 25.1729L19.4265 28.7578C19.3728 28.9708 19.2794 28.9708 19.1967 28.9708H16.4537L16.6775 27.6052C16.6799 27.5945 16.6819 27.5837 16.6837 27.5729L17.5517 22.2715C17.553 22.269 17.5541 22.2662 17.5555 22.2636C17.5575 22.2599 17.5593 22.256 17.5612 22.2521C17.5629 22.2488 17.5645 22.2454 17.5662 22.2419C17.5692 22.2357 17.5726 22.2297 17.5754 22.2233C17.5831 22.2058 17.5902 22.1879 17.5963 22.1695C17.6449 22.0238 17.7837 21.8995 17.8437 21.8841H19.5923C19.7156 21.8841 19.8373 21.8821 19.9577 21.8787C19.9979 21.8775 20.0372 21.8752 20.0771 21.8735C20.1567 21.8704 20.2363 21.8673 20.3146 21.8625C20.3614 21.8598 20.4071 21.8558 20.4533 21.8524C20.5234 21.8473 20.5935 21.8423 20.6626 21.8359C20.7114 21.8315 20.7595 21.8259 20.8077 21.8208C20.8727 21.8139 20.9378 21.8069 21.0019 21.7989C21.0511 21.7927 21.0997 21.7856 21.1485 21.7787C21.2101 21.7701 21.2717 21.7611 21.3325 21.7513C21.3815 21.7434 21.4298 21.7348 21.4782 21.7262C21.5374 21.7156 21.5962 21.7047 21.6544 21.6931C21.7025 21.6835 21.7503 21.6734 21.7979 21.6631C21.855 21.6507 21.9117 21.6378 21.9679 21.6243C22.0148 21.6131 22.0615 21.6015 22.1078 21.5896C22.1632 21.5753 22.2182 21.5602 22.2728 21.5449C22.3184 21.5321 22.3637 21.5192 22.4086 21.5057C22.4627 21.4893 22.516 21.4721 22.5693 21.4548C22.6131 21.4405 22.6571 21.4263 22.7005 21.4112C22.7536 21.3928 22.8058 21.3733 22.8581 21.3537C22.8998 21.3381 22.9418 21.3228 22.9829 21.3065C23.0361 21.2855 23.0881 21.2631 23.1402 21.2409C23.179 21.2243 23.2183 21.2084 23.2566 21.1912C23.3118 21.1664 23.3657 21.1401 23.4199 21.114C23.4535 21.0977 23.4879 21.0822 23.5212 21.0654C23.5955 21.0279 23.6683 20.9888 23.7404 20.9488C23.7682 20.9333 23.7957 20.9175 23.8231 20.9017C23.8895 20.8635 23.9554 20.8248 24.0199 20.7845C24.0523 20.7642 24.0835 20.7427 24.1153 20.7218C24.163 20.6907 24.2108 20.6598 24.2573 20.6273C24.2916 20.6035 24.3249 20.5784 24.3586 20.5539C24.4013 20.5228 24.4441 20.492 24.4859 20.4598C24.5201 20.4335 24.5535 20.406 24.5871 20.3789C24.6269 20.3468 24.6667 20.3149 24.7056 20.2818C24.7391 20.2534 24.7718 20.2241 24.8047 20.1948C24.8423 20.1613 24.8797 20.1278 24.9164 20.0934C24.9488 20.063 24.9806 20.0319 25.0124 20.0007C25.048 19.9657 25.0834 19.9304 25.1183 19.8944C25.1495 19.8622 25.1801 19.8297 25.2106 19.7966C25.2446 19.7599 25.2783 19.7226 25.3115 19.6848C25.3411 19.6511 25.3706 19.617 25.3995 19.5825C25.4321 19.5438 25.4641 19.5043 25.4958 19.4645C25.5239 19.4293 25.5518 19.394 25.5793 19.3582C25.6106 19.3171 25.6412 19.2751 25.6717 19.233C25.6979 19.1968 25.7243 19.1607 25.7499 19.1237C25.7803 19.0798 25.8097 19.0349 25.8392 18.99C25.8633 18.9532 25.8878 18.9167 25.9114 18.879C25.9413 18.8313 25.9701 18.7823 25.9991 18.7336C26.0207 18.6971 26.0429 18.6612 26.0639 18.624C26.0949 18.5694 26.1246 18.5131 26.1545 18.4571C26.172 18.4241 26.1902 18.392 26.2074 18.3586C26.2519 18.272 26.2948 18.1837 26.3364 18.094C26.3449 18.0757 26.3529 18.0569 26.3612 18.0385C26.397 17.9596 26.4323 17.8799 26.466 17.7985C26.4808 17.7627 26.4945 17.7256 26.509 17.6894C26.5338 17.627 26.5588 17.5649 26.5823 17.5012C26.5976 17.4599 26.6119 17.4174 26.6267 17.3755C26.648 17.3152 26.6694 17.2549 26.6895 17.1935C26.7041 17.149 26.7179 17.1035 26.732 17.0582C26.7457 17.0144 26.7601 16.9715 26.7733 16.9271C26.8428 17.0485 26.9024 17.177 26.9516 17.3121C27.1565 17.9109 27.1828 18.7205 27.0275 19.654Z" fill="white"/>
</g>
<defs>
<clipPath id="clip0_1345_530">
<rect width="38.5881" height="38.5881" fill="white" transform="translate(0.578125 0.746094)"/>
</clipPath>
</defs>
</svg>
