<svg width="39" height="40" viewBox="0 0 39 40" fill="none" xmlns="http://www.w3.org/2000/svg">
<g clip-path="url(#clip0_1345_537)">
<path d="M38.1351 12.3435C38.539 12.3435 38.7444 12.0707 38.7444 11.7342V9.36322C38.7444 7.80921 37.4801 6.54492 35.9261 6.54492H2.97462C1.42054 6.54492 0.15625 7.80921 0.15625 9.36322V30.7167C0.15625 32.2708 1.42054 33.5351 2.97462 33.5351H35.926C37.4801 33.5351 38.7444 32.2707 38.7444 30.7167V13.7111C38.7444 13.3746 38.4717 13.1018 38.1351 13.1018C37.7985 13.1018 37.5258 13.3747 37.5258 13.7111L37.5259 30.7166L37.3095 32.3181L34.9176 32.3165H29.6556H19.4503H10.3279L5.73734 32.3181L3.34551 32.7965L1.37479 31.8397V27.7124V12.3435H19.7549H38.1351ZM1.37479 9.36322C1.37479 8.48111 2.09244 7.76346 2.97462 7.76346H35.926C36.8082 7.76346 37.5258 8.48111 37.5258 9.36322V12.3435H19.4503H1.37479V11.1249V9.36322ZM37.5259 30.7166C37.5259 31.5988 36.8082 32.3165 35.9261 32.3165H2.97462C2.09244 32.3165 1.37479 31.5988 1.37479 30.7166V31.8397L3.34551 32.7965L5.73734 32.3181L10.3279 32.3165H19.4503H29.6556H34.9176L37.3095 32.3181L37.5259 30.7166Z" fill="white"/>
<path d="M18.8473 14.8949C18.7315 14.7577 18.5612 14.6785 18.3816 14.6785H15.7823C15.5595 14.6785 15.3611 14.799 15.2548 14.9828C15.2502 14.975 15.2462 14.9668 15.2412 14.9591C15.1284 14.7879 14.9373 14.6849 14.7323 14.6849H11.9813C11.7305 14.6849 11.5054 14.8385 11.414 15.0721L9.5884 19.7368L8.77911 15.8546C8.77715 15.8452 8.77496 15.8359 8.77255 15.8266C8.63417 15.291 8.22757 14.6425 7.07648 14.5942C7.06804 14.5939 7.05952 14.5938 7.051 14.5938H3.02796C2.73455 14.5938 2.48275 14.8028 2.42901 15.0913L2.39321 15.2836C2.3339 15.6019 2.53393 15.9112 2.84866 15.9874C3.61379 16.1729 4.32511 16.432 4.97176 16.7552C4.95548 16.846 4.95948 16.9411 4.98654 17.0336L7.31117 24.9792C7.38714 25.2389 7.62538 25.4174 7.89595 25.4174C7.89565 25.4174 7.89617 25.4174 7.89595 25.4174L10.6453 25.4142C10.8885 25.4139 11.1083 25.269 11.2044 25.0456L15.0107 16.1901L13.5584 24.7121C13.5282 24.8891 13.5776 25.0704 13.6934 25.2075C13.8091 25.3446 13.9795 25.4238 14.1589 25.4238H16.7539C17.0508 25.4238 17.3045 25.2097 17.3545 24.9171L18.9822 15.3904C19.0124 15.2133 18.9631 15.0322 18.8473 14.8949ZM7.03751 15.8124C7.50125 15.8341 7.55227 15.9763 7.58928 16.1178L7.83422 17.2928C7.2496 16.7235 6.56662 16.2258 5.80051 15.8124H7.03751ZM10.2428 24.1961L8.35215 24.1982L6.68999 18.5173C7.59885 19.3776 8.29238 20.33 8.59061 21.0133L8.85101 21.9546C8.92095 22.2073 9.14486 22.3871 9.40684 22.4006C9.66852 22.4142 9.91 22.2586 10.0056 22.0141L12.3971 15.9034H13.8072L10.2428 24.1961ZM16.24 24.2052H14.8809L16.2966 15.897H17.6594L16.24 24.2052Z" fill="white"/>
<path d="M35.5205 24.6419L33.4274 15.1663C33.3657 14.8871 33.1183 14.6884 32.8325 14.6884H30.8272C30.4791 14.6884 29.4199 14.6884 28.9102 15.8405L26.4012 21.5204C26.3375 20.2767 25.5093 19.307 23.8744 18.5609C23.537 18.3976 22.9376 18.107 22.7849 17.9361C22.8595 17.8653 23.1068 17.7231 23.6445 17.7231C23.6476 17.7231 23.6508 17.723 23.6538 17.723C24.4198 17.712 24.9621 17.8855 25.3474 18.0391L25.5685 18.1404C25.7406 18.2194 25.9394 18.2138 26.107 18.1254C26.2745 18.0369 26.3911 17.8757 26.4231 17.6891L26.7753 15.6253C26.8245 15.337 26.6619 15.0544 26.3878 14.9519C25.8548 14.7528 24.9813 14.5156 23.8467 14.5156C20.9235 14.5156 18.8683 16.0564 18.8489 18.2608C18.8262 20.1806 20.8221 21.1057 21.4792 21.4103C22.3593 21.8154 22.4569 21.9854 22.4675 22.0149C22.4675 22.015 22.4683 22.0188 22.4681 22.031C22.4668 22.1622 22.0704 22.357 21.5254 22.357C20.5608 22.357 20.0841 22.2247 19.3239 21.9085L19.0018 21.7606C18.8298 21.6816 18.6306 21.6871 18.4632 21.7753C18.2957 21.8637 18.1788 22.0249 18.147 22.2116L17.7822 24.3463C17.735 24.6225 17.8821 24.8952 18.1388 25.0073C18.8914 25.3361 20.1201 25.5548 21.2693 25.5644C21.271 25.5644 21.2727 25.5644 21.2744 25.5644C22.7421 25.5644 23.9984 25.2187 24.9074 24.5648C24.9868 24.5077 25.0622 24.4474 25.1357 24.3858L25.0535 24.5719C24.9702 24.7603 24.9878 24.9781 25.1002 25.1507C25.2127 25.3233 25.4047 25.4273 25.6107 25.4273H28.3398C28.5933 25.4273 28.8203 25.2703 28.9098 25.0333C28.913 25.0249 29.1387 24.4274 29.3029 23.9963C29.5874 23.9966 29.9775 23.9971 30.3806 23.9975C30.8612 23.998 31.3604 23.9986 31.7227 23.9989C31.8172 24.4247 31.929 24.9398 31.9306 24.9472C31.9914 25.2275 32.2393 25.4273 32.526 25.4273H34.9355C34.9359 25.4273 34.9366 25.4273 34.937 25.4273C35.2736 25.4273 35.5463 25.1546 35.5463 24.818C35.5463 24.7567 35.5373 24.6977 35.5205 24.6419ZM21.2768 24.3457C20.4222 24.3384 19.6198 24.2028 19.0699 24.0451L19.218 23.1781C19.9271 23.4468 20.5302 23.5756 21.5254 23.5756C22.7887 23.5756 23.6774 22.9455 23.6866 22.0465C23.7 21.1648 22.8911 20.7188 21.9903 20.3041C20.6512 19.6834 20.0581 19.0577 20.0674 18.2735C20.0806 16.7785 21.6347 15.7342 23.8467 15.7342C24.52 15.7342 25.0806 15.8357 25.4849 15.943L25.348 16.7457C24.9086 16.6081 24.351 16.4943 23.64 16.5046C22.2065 16.5063 21.5516 17.2422 21.5487 17.9277C21.539 18.7847 22.3784 19.1907 23.35 19.661C23.3543 19.663 23.3586 19.665 23.3628 19.667C24.9895 20.4076 25.1923 21.1398 25.1872 21.6945C25.1711 23.3293 23.6728 24.3451 21.2768 24.3457ZM33.0166 24.2088C32.9421 23.8686 32.8476 23.4406 32.8027 23.2502C32.7378 22.9751 32.4923 22.7808 32.2096 22.7808C32.0092 22.7808 31.1702 22.7798 30.3819 22.7791C29.6829 22.7782 29.0236 22.7775 28.8841 22.7775C28.6332 22.7775 28.4082 22.9311 28.3168 23.1646C28.2528 23.3281 28.0579 23.8417 27.9189 24.2088H26.546L30.0248 16.3333C30.1525 16.0445 30.3053 15.9071 30.8273 15.9071H32.343L34.1768 24.2088H33.0166Z" fill="white"/>
<path d="M32.3792 21.3062C32.2749 20.8304 31.7799 18.557 31.7798 18.557L31.6037 17.7354C31.5468 17.4697 31.3209 17.274 31.0499 17.2553C30.7784 17.2371 30.5282 17.3996 30.4353 17.6549C30.3557 17.8743 30.2346 18.1871 30.1623 18.3739C30.1385 18.4356 30.1154 18.4952 30.0965 18.554L30.0941 18.553C30.0859 18.5741 29.2741 20.6737 29.0618 21.2138C28.988 21.4013 29.0119 21.6131 29.1253 21.7798C29.239 21.9462 29.4275 22.046 29.629 22.046H31.7841C31.9686 22.046 32.1432 21.9624 32.2588 21.8186C32.3745 21.6748 32.4188 21.4864 32.3792 21.3062ZM30.5202 20.8273C30.6251 20.557 30.7394 20.2622 30.8449 19.9896C30.9062 20.271 30.9704 20.5655 31.0275 20.8273H30.5202Z" fill="white"/>
</g>
<defs>
<clipPath id="clip0_1345_537">
<rect width="38.5882" height="38.5882" fill="white" transform="translate(0.15625 0.746094)"/>
</clipPath>
</defs>
</svg>
