<svg width="20" height="20" viewBox="0 0 20 20" fill="none" xmlns="http://www.w3.org/2000/svg">
<path d="M6.38093 15.5566C5.22776 15.5566 4.29297 16.4915 4.29297 17.6446C4.29297 18.7978 5.2278 19.7326 6.38093 19.7326C7.53411 19.7326 8.46889 18.7977 8.46889 17.6446C8.46894 16.4915 7.53411 15.5566 6.38093 15.5566ZM6.38093 18.8046C5.74029 18.8046 5.22096 18.2853 5.22096 17.6446C5.22096 17.004 5.74029 16.4847 6.38093 16.4847C7.02158 16.4847 7.5409 17.004 7.5409 17.6446C7.54095 18.2853 7.02158 18.8046 6.38093 18.8046Z" fill="white"/>
<path d="M15.1973 15.5566C14.0442 15.5566 13.1094 16.4915 13.1094 17.6446C13.1094 18.7978 14.0442 19.7326 15.1973 19.7326C16.3505 19.7326 17.2853 18.7977 17.2853 17.6446C17.2853 16.4915 16.3505 15.5566 15.1973 15.5566ZM15.1973 18.8046C14.5567 18.8046 14.0374 18.2853 14.0374 17.6446C14.0374 17.004 14.5567 16.4847 15.1973 16.4847C15.838 16.4847 16.3573 17.004 16.3573 17.6446C16.3574 18.2853 15.838 18.8046 15.1973 18.8046Z" fill="white"/>
<path d="M19.9054 3.37639C19.8088 3.27084 19.6766 3.20476 19.5343 3.19077L4.43118 2.98198L4.01358 1.70597C3.71939 0.852981 2.92062 0.277125 2.01838 0.267578H0.463997C0.207731 0.267578 0 0.475309 0 0.731575C0 0.987841 0.207731 1.19557 0.463997 1.19557H2.01838C2.52288 1.20672 2.96711 1.53066 3.13199 2.00758L6.07837 10.8931L5.84639 11.4267C5.58764 12.0939 5.66535 12.8449 6.05519 13.4451C6.4413 14.0345 7.09087 14.3983 7.79519 14.4195H16.8199C17.0762 14.4195 17.2839 14.2117 17.2839 13.9555C17.2839 13.6992 17.0762 13.4915 16.8199 13.4915H7.79515C7.3974 13.4815 7.03128 13.2723 6.82075 12.9347C6.61257 12.6012 6.56981 12.1903 6.70476 11.8211L6.89038 11.4035L16.6575 10.3827C17.7303 10.2645 18.6129 9.48419 18.8615 8.43386L19.9751 3.77071C20.0253 3.63643 19.9986 3.4854 19.9054 3.37639ZM17.9567 8.22511C17.8061 8.90123 17.232 9.39995 16.5415 9.45471L6.89038 10.4523L4.73278 3.90997L18.9543 4.11877L17.9567 8.22511Z" fill="white"/>
</svg>
