<svg width="24" height="20" viewBox="0 0 24 20" fill="none" xmlns="http://www.w3.org/2000/svg">
<path d="M11.2061 3.23462L12 4.27138L12.7939 3.23465C13.8362 1.8737 15.4714 1 17.3102 1C20.4506 1 23.0001 3.5518 23 6.70408C23 10.398 20.3363 13.4622 17.3953 15.695C15.9512 16.7913 14.5011 17.6399 13.409 18.215C12.8642 18.5019 12.4117 18.7191 12.0976 18.8636C12.0644 18.8789 12.0328 18.8934 12.0027 18.907C11.9724 18.893 11.9404 18.8782 11.9068 18.8626C11.5925 18.7161 11.1396 18.4962 10.5946 18.2063C9.50199 17.6252 8.05117 16.7694 6.60625 15.6679C3.66161 13.4232 1 10.3591 1 6.7041C1 3.55179 3.54944 1 6.68985 1C8.52861 1 10.1639 1.87371 11.2061 3.23462Z" stroke="#303361" stroke-width="2"/>
</svg>
