<svg width="10" height="18" viewBox="0 0 10 18" fill="none" xmlns="http://www.w3.org/2000/svg">
<path d="M8.96916 0.951113L9.82812 1.80276C9.94283 1.91624 10 2.04696 10 2.19475C10 2.34218 9.94283 2.47284 9.82812 2.58632L3.07562 9.28116L9.82794 15.9757C9.94265 16.0892 9.99982 16.2199 9.99982 16.3675C9.99982 16.5152 9.94265 16.6458 9.82794 16.7593L8.96892 17.6108C8.85445 17.7246 8.72266 17.7813 8.57371 17.7813C8.42488 17.7813 8.29308 17.7244 8.17862 17.6108L0.171757 9.67297C0.0572335 9.55949 5.87663e-07 9.42877 5.81194e-07 9.28116C5.74726e-07 9.13355 0.0572334 9.00307 0.171757 8.88965L8.17862 0.951113C8.29314 0.837631 8.42494 0.78125 8.57371 0.78125C8.72265 0.78125 8.85445 0.837631 8.96916 0.951113Z" fill="#9AAABA" fill-opacity="0.6"/>
</svg>
