<svg width="14" height="9" viewBox="0 0 14 9" fill="none" xmlns="http://www.w3.org/2000/svg">
<path d="M0.767178 1.6221L1.42631 0.994685C1.51414 0.9109 1.61532 0.86914 1.7297 0.86914C1.8438 0.86914 1.94493 0.9109 2.03276 0.994685L7.21427 5.92695L12.3956 0.994818C12.4834 0.911033 12.5846 0.869272 12.6988 0.869272C12.8131 0.869272 12.9142 0.911033 13.002 0.994818L13.6611 1.62228C13.7491 1.70589 13.793 1.80216 13.793 1.91096C13.793 2.01966 13.749 2.11593 13.6611 2.19954L7.51752 8.04804C7.42969 8.13169 7.32851 8.17349 7.21427 8.17349C7.10003 8.17349 6.99904 8.13169 6.91126 8.04804L0.767178 2.19954C0.679349 2.11589 0.635713 2.01962 0.635713 1.91095C0.635713 1.80216 0.679349 1.70589 0.767178 1.6221Z" fill="#303361"/>
</svg>
