<svg width="10" height="18" viewBox="0 0 10 18" fill="none" xmlns="http://www.w3.org/2000/svg">
<path d="M1.03084 0.951113L0.171878 1.80276C0.0571727 1.91624 6.89488e-07 2.04696 6.83011e-07 2.19475C6.76551e-07 2.34218 0.0571727 2.47284 0.171878 2.58632L6.92438 9.28116L0.172058 15.9757C0.0573528 16.0892 0.000180513 16.2199 0.000180506 16.3675C0.0001805 16.5152 0.0573527 16.6458 0.172058 16.7593L1.03108 17.6108C1.14555 17.7246 1.27734 17.7813 1.42629 17.7813C1.57512 17.7813 1.70692 17.7244 1.82138 17.6108L9.82824 9.67297C9.94277 9.55949 10 9.42877 10 9.28116C10 9.13355 9.94277 9.00307 9.82824 8.88965L1.82138 0.951113C1.70686 0.837631 1.57506 0.78125 1.42629 0.78125C1.27735 0.78125 1.14555 0.837631 1.03084 0.951113Z" fill="#FBC400"/>
</svg>
