<svg width="60" height="62" viewBox="0 0 60 62" fill="none" xmlns="http://www.w3.org/2000/svg">
<path d="M39.3409 36.9641C39.1135 31.9802 36.4592 27.5147 32.2399 25.0192C28.0206 22.5237 22.9183 22.4016 18.5917 24.6921L8.16525 30.2106C6.43544 31.1261 5.06855 32.5576 4.21289 34.3489C3.35701 36.1407 3.09305 38.1244 3.44865 40.0866C3.80569 42.0481 4.74938 43.8027 6.17755 45.1607C7.60572 46.5188 9.38486 47.3518 11.3219 47.5703L11.4519 47.5845C16.3063 48.1693 20.7402 50.8128 23.6341 54.8523C24.3807 55.8942 25.3122 56.7488 26.3817 57.3813C26.9632 57.7252 27.5862 58.0036 28.2419 58.2112C30.1039 58.7996 32.059 58.7595 33.8964 58.0953C35.7327 57.4311 37.2784 56.2049 38.3657 54.5496C39.4531 52.8942 39.9796 50.9662 39.8891 48.973L39.3409 36.9641Z" fill="#F2F1F5"/>
<path d="M14.5867 22.3084C16.5809 22.6319 18.5801 22.0186 20.2159 20.5812C21.7728 19.2136 22.8166 17.2473 23.1549 15.044C23.4921 12.8417 23.0877 10.6419 22.0162 8.84916C20.8905 6.96638 19.1723 5.75202 17.1801 5.43127C13.174 4.7827 9.33155 8.04096 8.61388 12.6968C8.04678 16.4049 9.63152 19.8947 12.3245 21.4875C13.0122 21.8942 13.7721 22.1771 14.5867 22.3084Z" fill="#F2F1F5"/>
<path d="M29.1035 21.7394C33.2023 24.1636 38.7292 22.2463 41.4237 17.4652C44.1189 12.683 42.9768 6.82028 38.878 4.39606C34.7796 1.97207 29.2527 3.89044 26.5575 8.67265C23.863 13.4537 25.0051 19.3154 29.1035 21.7394Z" fill="#F2F1F5"/>
<path d="M40.7435 31.4626L40.7439 31.4628C41.2537 32.05 41.8392 32.5328 42.4797 32.9116C45.4689 34.6796 49.6374 34.175 52.6782 31.4093C54.4289 29.8174 55.5611 27.7089 55.866 25.4727C56.1855 23.1318 55.5721 20.9328 54.1386 19.2801C52.7047 17.6272 50.6442 16.7443 48.3367 16.7931C46.1324 16.8397 43.9546 17.7426 42.2046 19.3349C38.5124 22.6937 37.857 28.1342 40.7435 31.4626Z" fill="#F2F1F5"/>
<path d="M56.9648 39.7096L56.9643 39.7077C55.3425 35.8982 50.5929 34.3245 46.3754 36.2004C42.1593 38.0792 40.0449 42.7069 41.6615 46.5155C42.2509 47.9049 43.2568 48.9974 44.5015 49.7336C46.671 51.0168 49.5671 51.218 52.2509 50.0257C56.4666 48.1466 58.5814 43.5192 56.9648 39.7096Z" fill="#F2F1F5"/>
</svg>
