<svg width="12" height="7" viewBox="0 0 12 7" fill="none" xmlns="http://www.w3.org/2000/svg">
<path d="M5.53176 0.19006L0.191706 5.49242C0.068097 5.61505 -4.53349e-08 5.77876 -3.88549e-08 5.95332C-3.23749e-08 6.12788 0.068097 6.29159 0.191706 6.41423L0.584873 6.80471C0.841066 7.0588 1.25745 7.0588 1.51326 6.80471L5.99751 2.35219L10.4867 6.80965C10.6104 6.93229 10.7751 7 10.9508 7C11.1267 7 11.2915 6.93229 11.4152 6.80965L11.8083 6.41917C11.9319 6.29643 12 6.13282 12 5.95826C12 5.7837 11.9319 5.61999 11.8083 5.49736L6.46336 0.19006C6.33936 0.0671321 6.1738 -0.000385602 5.9978 2.07548e-06C5.82112 -0.000385584 5.65566 0.0671322 5.53176 0.19006Z" fill="#9AAABA"/>
</svg>
