<svg width="13" height="7" viewBox="0 0 13 7" fill="none" xmlns="http://www.w3.org/2000/svg">
<path d="M0.129896 0.721589L0.781154 0.120313C0.867933 0.0400194 0.967898 -1.05188e-06 1.08091 -1.042e-06C1.19365 -1.03214e-06 1.29357 0.0400194 1.38035 0.120313L6.49993 4.84707L11.6193 0.12044C11.7061 0.0401468 11.806 0.000126207 11.9189 0.000126217C12.0318 0.000126226 12.1317 0.0401468 12.2185 0.120441L12.8697 0.721759C12.9567 0.801884 13 0.894142 13 0.998405C13 1.10258 12.9565 1.19484 12.8697 1.27497L6.79955 6.87977C6.71277 6.95994 6.61281 7 6.49993 7C6.38705 7 6.28727 6.95994 6.20054 6.87977L0.129896 1.27497C0.0431165 1.1948 1.81072e-06 1.10254 1.81985e-06 0.998404C1.82899e-06 0.89414 0.0431165 0.801883 0.129896 0.721589Z" fill="#303361"/>
</svg>
