<?xml version="1.0" standalone="no"?>
<!DOCTYPE svg PUBLIC "-//W3C//DTD SVG 20010904//EN"
 "http://www.w3.org/TR/2001/REC-SVG-20010904/DTD/svg10.dtd">
<svg version="1.0" xmlns="http://www.w3.org/2000/svg"
 width="200.000000pt" height="200.000000pt" viewBox="0 0 200.000000 200.000000"
 preserveAspectRatio="xMidYMid meet">

<g transform="translate(0.000000,200.000000) scale(0.100000,-0.100000)"
fill="#FBC500" stroke="none">
<path d="M195 1676 c-151 -70 -136 -294 22 -347 152 -50 291 109 224 257 -29
64 -81 98 -155 101 -37 2 -73 -2 -91 -11z"/>
<path d="M720 1617 c-13 -7 -35 -28 -48 -47 -41 -61 -15 -147 53 -176 52 -21
1063 -21 1105 1 65 34 89 109 55 175 -32 61 -22 60 -607 60 -406 0 -539 -3
-558 -13z"/>
<path d="M188 1170 c-61 -32 -92 -82 -96 -154 -4 -72 15 -114 72 -160 67 -55
189 -44 248 21 26 28 48 88 48 128 0 40 -22 100 -48 128 -50 56 -155 73 -224
37z"/>
<path d="M709 1107 c-48 -32 -68 -91 -48 -143 8 -22 29 -48 48 -61 l34 -23
528 0 c304 0 538 4 552 9 46 18 77 61 77 109 0 57 -21 96 -64 116 -30 14 -94
16 -564 16 l-529 0 -34 -23z"/>
<path d="M192 669 c-80 -40 -116 -119 -98 -214 8 -40 55 -99 97 -121 40 -20
127 -18 169 5 91 48 125 154 80 246 -44 92 -157 130 -248 84z"/>
<path d="M720 612 c-37 -20 -70 -72 -70 -110 0 -32 25 -76 56 -101 26 -21 34
-21 566 -21 583 0 576 -1 612 54 9 14 16 45 16 71 0 38 -6 52 -34 83 l-34 37
-539 3 c-508 2 -540 1 -573 -16z"/>
</g>
</svg>
