<svg width="15" height="15" viewBox="0 0 15 15" fill="none" xmlns="http://www.w3.org/2000/svg">
<path d="M2.94802 12.998C0.527247 10.8601 -0.104588 7.2824 1.43935 4.44485C3.45661 0.733599 8.17869 -0.317037 11.552 1.99411L12.6333 0.453053C12.6934 0.367439 12.8323 0.397051 12.867 0.50125L14.4049 5.05814C14.4303 5.13582 14.3758 5.2134 14.2941 5.21599L9.48586 5.31973C9.37608 5.32255 9.30285 5.19929 9.36105 5.11635L10.4405 3.57797C8.06254 1.96521 4.77475 2.64477 3.2569 5.14926C1.94964 7.30243 2.45566 10.149 4.42109 11.7238C6.50396 13.393 9.45067 13.1369 11.228 11.3096C11.558 10.9702 12.0877 10.9266 12.473 11.197C12.9519 11.533 13.0279 12.2213 12.6207 12.6423C10.0957 15.2506 5.84039 15.5507 2.94802 12.998Z" fill="white"/>
</svg>
