<svg width="15" height="15" viewBox="0 0 15 15" fill="none" xmlns="http://www.w3.org/2000/svg">
<path d="M2.94924 12.9962C0.528468 10.8583 -0.103367 7.28057 1.44057 4.44301C3.45783 0.731768 8.17991 -0.318868 11.5532 1.99228L12.6345 0.451222C12.6946 0.365608 12.8336 0.39522 12.8682 0.499419L14.4061 5.05631C14.4315 5.13398 14.377 5.21157 14.2954 5.21416L9.48708 5.3179C9.3773 5.32072 9.30407 5.19746 9.36227 5.11452L10.4418 3.57614C8.06376 1.96338 4.77597 2.64294 3.25812 5.14743C1.95086 7.30059 2.45688 10.1472 4.42231 11.722C6.50518 13.3912 9.4519 13.1351 11.2292 11.3078C11.5592 10.9684 12.0889 10.9248 12.4742 11.1952C12.9531 11.5312 13.0291 12.2194 12.6219 12.6404C10.0969 15.2487 5.84161 15.5488 2.94924 12.9962Z" fill="#303361"/>
</svg>
