<?xml version="1.0" standalone="no"?>
<!DOCTYPE svg PUBLIC "-//W3C//DTD SVG 20010904//EN"
 "http://www.w3.org/TR/2001/REC-SVG-20010904/DTD/svg10.dtd">
<svg version="1.0" xmlns="http://www.w3.org/2000/svg"
 width="200.000000pt" height="200.000000pt" viewBox="0 0 200.000000 200.000000"
 preserveAspectRatio="xMidYMid meet">

<g transform="translate(0.000000,200.000000) scale(0.100000,-0.100000)"
fill="#FBC500" stroke="none">
<path d="M170 1891 c-19 -10 -44 -34 -55 -52 -19 -32 -20 -52 -20 -331 0 -285
1 -298 21 -325 11 -15 36 -38 54 -50 32 -23 39 -23 325 -23 286 0 293 0 325
23 18 12 43 35 54 50 20 27 21 40 21 325 0 426 24 402 -402 402 -262 0 -291
-2 -323 -19z"/>
<path d="M1183 1894 c-18 -9 -42 -31 -53 -49 -19 -31 -20 -49 -20 -338 l0
-305 27 -33 c48 -56 64 -59 376 -59 278 0 285 0 317 23 18 12 43 35 54 50 20
27 21 40 21 325 0 427 25 402 -400 402 -245 0 -295 -3 -322 -16z"/>
<path d="M169 879 c-73 -43 -74 -48 -74 -381 0 -285 1 -298 21 -325 11 -15 36
-38 55 -51 33 -23 34 -23 337 -20 l303 3 39 41 c49 53 53 79 48 399 -3 239 -4
252 -26 286 -41 66 -55 69 -379 69 -274 0 -290 -1 -324 -21z"/>
<path d="M1184 881 c-17 -10 -40 -31 -52 -46 -21 -27 -22 -35 -22 -336 l0
-308 30 -34 c50 -57 58 -58 381 -55 411 4 384 -24 384 398 0 424 24 400 -402
400 -264 0 -291 -2 -319 -19z"/>
</g>
</svg>
