<svg width="22" height="20" viewBox="0 0 22 20" fill="none" xmlns="http://www.w3.org/2000/svg">
<path d="M15.762 0.893492C13.9268 0.883684 12.1821 1.68968 11 3.09347C9.82523 1.68008 8.07572 0.871798 6.23794 0.893492C2.79281 0.893492 0 3.6863 0 7.13143C0 13.0353 10.3038 18.7998 10.7215 19.0226C10.8901 19.1352 11.1099 19.1352 11.2785 19.0226C11.6962 18.7998 22 13.1188 22 7.13143C22 3.6863 19.2071 0.893492 15.762 0.893492ZM11 17.9087C9.38479 16.9618 1.11393 11.9213 1.11393 7.13143C1.11393 4.30152 3.40803 2.00736 6.23799 2.00736C7.97098 1.9846 9.59278 2.85872 10.5266 4.31874C10.7162 4.58019 11.0819 4.63845 11.3434 4.4488C11.3933 4.41255 11.4372 4.36869 11.4734 4.31874C13.0221 1.95022 16.1977 1.28564 18.5662 2.83436C20.0162 3.78246 20.8889 5.39898 20.886 7.13138C20.8861 11.977 12.6152 16.9897 11 17.9087Z" fill="white"/>
</svg>
