<svg width="27" height="27" viewBox="0 0 27 27" fill="none" xmlns="http://www.w3.org/2000/svg">
<path d="M23.046 3.84319C20.4962 1.36489 17.1059 0 13.5 0C9.89388 0 6.50384 1.36489 3.95405 3.84319C1.40426 6.32149 0 9.61648 0 13.1215C0 16.6263 1.40426 19.9215 3.95405 22.3998C6.50384 24.8781 9.89388 26.243 13.5 26.243C17.1059 26.243 20.4962 24.8781 23.046 22.3998C25.5957 19.9215 27 16.6263 27 13.1215C27 9.61648 25.5957 6.32149 23.046 3.84319ZM6.76792 22.6749C7.33255 19.5151 10.1497 17.1843 13.5 17.1843C16.8505 17.1843 19.6674 19.5151 20.2321 22.6749C18.3153 23.9549 15.9962 24.7053 13.5 24.7053C11.0038 24.7053 8.68469 23.9549 6.76792 22.6749ZM9.2075 11.4745C9.2075 9.17379 11.1331 7.30236 13.5 7.30236C15.8669 7.30236 17.7925 9.174 17.7925 11.4745C17.7925 13.775 15.8669 15.6466 13.5 15.6466C11.1331 15.6466 9.2075 13.775 9.2075 11.4745ZM21.6023 21.6083C21.1766 20.1373 20.331 18.8027 19.1457 17.7601C18.4185 17.1205 17.5908 16.6157 16.7009 16.2599C18.3093 15.2402 19.3747 13.4761 19.3747 11.4745C19.3747 8.32607 16.7393 5.76468 13.5 5.76468C10.2607 5.76468 7.62547 8.32607 7.62547 11.4745C7.62547 13.4761 8.69087 15.2402 10.2991 16.2599C9.40938 16.6157 8.58149 17.1203 7.85433 17.7599C6.66925 18.8025 5.82344 20.1371 5.39765 21.6081C3.05241 19.4912 1.58203 16.4703 1.58203 13.1215C1.58203 6.73414 6.92839 1.53768 13.5 1.53768C20.0716 1.53768 25.418 6.73414 25.418 13.1215C25.418 16.4705 23.9476 19.4914 21.6023 21.6083Z" fill="#303361"/>
</svg>
