<svg width="27" height="27" viewBox="0 0 27 27" fill="none" xmlns="http://www.w3.org/2000/svg">
<path d="M8.69911 17.4553H8.70035C8.70138 17.4553 8.70241 17.4551 8.70344 17.4551H23.0449C23.398 17.4551 23.7084 17.2209 23.8055 16.8814L26.9695 5.80717C27.0377 5.56843 26.9899 5.31176 26.8406 5.11359C26.691 4.91543 26.4572 4.79884 26.209 4.79884H6.87483L6.30938 2.2542C6.22884 1.89227 5.9079 1.63477 5.53711 1.63477H0.791016C0.354103 1.63477 0 1.98888 0 2.42579C0 2.8627 0.354103 3.2168 0.791016 3.2168H4.90265C5.00276 3.66772 7.60858 15.3941 7.75854 16.0687C6.91788 16.4342 6.32812 17.2724 6.32812 18.2461C6.32812 19.5546 7.3927 20.6191 8.70117 20.6191H23.0449C23.4818 20.6191 23.8359 20.265 23.8359 19.8281C23.8359 19.3912 23.4818 19.0371 23.0449 19.0371H8.70117C8.26508 19.0371 7.91016 18.6822 7.91016 18.2461C7.91016 17.8106 8.26385 17.4563 8.69911 17.4553V17.4553ZM25.1603 6.38087L22.4482 15.8731H9.33563L7.22626 6.38087H25.1603Z" fill="#303361"/>
<path d="M7.9101 22.9921C7.9101 24.3006 8.97467 25.3652 10.2831 25.3652C11.5916 25.3652 12.6562 24.3006 12.6562 22.9921C12.6562 21.6837 11.5916 20.6191 10.2831 20.6191C8.97467 20.6191 7.9101 21.6837 7.9101 22.9921ZM10.2831 22.2011C10.7192 22.2011 11.0742 22.556 11.0742 22.9921C11.0742 23.4282 10.7192 23.7831 10.2831 23.7831C9.84705 23.7831 9.49213 23.4282 9.49213 22.9921C9.49213 22.556 9.84705 22.2011 10.2831 22.2011Z" fill="#303361"/>
<path d="M19.0897 22.9921C19.0897 24.3006 20.1542 25.3652 21.4627 25.3652C22.7712 25.3652 23.8358 24.3006 23.8358 22.9921C23.8358 21.6837 22.7712 20.6191 21.4627 20.6191C20.1542 20.6191 19.0897 21.6837 19.0897 22.9921ZM21.4627 22.2011C21.8988 22.2011 22.2537 22.556 22.2537 22.9921C22.2537 23.4282 21.8988 23.7831 21.4627 23.7831C21.0266 23.7831 20.6717 23.4282 20.6717 22.9921C20.6717 22.556 21.0266 22.2011 21.4627 22.2011Z" fill="#303361"/>
</svg>
