<svg width="18" height="16" viewBox="0 0 18 16" fill="none" xmlns="http://www.w3.org/2000/svg">
<path d="M0 1.81819C0 1.01528 0.651636 0.363647 1.45455 0.363647H16.5455C17.3484 0.363647 18 1.01528 18 1.81819C18 2.6211 17.3484 3.27274 16.5455 3.27274H1.45455C0.651636 3.27274 0 2.6211 0 1.81819ZM16.5455 6.54547H1.45455C0.651636 6.54547 0 7.1971 0 8.00001C0 8.80292 0.651636 9.45456 1.45455 9.45456H16.5455C17.3484 9.45456 18 8.80292 18 8.00001C18 7.1971 17.3491 6.54547 16.5455 6.54547ZM16.5455 12.7273H1.45455C0.651636 12.7273 0 13.3789 0 14.1818C0 14.9847 0.651636 15.6364 1.45455 15.6364H16.5455C17.3484 15.6364 18 14.9847 18 14.1818C18 13.3789 17.3491 12.7273 16.5455 12.7273Z" fill="#303361"/>
</svg>
