<svg width="22" height="22" viewBox="0 0 22 22" fill="none" xmlns="http://www.w3.org/2000/svg">
<rect width="22" height="22" fill="#E5E5E5"/>
<rect x="-1042" y="-7" width="1920" height="36" fill="#FAF9FE"/>
<path d="M11 0C4.9347 0 0 4.9347 0 11C0 17.0653 4.9347 22 11 22C17.0653 22 22 17.0653 22 11C22 4.9347 17.0653 0 11 0ZM2.29165 11.4583H1.375C1.12166 11.4583 0.916652 11.2533 0.916652 11C0.916652 10.7467 1.12166 10.5417 1.375 10.5417H2.29165C2.545 10.5417 2.75 10.7467 2.75 11C2.75 11.2533 2.545 11.4583 2.29165 11.4583ZM10.5417 1.375C10.5417 1.12166 10.7467 0.916652 11 0.916652C11.2533 0.916652 11.4583 1.12166 11.4583 1.375V2.29165C11.4583 2.545 11.2533 2.75 11 2.75C10.7467 2.75 10.5417 2.545 10.5417 2.29165V1.375ZM11.4583 20.625C11.4583 20.8783 11.2533 21.0833 11 21.0833C10.7467 21.0833 10.5417 20.8783 10.5417 20.625V19.7083C10.5417 19.455 10.7467 19.25 11 19.25C11.2533 19.25 11.4583 19.455 11.4583 19.7083V20.625ZM15.4491 15.4491C15.3596 15.5386 15.2423 15.5833 15.125 15.5833C15.0077 15.5833 14.8905 15.5386 14.8009 15.4491L11.2234 11.8715C11.15 11.8904 11.0792 11.9167 11 11.9167C10.4947 11.9167 10.0833 11.5054 10.0833 11C10.0833 10.5253 10.4508 10.1465 10.9138 10.1008L13.793 3.93121C13.9004 3.70249 14.1734 3.60448 14.4021 3.70966C14.6318 3.81666 14.7307 4.08968 14.6237 4.31883L11.7425 10.4925C11.8437 10.6399 11.9167 10.8081 11.9167 11C11.9167 11.0791 11.8904 11.15 11.8714 11.2234L15.449 14.8009C15.6281 14.98 15.6281 15.27 15.4491 15.4491ZM20.625 11.4583H19.7083C19.455 11.4583 19.25 11.2533 19.25 11C19.25 10.7467 19.455 10.5417 19.7083 10.5417H20.625C20.8783 10.5417 21.0833 10.7467 21.0833 11C21.0833 11.2533 20.8783 11.4583 20.625 11.4583Z" fill="#303361"/>
</svg>
