<svg width="26" height="21" viewBox="0 0 26 21" fill="none" xmlns="http://www.w3.org/2000/svg">
<path d="M12.2154 3.37791L13 4.371L13.7846 3.37793C14.9239 1.93602 16.7211 1 18.7527 1C22.2306 1 25.0001 3.73114 25 7.03929C25 10.9284 22.1047 14.1579 18.9073 16.5106C17.3382 17.6651 15.7629 18.5586 14.5766 19.1641C13.9848 19.4662 13.4929 19.695 13.1513 19.8474C13.098 19.8711 13.0484 19.893 13.0027 19.913C12.9567 19.8926 12.9067 19.8703 12.853 19.8461C12.5112 19.6917 12.0191 19.46 11.4269 19.1548C10.2402 18.543 8.66412 17.642 7.09425 16.482C3.89319 14.1169 1 10.8877 1 7.03931C1 3.73112 3.76938 1 7.24734 1C9.27894 1 11.0761 1.93603 12.2154 3.37791Z" stroke="#303361" stroke-width="2"/>
</svg>
