<svg width="31" height="27" viewBox="0 0 31 27" fill="none" xmlns="http://www.w3.org/2000/svg">
<path d="M1.78307 9.81689C1.61241 10.0193 1.45565 10.2237 1.31079 10.438C1.33262 10.4459 1.35445 10.4539 1.37429 10.4598C1.39413 10.4261 1.44176 10.3884 1.45565 10.3606C1.47351 10.3249 1.54494 10.2693 1.54494 10.2157C1.54494 10.18 1.58066 10.1979 1.59852 10.18C1.65408 10.0709 1.6898 9.96374 1.78108 9.90817C1.76322 9.85261 1.83664 9.83475 1.78307 9.81689Z" fill="#FFC600"/>
<path d="M8.31545 3.65163C8.27973 3.28849 8.15075 2.9452 8.09717 2.6912C8.06145 2.58207 7.95231 2.38165 7.91461 2.32807C7.89675 2.30823 7.84317 2.27251 7.82531 2.23679C7.71617 2.07407 7.62688 1.82008 7.55346 1.69506C7.51774 1.65935 7.46416 1.60378 7.46416 1.56608C7.4463 1.47679 7.31931 1.45893 7.31931 1.38551C7.31931 1.32994 7.30145 1.36566 7.28359 1.32994C7.19429 1.20295 7.02959 1.09381 6.95815 1.02237C6.92244 0.966809 6.92244 0.913232 6.86886 0.877513C6.84902 0.877513 6.88672 0.804092 6.86886 0.788218C6.83314 0.732656 6.724 0.696938 6.6863 0.659235C6.66844 0.641376 6.70614 0.587799 6.6863 0.56994C6.66844 0.55208 6.61288 0.589783 6.597 0.56994C6.56129 0.534221 6.54343 0.496519 6.50771 0.480644C6.39857 0.391349 6.36285 0.407223 6.19815 0.391349C6.05925 0.377458 5.88066 0.339756 5.71794 0.329834C6.11878 0.87156 6.27356 1.54624 6.17037 2.19313C6.17037 2.30029 6.16839 2.43919 6.14457 2.56619C5.96201 4.08818 5.60086 5.77488 5.2913 7.18773C5.25559 7.35243 5.18217 7.62429 5.14645 7.73144C5.14645 7.75129 5.14645 7.76716 5.14645 7.76716C5.14645 7.82272 5.11073 7.80288 5.11073 7.82272C5.07501 7.91202 5.09287 8.02116 5.05715 8.13029C4.98373 8.45771 4.91229 8.76529 4.84086 9.0927C4.76744 9.38242 4.6583 9.74357 4.6583 9.99955C4.6583 10.0333 4.60472 10.0333 4.60472 10.0333C4.58488 10.1623 4.58488 10.2873 4.569 10.3984C4.51344 10.5968 4.44002 10.7774 4.42415 10.9421C4.42415 10.9957 4.38843 10.9758 4.38843 10.9957C4.35271 11.1048 4.37057 11.2318 4.33485 11.3588C4.33485 11.3588 4.29913 11.3767 4.29913 11.3945C4.27929 11.468 4.26341 11.5037 4.24357 11.5394C4.22571 11.6108 4.20785 11.6823 4.20785 11.72C4.17213 11.843 4.15427 11.8113 4.12252 11.8966C4.13245 11.8966 4.15427 11.9244 4.15427 11.9383C4.15427 11.9383 4.08085 12.0275 4.06498 12.0275C4.00942 12.1168 3.936 12.3173 3.936 12.353C3.936 12.4085 3.90226 12.3728 3.88242 12.3887C3.82884 12.4978 3.809 12.5336 3.75542 12.5713C3.73558 12.5891 3.75542 12.6606 3.75542 12.6606C3.73558 12.6804 3.682 12.6606 3.66613 12.6606C3.64628 12.6804 3.63041 12.7499 3.61056 12.7499C3.57485 12.7856 3.52127 12.8233 3.48357 12.8411C3.19385 13.0396 2.75928 13.1844 2.34058 13.1666C2.32272 13.0038 2.36043 12.8213 2.39614 12.6586C2.414 12.4959 2.46758 12.2061 2.52314 12.1704C2.541 12.1506 2.52314 12.097 2.52314 12.0791C2.61244 11.8807 2.77714 11.4442 2.88628 11.3549C2.90414 11.337 2.88628 11.2814 2.88628 11.2656C2.88628 11.2656 2.922 11.2656 2.93985 11.2656C2.93985 11.2457 2.922 11.1921 2.93985 11.1743H2.97557C2.99542 11.1564 2.97557 11.1028 2.97557 11.085C2.99542 11.0493 3.04899 11.0314 3.06685 10.9957V10.9421C3.06685 10.9064 3.10059 10.9223 3.12043 10.9064C3.12638 10.8965 3.12837 10.8866 3.13432 10.8766C3.11646 10.8766 3.0986 10.8786 3.08074 10.8766C3.04701 10.8746 3.01328 10.8707 2.97954 10.8687C2.93787 10.952 2.90811 11.0294 2.84858 11.1227C2.83072 11.1425 2.81286 11.1227 2.795 11.1227C2.77515 11.1425 2.81286 11.212 2.795 11.212C2.77515 11.2477 2.73944 11.2675 2.70372 11.3033C2.56084 11.5731 2.414 11.8827 2.30486 12.1744C2.25129 12.2637 2.21557 12.355 2.21557 12.4462C2.21557 12.48 2.16199 12.48 2.16199 12.48C2.12627 12.609 2.12627 12.6447 2.12627 12.7518C2.10643 12.8253 2.09056 12.861 2.07071 12.8967C2.07071 12.9324 2.14413 13.1507 1.98142 13.113C1.98142 13.0415 1.87228 13.0793 1.89212 12.986C1.87228 12.7141 1.98142 12.4978 1.98142 12.2974C1.98142 12.2617 2.01713 12.2776 2.03499 12.2617C2.07071 12.1347 2.07071 12.0077 2.12627 11.8986C2.12627 11.8787 2.16199 11.8787 2.16199 11.843C2.21557 11.7359 2.26915 11.5712 2.30486 11.5354C2.34058 11.4799 2.39614 11.3906 2.39614 11.3529C2.39614 11.2795 2.46758 11.2795 2.48544 11.208C2.48544 11.1723 2.54299 11.0711 2.5787 11.0016C2.5787 10.9739 2.57672 10.831 2.59259 10.7913C2.60648 10.7576 2.62038 10.7238 2.63823 10.6921C2.67395 10.5909 2.75531 10.5393 2.81087 10.4361C2.82675 10.4163 2.79698 10.3647 2.795 10.3468C2.79103 10.3289 2.87636 10.2932 2.87239 10.2754C3.01129 10.0293 3.09463 9.79119 3.29902 9.60466C3.28315 9.56894 3.32482 9.53323 3.3526 9.50346C3.35458 9.48759 3.35657 9.47171 3.35855 9.45584C3.35061 9.45385 3.34268 9.44988 3.3268 9.44988C3.15615 9.72174 2.94184 9.94597 2.76722 10.202C2.71166 10.3032 2.62434 10.4143 2.59855 10.4738C2.56878 10.5155 2.59656 10.5651 2.5668 10.6087C2.54695 10.6564 2.49139 10.7 2.44972 10.7476C2.43583 10.7437 2.40011 10.7457 2.39614 10.7516C2.28701 10.8965 2.25129 11.0612 2.12429 11.1683C2.12429 11.2239 2.08857 11.2775 2.06873 11.204C2.06873 11.204 2.06873 11.1862 2.06873 11.1683C2.10445 11.1683 2.12429 11.1683 2.12429 11.1148C2.17787 11.0413 2.21358 10.8985 2.25129 10.8052C2.26915 10.7695 2.24335 10.7476 2.26121 10.6762C2.26319 10.6722 2.26518 10.6703 2.26716 10.6663C2.34852 10.5214 2.41202 10.3607 2.49338 10.2178C2.71959 9.84279 2.9974 9.47568 3.21568 9.15819C3.27719 9.0927 3.37443 9.0173 3.3149 8.90022C3.21965 8.88038 3.15416 8.83871 3.10257 8.75735C2.98351 8.70576 2.92596 8.79108 2.84461 8.86053C2.76325 8.91411 2.75134 9.13636 2.63625 9.0292C2.65212 9.00936 2.71364 8.84863 2.60252 8.8526C2.44178 8.88236 2.66602 8.69186 2.54299 8.73354C2.39813 8.65218 2.59855 8.44581 2.47552 8.37834C2.22946 8.3327 2.07071 8.47557 2.00126 8.59662C1.98538 8.61844 1.92982 8.61051 1.90998 8.61448C1.8822 8.65615 1.84251 8.73949 1.81275 8.78116C1.76711 8.8268 1.68178 8.86053 1.65201 8.90419C1.60439 8.94983 1.57859 9.01134 1.53295 9.05698C1.44167 9.16612 1.35238 9.27526 1.28094 9.38242C1.18966 9.51735 1.09441 9.68007 0.999165 9.83882C0.991228 9.83286 0.98329 9.82691 0.975353 9.81897C0.92376 9.90232 0.905901 9.94002 0.854308 9.9936C0.838433 10.0095 0.850339 10.0511 0.852323 10.075C0.844386 10.0888 0.834464 10.1027 0.826527 10.1166C0.788824 10.1543 0.737231 10.1821 0.709451 10.2119V10.2655C0.709451 10.2734 0.707466 10.2774 0.705482 10.2833C0.701513 10.2873 0.697545 10.2932 0.693576 10.2972C0.683654 10.2992 0.671748 10.2932 0.671748 10.3032C0.562609 10.5393 0.489188 10.7754 0.346315 10.9024C0.326472 10.9203 0.36219 10.9719 0.346315 10.9917H0.310597C0.294722 10.9917 0.264957 11.0989 0.255036 11.1187C0.237177 11.1921 0.255036 11.1921 0.221302 11.208C0.201458 11.2279 0.221302 11.2993 0.221302 11.2993C0.201458 11.3172 0.16574 11.2993 0.16574 11.2993C0.147881 11.3172 0.16574 11.3886 0.16574 11.3886C0.130022 11.4977 0.112163 11.6049 0.0764443 11.6247C0.0764443 11.6247 0.0764443 11.6981 0.0764443 11.714C0.0566009 11.8966 0.020883 11.9859 0.0407264 12.1129C0.0407264 12.2419 0.114147 12.5316 0.130022 12.5673C0.130022 12.6407 0.16574 12.6764 0.16574 12.7102C0.185583 12.73 0.16574 12.7836 0.16574 12.8014C0.185583 12.8193 0.239161 12.8749 0.255036 12.8907C0.290754 12.9265 0.274879 12.98 0.310597 13.0177C0.328456 13.0535 0.364175 13.0912 0.399893 13.107C0.435611 13.1626 0.45347 13.1983 0.489188 13.2519C0.562609 13.361 0.687623 13.488 0.761044 13.5614C0.780887 13.615 0.796762 13.6706 0.852323 13.7063C0.886057 13.742 0.941619 13.7242 0.979322 13.742C1.06862 13.8135 1.06862 13.9226 1.1599 13.9226C1.23332 13.9424 1.23332 14.0119 1.30475 14.0119C1.34047 14.0317 1.32261 14.0476 1.34047 14.0675C1.39405 14.1032 1.46747 14.0853 1.52303 14.1032C1.52303 14.121 1.55677 14.1389 1.57661 14.1568C1.70361 14.2302 1.88617 14.3016 2.02904 14.2838C2.0846 14.3393 2.10246 14.375 2.15802 14.4286C2.22946 14.4822 2.32074 14.5556 2.3386 14.5556C2.39416 14.5754 2.35844 14.5913 2.39416 14.6112C2.50131 14.6826 2.66403 14.8275 2.7573 14.8275C2.83072 14.8473 2.86445 14.9168 2.93787 14.9168C2.97359 14.9366 2.95771 14.9525 2.97359 14.9723C3.10059 15.0259 3.26529 15.0616 3.39229 15.0993C3.70184 15.2263 3.98957 15.3533 4.24357 15.3712C4.58885 15.4247 5.00556 15.3712 5.20598 15.3355C5.33298 15.2997 5.51355 15.2462 5.56911 15.1906C5.56911 15.1906 5.64253 15.2104 5.65841 15.1906C5.65841 15.1906 5.64055 15.1549 5.65841 15.1549C5.65841 15.137 5.76755 15.1192 5.78541 15.1013C5.84097 15.0834 5.87669 15.0477 5.93026 15.012C6.00368 14.9564 6.01956 14.9386 6.05726 14.883C6.07711 14.8652 6.13068 14.9029 6.14854 14.883C6.20212 14.8493 6.27554 14.7759 6.29141 14.7402C6.32713 14.7044 6.36484 14.5953 6.41841 14.5219C6.50969 14.3949 6.60097 14.1964 6.65455 14.1052C6.67439 14.0694 6.67439 14.0317 6.69027 13.9782C6.72599 13.869 6.76369 13.7956 6.78155 13.7063C6.79941 13.6706 6.83512 13.6706 6.83512 13.6507C6.87084 13.5079 6.8887 13.361 6.92442 13.1983C6.94426 13.107 6.99784 13.0158 7.01372 12.9265C7.03356 12.8173 7.03356 12.6903 7.04943 12.5633C7.08515 12.3649 7.15857 12.1645 7.19429 11.9819C7.23001 11.7458 7.24787 11.5295 7.28359 11.2933C7.30343 11.2021 7.35701 10.9659 7.37487 10.9302C7.41059 10.7476 7.39273 10.6762 7.41059 10.5294C7.42844 10.4579 7.4463 10.4401 7.46416 10.3865C7.5733 9.62451 7.7003 8.88236 7.8273 8.17395C7.86302 7.95567 7.90072 7.7751 7.91659 7.57666C7.91659 7.54095 7.95231 7.54095 7.95231 7.54095C7.97216 7.48538 7.95231 7.41196 7.95231 7.35838C7.97216 7.19567 8.02573 7.04883 8.04359 6.90595C8.09717 6.61426 8.15075 6.27096 8.18646 6.0884C8.20631 5.92569 8.20631 5.87013 8.22218 5.76297C8.31545 5.15775 8.36902 4.30646 8.31545 3.65163ZM0.300676 12.3907C0.191537 12.3371 0.280832 12.0811 0.245114 11.9383C0.280832 11.9383 0.280832 11.9561 0.300676 11.9918C0.318535 12.1545 0.374096 12.2478 0.300676 12.3907ZM1.76909 10.5472C1.73933 10.5889 1.76909 10.6385 1.73933 10.6822C1.70162 10.7814 1.64408 10.8667 1.60439 10.9481C1.57859 11.0076 1.56867 11.0473 1.53891 11.089C1.51708 11.1663 1.49525 11.2457 1.45953 11.3449C1.44763 11.3846 1.48136 11.4442 1.47144 11.5831C1.44763 11.7398 1.38611 11.9363 1.38611 12.1208C1.36825 12.357 1.42183 12.5752 1.47739 12.8114C1.33254 12.7915 1.31269 12.6844 1.24126 12.5752C1.24126 12.5752 1.14998 12.5554 1.14998 12.5395C1.11426 12.4661 1.13212 12.4304 1.11426 12.357C1.0964 12.3391 1.06068 12.1585 1.11426 11.9938C1.11426 11.9402 1.20554 11.7398 1.24324 11.6307C1.2611 11.5573 1.2611 11.5037 1.29682 11.4481C1.29682 11.4124 1.37024 11.3747 1.38611 11.3588C1.42183 11.2854 1.38611 11.2318 1.42183 11.1763C1.44167 11.1425 1.49525 11.1048 1.51311 11.087C1.54684 11.0135 1.53097 10.9778 1.56669 10.9064C1.56669 10.8866 1.60241 10.9064 1.60241 10.8508C1.60241 10.7973 1.6798 10.4996 1.73139 10.4063C1.92784 10.0472 2.16398 9.75349 2.33463 9.45981C2.42789 9.46179 2.22152 9.74158 2.18382 9.82294C2.12627 9.90628 2.02507 10.0551 1.97348 10.1742C1.93379 10.2555 1.91593 10.3528 1.87426 10.4321C1.86632 10.4718 1.77901 10.5075 1.76909 10.5472ZM5.10478 13.0812C5.23376 12.863 5.34091 12.3907 5.41433 12.0831C5.45005 11.976 5.48775 11.8668 5.50363 11.7577C5.53935 11.6307 5.52347 11.5215 5.55919 11.3945C5.55919 11.3945 5.59491 11.3945 5.59491 11.3588C5.59491 11.2497 5.61277 11.214 5.64849 11.087C5.66833 10.9778 5.66833 10.833 5.6842 10.7238C5.6842 10.7238 5.73778 10.7238 5.73778 10.6703C5.73778 10.5611 5.75763 10.5254 5.7735 10.3984C6.00964 9.18398 6.24577 7.86042 6.49977 6.58846C6.57319 6.26303 6.66249 5.93759 6.73591 5.59232C6.75377 5.48318 6.75377 5.35618 6.77163 5.22918C6.77163 5.22918 6.8252 5.22918 6.8252 5.19346C6.8252 4.97717 6.9145 4.64975 6.9522 4.37591V4.28662C7.0792 3.81434 7.15064 3.00076 7.18834 2.38363V2.23877C7.22406 2.25862 7.26176 2.29434 7.27763 2.33005C7.35105 2.51063 7.31335 2.70906 7.31335 2.87178C7.3332 3.56233 7.23993 4.17748 7.13278 4.83033C6.93434 6.02689 6.67836 7.24131 6.40651 8.45771C6.40651 8.47557 6.42635 8.51129 6.40651 8.54701C6.40651 8.58273 6.37079 8.58273 6.37079 8.58273C6.31721 8.79902 6.31721 9.03516 6.28149 9.27129C6.1922 9.67015 6.08306 10.1047 6.00964 10.5413C5.97392 10.6861 5.95606 10.833 5.92034 10.9957C5.90248 11.0314 5.92034 11.0493 5.92034 11.085C5.86676 11.2477 5.79334 11.6108 5.73778 11.847C5.71992 11.9025 5.70206 11.9383 5.6842 11.9918C5.6842 12.0275 5.64849 12.0275 5.64849 12.0275C5.61277 12.1545 5.63063 12.2458 5.59491 12.353C5.59491 12.3728 5.55919 12.353 5.55919 12.3887C5.55919 12.4244 5.48577 12.5514 5.46791 12.6248C5.45005 12.6606 5.43418 12.7141 5.41433 12.7518C5.39647 12.7876 5.34091 12.8253 5.32504 12.8431C5.30519 12.8967 5.30519 12.9324 5.28932 12.986C5.23574 13.0773 5.1266 13.1685 5.05318 13.2955C4.9619 13.2817 5.0512 13.1348 5.10478 13.0812ZM2.78508 13.2082C2.80294 13.1527 2.91207 13.1884 2.96565 13.1725C3.14821 13.117 3.29307 13.0098 3.47364 12.99C3.32879 13.1527 3.07479 13.1884 2.78508 13.2082ZM5.46791 13.9325C5.45005 13.9682 5.41433 13.9325 5.41433 13.9881C5.41433 14.0417 5.34091 14.0417 5.32504 14.0774C5.25162 14.1865 5.26948 14.2203 5.14248 14.2937C5.10676 14.3294 5.12462 14.3294 5.10676 14.3492C5.07104 14.3671 5.03532 14.4227 5.01746 14.4385C4.99961 14.4564 4.92817 14.4207 4.92817 14.4385C4.90833 14.4385 4.92817 14.4742 4.92817 14.4742C4.90833 14.4921 4.83887 14.4742 4.83887 14.4742C4.78331 14.5477 4.40232 14.6905 4.29516 14.7104C3.86059 14.764 3.46174 14.6747 3.11646 14.4742C3.17004 14.4008 3.29902 14.4008 3.38832 14.385C3.56889 14.3651 3.78717 14.385 4.05903 14.3492C4.76545 14.258 5.27345 13.9305 5.60086 13.4781C5.63658 13.4781 5.65444 13.496 5.65444 13.5317C5.59491 13.6607 5.53935 13.8055 5.46791 13.9325ZM7.95231 5.19346C7.88088 5.5189 7.80944 6.06459 7.73602 6.49916C7.7003 6.6976 7.62688 6.89802 7.59116 7.09645C7.53758 7.36831 7.51774 7.60444 7.46416 7.85844C7.41059 8.07473 7.33716 8.50931 7.2816 8.7633C7.26374 8.79902 7.2816 8.83672 7.2816 8.85458C7.26374 8.8903 7.22802 8.90816 7.22802 8.90816C7.19231 9.12644 7.19231 9.36257 7.13873 9.57887C7.13873 9.57887 7.10301 9.61458 7.10301 9.63244C7.06729 9.7773 7.04745 9.97772 7.01173 10.1762C6.84902 10.9937 6.70416 11.7736 6.50572 12.5713C6.4323 12.8808 6.37674 13.1507 6.28745 13.4424C6.25173 13.5515 6.19815 13.6785 6.14457 13.7519C6.10885 13.8055 6.08901 13.8412 6.05329 13.8948C6.01757 13.9504 5.99972 14.0397 5.964 14.0774C5.89058 14.1865 5.74572 14.2203 5.69214 14.3492C5.63857 14.3492 5.61872 14.3492 5.60285 14.385C5.54728 14.3651 5.60285 14.3492 5.60285 14.2937C5.74572 14.1508 5.80128 13.9147 5.92828 13.7142C5.964 13.6587 6.01757 13.4781 6.05528 13.3491C6.07512 13.2777 6.1287 13.2063 6.14656 13.113C6.25371 12.7141 6.36285 12.2438 6.47199 11.7537C6.50771 11.5374 6.56129 11.337 6.59899 11.1187C6.63471 10.9024 6.68828 10.6663 6.74384 10.448C6.77956 10.2119 6.77956 9.99558 6.83314 9.75944C6.83314 9.75944 6.86886 9.75944 6.86886 9.72372C6.88672 9.61458 6.88672 9.57887 6.92244 9.45187C6.94228 9.34273 6.94228 9.19787 6.95815 9.08873C6.95815 9.08873 7.01173 9.08873 7.01173 9.03317C7.01173 8.92602 7.03158 8.8903 7.04745 8.76132C7.06729 8.67202 7.08317 8.56288 7.10301 8.45374C7.10301 8.45374 7.13873 8.45374 7.13873 8.39818C7.15659 8.28904 7.15659 8.25531 7.19231 8.12633C7.21215 8.01917 7.21215 7.89019 7.22802 7.76319C7.22802 7.76319 7.2816 7.76319 7.2816 7.72747C7.2816 7.56476 7.31732 7.34846 7.37288 7.13019C7.42646 6.85833 7.48004 6.56862 7.55346 6.2789C7.55346 6.24318 7.5356 6.20548 7.55346 6.18762C7.6626 5.73519 7.75189 5.0109 7.82531 4.40965C7.86103 3.9215 7.88088 3.43137 7.86103 2.92337C7.98803 3.05037 7.98803 3.24881 8.00589 3.3758C8.07931 3.91951 8.00589 4.48108 7.95033 5.09822C7.95231 5.12004 7.97017 5.15775 7.95231 5.19346Z" fill="#FFC600"/>
<path d="M19.6758 24.4952V24.9079C19.6758 25.4258 19.2532 25.8485 18.7353 25.8485C18.2173 25.8485 17.7947 25.4258 17.7947 24.9079V24.4952C18.009 24.4337 18.2114 24.3384 18.3999 24.2114C18.4158 24.1995 18.4316 24.1896 18.4495 24.1816V24.6003C18.4495 24.7591 18.5765 24.8861 18.7353 24.8861C18.892 24.8861 19.019 24.7591 19.019 24.6003V24.1816C19.0369 24.1896 19.0547 24.1995 19.0706 24.2114C19.2571 24.3384 19.4615 24.4337 19.6758 24.4952Z" fill="#EC7843"/>
<path d="M19.3841 22.1755L18.7908 22.7292C18.7828 22.7371 18.7769 22.7431 18.7709 22.751C18.7451 22.7788 18.7154 22.7827 18.6975 22.7808C18.6816 22.7808 18.6519 22.7768 18.6281 22.747C18.6221 22.7411 18.6181 22.7351 18.6122 22.7292L18.0844 22.1815C18.0506 22.1339 18.0347 22.0783 18.0467 22.0386C18.0526 22.0168 18.0705 21.9533 18.1657 21.9374C18.259 21.9196 18.3979 21.9592 18.4931 22.0862C18.5507 22.1617 18.64 22.2053 18.7352 22.2053C18.8305 22.2053 18.9198 22.1597 18.9773 22.0843C19.0706 21.9592 19.2035 21.9235 19.2889 21.9335C19.3524 21.9414 19.394 21.9692 19.4139 22.0188C19.4357 22.0585 19.4218 22.1239 19.3841 22.1755Z" fill="#FFC600"/>
<path d="M26.3731 18.8518C26.0179 19.5463 24.9722 19.4034 24.5812 18.5938C24.5316 18.4966 24.4304 18.3101 24.3927 18.2168C24.3768 18.1771 24.359 18.1374 24.3352 18.0977C24.3114 18.058 24.2935 18.0203 24.2796 17.9826C24.2499 17.9251 24.228 17.8735 24.2121 17.8219C24.1943 17.7723 24.1705 17.7227 24.1367 17.6731C24.1308 17.6572 24.1109 17.6255 24.0752 17.5818C24.0395 17.5342 23.9959 17.4846 23.9443 17.423C23.8887 17.3635 23.8312 17.306 23.7677 17.2445C23.724 17.2008 23.6803 17.1651 23.6387 17.1353L24.484 16.6095C24.8412 16.3376 25.3551 16.4487 25.5675 16.8436L26.3493 18.0541C26.4763 18.3021 26.5001 18.6018 26.3731 18.8518Z" fill="white"/>
<path d="M13.679 7.22549C13.7207 7.3386 13.7207 7.12628 13.7921 7.15406C13.7921 7.08262 13.8477 7.06873 13.933 7.08262C14.0045 7.20962 13.8477 7.33662 13.8914 7.53505C14.1037 7.56283 14.0323 7.32273 14.2168 7.32273C14.3577 7.3644 14.4986 7.52116 14.5839 7.67594C14.5978 7.68983 14.5839 7.74738 14.5839 7.74738C14.697 7.84659 14.6553 7.88826 14.5839 8.11448C14.5561 8.24148 14.5283 8.36848 14.4847 8.53913C14.4847 8.53913 14.443 8.53913 14.443 8.56691C14.443 8.65224 14.443 8.68002 14.4152 8.75146C14.4013 8.79313 14.4013 8.80702 14.3736 8.90623C14.3736 8.92012 14.3458 8.90623 14.3458 8.94791C14.3458 9.04712 14.3458 9.0749 14.318 9.18801C14.318 9.2019 14.2902 9.2019 14.2902 9.22968C14.2763 9.3289 14.2763 9.35668 14.2485 9.46979C14.2485 9.48368 14.2208 9.48368 14.2208 9.51146C14.2069 9.61068 14.2069 9.63846 14.1791 9.75156C14.1791 9.76545 14.1513 9.76546 14.1513 9.79324C14.1374 9.87856 14.1374 9.90634 14.1096 10.0056C14.0243 10.3866 13.9688 10.7695 13.8973 11.1803C13.8556 11.4779 13.7981 11.7597 13.7564 12.099C13.7564 12.1546 13.7703 12.226 13.7564 12.2836C13.7564 12.3114 13.7286 12.3253 13.7286 12.3828C13.687 12.863 13.6731 13.4444 13.8279 13.7838C13.8418 13.8115 13.8556 13.8393 13.8695 13.8552C13.8834 13.8969 13.9112 13.9266 13.941 13.9683C13.9688 14.01 14.1116 14.1092 14.0819 14.2501C14.0263 14.2917 13.9549 14.1945 13.941 14.2223C13.8695 14.2937 13.7564 14.2362 13.6592 14.1092C13.6453 14.0953 13.6592 14.0536 13.6592 14.0378C13.6453 14.0239 13.5878 14.01 13.5878 13.9961C13.5739 13.9961 13.5878 13.9405 13.5878 13.9246C13.5739 13.9246 13.5163 13.9108 13.5163 13.8969C13.5024 13.883 13.5163 13.8413 13.5163 13.8254C13.5024 13.8115 13.4449 13.7976 13.4449 13.7838C13.4171 13.7421 13.431 13.6984 13.4032 13.6429C13.3893 13.629 13.3754 13.6568 13.3754 13.6151C13.3615 13.5873 13.3338 13.5159 13.304 13.4742C13.2464 13.4028 13.2187 13.2202 13.1909 13.0773C13.177 13.0059 13.1353 12.8094 13.1631 12.6666C13.0917 12.6805 13.1214 12.8075 13.1214 12.865C13.1214 13.1051 13.1353 13.4583 13.306 13.5714C13.3615 13.5992 13.2921 13.7401 13.3774 13.756C13.3774 13.9108 13.562 13.8691 13.5183 14.0814C13.4469 14.0814 13.3913 14.0814 13.3338 14.0814C13.4469 14.1806 13.2345 14.1528 13.1651 14.1092C13.0798 14.0675 13.0103 13.9822 12.9389 13.8969C12.9389 13.883 12.8833 13.8691 12.8674 13.8552C12.8674 13.8413 12.8813 13.7976 12.8674 13.7838C12.8397 13.7421 12.796 13.7282 12.7682 13.6845C12.7127 13.6131 12.669 13.4861 12.5837 13.3591C12.5559 13.3174 12.5698 13.2877 12.5559 13.2182C12.542 13.1904 12.542 13.1329 12.5142 13.0773C12.4011 12.7102 12.4428 11.8887 12.4864 11.4224C12.4726 11.3807 12.4587 11.4363 12.415 11.4224C12.4428 11.5216 12.3436 11.4938 12.3436 11.5633C12.3436 11.6347 12.2444 11.6347 12.2305 11.7042C12.2305 11.7458 12.1749 11.7895 12.159 11.8173C12.1312 11.8589 12.0737 11.9304 12.0181 11.9859C12.0043 12.0137 11.9626 12.0435 11.9467 12.0713C11.9467 12.0713 11.9606 12.1268 11.9467 12.1427C11.9189 12.1566 11.8475 12.1705 11.8475 12.2419C11.8336 12.2975 11.7483 12.3272 11.7066 12.3828C11.6927 12.3967 11.7205 12.4384 11.7066 12.4542C11.651 12.4959 11.5518 12.5535 11.4943 12.6388C11.4665 12.6666 11.4804 12.6963 11.4526 12.7241C11.3534 12.8372 11.1688 12.992 11.028 13.121C10.9863 13.1488 10.9724 13.1924 10.9148 13.2202C10.901 13.248 10.8732 13.2758 10.8434 13.2916C10.8434 13.3055 10.7859 13.2777 10.772 13.2916C10.772 13.3055 10.7859 13.3333 10.772 13.3333C10.772 13.3333 10.7164 13.3194 10.7005 13.3333C10.7005 13.3333 10.7144 13.3611 10.7005 13.3611C10.7005 13.375 10.645 13.3611 10.6291 13.3611C10.5874 13.4167 10.2044 13.4881 10.0775 13.4028C10.0497 13.3889 9.99212 13.3611 9.93656 13.3313C9.87902 13.2897 9.85123 13.246 9.79567 13.1904C9.62502 13.1904 9.51191 13.2321 9.34324 13.1904C9.31546 13.1765 9.31546 13.1488 9.30157 13.1488C9.16068 13.1071 9.11703 13.1071 9.01781 13.0495C9.00392 13.0357 9.01781 13.0079 8.97614 13.0079C8.99003 13.0079 8.76381 12.7956 8.73603 12.7678C8.70825 12.7261 8.69436 12.6824 8.6646 12.6408C8.65071 12.613 8.60904 12.5852 8.59316 12.5693C8.57927 12.5554 8.60705 12.4979 8.59316 12.4979C8.52172 12.4404 8.46616 12.101 8.45227 11.9185C8.43838 11.7061 8.46616 11.4799 8.48005 11.2815C8.49394 11.1962 8.48005 11.1267 8.48005 11.0414C8.53561 10.589 8.64872 10.079 8.76183 9.61266C8.87494 9.18801 9.00194 8.72169 9.1587 8.32482C9.27181 8.02717 9.35713 7.68785 9.62502 7.64617C9.69646 7.71761 9.59724 7.74539 9.62502 7.8585C9.66669 7.92994 9.71035 7.68983 9.83735 7.71761C9.87902 7.81683 9.89291 7.94383 9.90878 8.07083C10.0636 8.12639 9.96434 7.92994 10.0775 7.92994C10.1628 7.88827 10.1628 8.00137 10.2183 8.04304C10.2322 8.04304 10.2898 8.02915 10.2898 8.04304C10.3176 8.07083 10.3314 8.08471 10.3612 8.11448C10.389 8.12837 10.4465 8.18592 10.4743 8.2137C10.4743 8.22759 10.4604 8.26926 10.4743 8.28513C10.4882 8.31291 10.516 8.31291 10.5299 8.35657C10.5438 8.4419 10.4743 8.73756 10.4307 8.88044C10.4307 8.89433 10.4446 8.936 10.4307 8.95187C10.4029 8.97965 10.4029 8.99354 10.4029 9.05109C10.4029 9.06498 10.4029 9.12253 10.4029 9.12253C10.3612 9.1642 10.3176 9.39041 10.2898 9.5194C10.2183 9.8865 10.135 10.2834 10.0775 10.6941C10.0497 10.9342 10.0358 11.0751 10.006 11.3311C9.99212 11.5156 9.97823 11.7558 9.93458 11.9959C10.0755 11.982 10.133 11.8411 10.2164 11.7558C10.2719 11.7141 10.3156 11.6704 10.3572 11.6149C10.3989 11.5732 10.4287 11.5156 10.4704 11.474C10.4981 11.4323 10.5557 11.3748 10.5973 11.3331C10.6112 11.3053 10.6529 11.2775 10.6688 11.2617C10.6827 11.2478 10.6549 11.1902 10.6688 11.1902C10.6688 11.1763 10.6966 11.1902 10.6966 11.1902C10.7382 11.1347 10.768 11.0632 10.8097 11.0057C10.8236 10.9779 10.8513 10.9779 10.8811 10.9342C10.895 10.9203 10.895 10.8926 10.9089 10.8628C10.9506 10.8211 11.022 10.7775 11.0637 10.7219C11.0776 10.6941 11.0637 10.6505 11.0915 10.6227C11.1053 10.5949 11.147 10.5949 11.1629 10.581C11.2046 10.5255 11.2185 10.4679 11.276 10.4124C11.3613 10.2854 11.4744 10.1147 11.5875 9.94603C11.6153 9.91825 11.6451 9.90436 11.659 9.87459C11.6729 9.8607 11.6451 9.81903 11.659 9.80316C11.6729 9.80316 11.6868 9.80316 11.7006 9.80316C11.7145 9.77538 11.7145 9.73172 11.7284 9.69005C11.7423 9.67616 11.784 9.67616 11.7999 9.66227C11.8276 9.6206 11.8138 9.59083 11.8415 9.54916C11.8554 9.53527 11.8971 9.50749 11.913 9.47773C11.9269 9.46383 11.9269 9.40629 11.9408 9.37851C11.9546 9.36462 11.9983 9.35073 12.0122 9.33684C12.04 9.30906 12.0261 9.2654 12.0539 9.23762C12.0677 9.20984 12.1094 9.18007 12.1253 9.16618C12.1392 9.1384 12.1392 9.08086 12.1531 9.05308C12.167 9.03919 12.2245 9.03919 12.2245 9.02529C12.2523 8.98362 12.2384 8.95386 12.2662 8.91219C12.2801 8.8983 12.3217 8.87052 12.3376 8.84075C12.3952 8.76931 12.4091 8.69986 12.4785 8.61454C12.5202 8.55897 12.5638 8.45976 12.6194 8.36054C12.6333 8.33276 12.675 8.31887 12.6908 8.2891C12.7047 8.26132 12.7047 8.21767 12.7186 8.18989C12.7464 8.1621 12.7742 8.13432 12.7901 8.11845C12.8317 8.06289 12.8893 7.94978 12.9309 7.86445C12.9587 7.83667 12.9865 7.82278 13.0024 7.79302C13.0163 7.77913 13.0024 7.73746 13.0024 7.72158C13.044 7.6938 13.0579 7.65014 13.0738 7.60847C13.0877 7.59458 13.1452 7.5668 13.1591 7.53704C13.1869 7.49536 13.1869 7.42393 13.2306 7.36638C13.2306 7.3386 13.2861 7.31082 13.302 7.29495C13.302 7.28106 13.2881 7.22351 13.302 7.22351C13.3159 7.20962 13.3734 7.1104 13.4012 7.03897C13.429 7.01118 13.5004 7.02508 13.5143 6.96753C13.5699 6.96753 13.6274 6.96753 13.683 6.96753C13.7505 7.04293 13.6949 7.14215 13.679 7.22549ZM9.36706 12.105C9.36706 12.0911 9.39484 11.8927 9.33927 11.9919C9.36706 12.1189 9.25395 12.3888 9.41071 12.3888C9.40873 12.3173 9.38095 12.2042 9.36706 12.105Z" fill="#FFC600"/>
<path d="M17.8384 15.6273C17.8801 15.5995 17.9237 15.5856 17.9515 15.5558C17.9654 15.5281 18.0507 15.4844 18.0924 15.4427C18.1638 15.3713 18.2472 15.2582 18.3325 15.159C18.3603 15.1312 18.3742 15.0875 18.4039 15.0459C18.4595 14.9903 18.5448 14.8772 18.6163 14.7641C18.644 14.7363 18.6718 14.6927 18.7016 14.6649C18.7155 14.6371 18.7433 14.6073 18.7571 14.5934C18.7849 14.5518 18.7571 14.4942 18.7849 14.4525C18.7988 14.4387 18.8564 14.4248 18.8564 14.4109C18.8841 14.3394 18.8841 14.3117 18.9278 14.2402C18.9417 14.2124 18.9834 14.1986 18.9992 14.1847C19.027 14.1291 19.0131 14.0854 19.0409 14.0438C19.0409 14.016 19.0687 14.0438 19.0687 14.0021C19.0687 13.9465 19.1679 13.8037 19.2096 13.7203C19.2512 13.6489 19.281 13.5655 19.3227 13.4802C19.3227 13.4524 19.3366 13.4247 19.3505 13.4088C19.3782 13.3671 19.3782 13.3512 19.3921 13.2957C19.4199 13.1826 19.533 12.9147 19.5608 12.7301C19.5886 12.5754 19.6739 12.3194 19.4894 12.1924C19.404 12.2777 19.4179 12.3908 19.3902 12.5178C19.3763 12.5317 19.3902 12.5734 19.3902 12.5892C19.3346 12.6309 19.2909 12.8571 19.2493 12.9702C19.1639 13.2242 19.1084 13.508 18.9238 13.6489C18.9238 13.7342 18.9953 13.762 18.9238 13.8334C18.8683 13.8195 18.9377 13.7779 18.9238 13.7203C18.8246 13.7918 18.8107 13.9049 18.7532 14.0021C18.7393 14.0299 18.6976 14.0596 18.6976 14.0735C18.6837 14.0874 18.6976 14.145 18.6976 14.145C18.6837 14.145 18.6559 14.145 18.6559 14.145C18.6421 14.1589 18.6698 14.2005 18.6559 14.2005C18.6282 14.2283 18.6143 14.2283 18.5845 14.272C18.5706 14.3136 18.5289 14.3136 18.5131 14.3434C18.4992 14.3573 18.527 14.4148 18.5131 14.4148C18.5131 14.4287 18.4853 14.4148 18.4714 14.4148C18.4436 14.4704 18.4436 14.5141 18.4 14.5557C18.3861 14.5835 18.3583 14.6113 18.3285 14.6272C18.3146 14.655 18.3146 14.6827 18.3007 14.6986C18.2591 14.7542 18.2293 14.77 18.1876 14.8117C18.1737 14.8395 18.1876 14.8832 18.1599 14.9109C18.146 14.9248 18.1023 14.9387 18.0884 14.9526C18.0745 14.9665 18.1023 15.0082 18.0884 15.024C17.8483 15.2225 17.6499 15.6313 17.2391 15.7027C17.126 15.6749 17.0546 15.6174 16.9573 15.5896C16.7033 15.5896 16.6041 15.6451 16.4196 15.5618C16.3204 15.4765 16.4335 15.3773 16.2787 15.3495C16.2787 15.2503 16.3343 15.2364 16.3501 15.1649C16.364 15.0657 16.1517 15.1927 16.1656 15.0935C16.1378 14.9387 16.2926 14.9526 16.3779 14.9089C17.0982 14.1589 17.5943 13.1548 17.9753 12.0515C17.636 12.0654 17.382 11.9801 17.1974 11.8392C16.8859 11.8114 16.6458 11.7122 16.5605 11.4582C16.4613 11.4443 16.362 11.4304 16.2767 11.4165C16.1914 11.4026 16.0922 11.4026 16.0227 11.3887C16.0088 11.3748 16.0227 11.347 15.9949 11.347C15.981 11.347 15.9374 11.3193 15.9235 11.3193C15.8521 11.2776 15.739 11.22 15.6695 11.1347C15.6417 11.1069 15.6556 11.0633 15.6417 11.0216C15.6278 11.0077 15.5862 10.9799 15.5703 10.9502C15.5425 10.9224 15.5564 10.8787 15.5286 10.851C15.5147 10.8232 15.4869 10.8093 15.4572 10.7795C15.4433 10.7517 15.4016 10.724 15.3857 10.7081C15.3857 10.6942 15.3996 10.6525 15.3857 10.6367C15.2587 10.5235 15.3441 10.1564 15.3857 9.94411C15.3996 9.91633 15.3718 9.81712 15.3857 9.80323C15.3857 9.78934 15.4274 9.80323 15.4274 9.80323C15.4413 9.73179 15.4413 9.67623 15.4552 9.61868C15.4969 9.51946 15.5683 9.37858 15.6397 9.26547C15.6397 9.25158 15.6536 9.16625 15.6675 9.16625C15.739 9.11069 15.7528 9.03925 15.8084 8.94004C15.8362 8.91225 15.8937 8.8686 15.9215 8.84082C15.9215 8.82693 15.9076 8.78526 15.9215 8.76938C15.9354 8.75549 15.9771 8.7416 15.9929 8.72771C15.9929 8.71382 15.9791 8.67215 15.9929 8.65627C16.0207 8.62849 16.0346 8.62849 16.0644 8.58484C16.0922 8.55706 16.1358 8.52928 16.1636 8.48562C16.1775 8.47173 16.1636 8.41418 16.1636 8.41418C16.1914 8.3864 16.2767 8.37251 16.2767 8.30108C16.2767 8.24551 16.4613 8.10264 16.5168 8.01731C16.5585 7.98953 16.6021 7.94588 16.6299 7.9181C16.6438 7.90421 16.616 7.84666 16.6299 7.84666C16.743 7.74744 16.8839 7.59266 17.0268 7.49345C17.0982 7.43789 17.1399 7.38034 17.2391 7.3089C17.2669 7.28112 17.3106 7.22358 17.3383 7.20969C17.3522 7.19579 17.4098 7.20969 17.4098 7.20969C17.4951 7.09658 17.6499 7.05491 17.8066 6.95569C17.8205 6.9418 17.9059 6.92791 17.9059 6.91402C17.9197 6.91402 17.9059 6.88624 17.9059 6.88624C17.9197 6.88624 17.9773 6.90013 17.9773 6.88624C18.0765 6.75924 18.3444 6.83067 18.5428 6.84457C18.6282 6.85846 18.6698 6.84457 18.7274 6.88624C18.7413 6.90013 18.7413 6.91402 18.7552 6.91402C18.8544 6.98545 19.0528 7.08467 19.0667 7.28112C19.152 7.33668 19.279 7.38034 19.3485 7.44979C19.4199 7.57679 19.4477 7.76133 19.6025 7.803C19.5608 7.91611 19.4477 7.87444 19.3902 7.91611C19.3624 7.91611 19.3902 7.94389 19.3485 7.94389C19.3068 7.94389 19.2632 8.01533 19.2076 8.057C19.1084 8.12844 19.0092 8.21178 18.9258 8.29711C18.8841 8.35267 18.8266 8.39632 18.7849 8.438C18.7571 8.46578 18.771 8.52332 18.7571 8.5511C18.7433 8.56499 18.7016 8.56499 18.7016 8.57888C18.646 8.63445 18.6301 8.70588 18.5885 8.76343C18.5746 8.79121 18.5329 8.79121 18.517 8.83487C18.5031 8.84876 18.5031 8.87654 18.4754 8.9063C18.4476 8.96186 18.3761 8.99163 18.3345 9.04719C18.3206 9.07497 18.3206 9.11863 18.3067 9.1603C18.2928 9.17419 18.2789 9.14641 18.265 9.18808C18.265 9.21586 18.2234 9.27341 18.1936 9.30119C18.1519 9.35675 18.1222 9.42818 18.0527 9.54129C18.0388 9.56907 17.9971 9.59685 17.9813 9.61273C17.9674 9.6544 17.9674 9.68417 17.9535 9.72584C17.9396 9.73973 17.8979 9.76751 17.882 9.79727C17.8682 9.81116 17.8959 9.85283 17.882 9.86871C17.8404 9.89649 17.8404 9.92427 17.8106 9.96793C17.7967 9.99571 17.7531 10.0235 17.7392 10.0394C17.7114 10.0949 17.6975 10.1664 17.6677 10.2239C17.6122 10.3092 17.5268 10.4085 17.4832 10.5216C17.6519 10.593 17.8364 10.593 18.021 10.6347C18.021 10.6347 18.021 10.6624 18.0487 10.6624C18.0626 10.6624 18.0765 10.6624 18.0904 10.6624C18.1182 10.6763 18.146 10.6902 18.1896 10.7041C18.2174 10.7041 18.2174 10.7319 18.2313 10.7319C18.3583 10.7736 18.4575 10.7458 18.5428 10.8033C18.5706 10.8172 18.5706 10.845 18.5845 10.845C18.6559 10.8867 18.7115 10.9006 18.7829 10.9859C18.8822 11.0851 18.9814 11.2121 19.0667 11.3391C19.1223 11.4105 19.2215 11.4244 19.279 11.48C19.3068 11.5931 19.4199 11.6348 19.4199 11.7638C19.4914 11.8193 19.6045 11.863 19.6739 11.9483C19.6739 11.9622 19.66 12.0039 19.6739 12.0197C19.6878 12.0197 19.7295 12.0336 19.7453 12.0475C19.7453 12.0614 19.7315 12.119 19.7453 12.119C19.7453 12.1328 19.8009 12.1467 19.8168 12.1606C19.8446 12.2023 19.8307 12.246 19.8446 12.3015C19.8585 12.3154 19.916 12.3571 19.916 12.373C19.9299 12.4146 19.916 12.4722 19.916 12.5138C19.9438 12.5992 19.9438 12.7262 19.916 12.8948C19.8604 13.3334 19.789 13.6449 19.6045 14.0696C19.5906 14.0974 19.5906 14.141 19.5628 14.1827C19.5489 14.1966 19.5072 14.2105 19.4914 14.2382C19.4636 14.2938 19.4636 14.3791 19.4199 14.4506C19.406 14.4783 19.3624 14.4922 19.3485 14.522C19.3346 14.5498 19.3346 14.5934 19.3207 14.6212C19.3068 14.649 19.2632 14.6768 19.2493 14.6927C19.2076 14.7482 19.1937 14.8058 19.1362 14.8772C19.0945 14.9189 19.0806 14.9764 19.0369 15.0459C19.0092 15.0736 18.9814 15.1014 18.9655 15.1173C18.8802 15.2304 18.7948 15.3435 18.7254 15.4427C18.527 15.669 18.3146 15.8674 18.1182 15.9805C18.1043 15.9805 18.0626 15.9666 18.0467 15.9805C18.0467 15.9805 18.0606 16.0083 18.0467 16.0083C17.9059 16.0361 17.7789 15.9805 17.6935 16.0083C17.7074 15.923 17.5526 15.9368 17.5526 15.8674C17.5526 15.8396 17.4812 15.8098 17.4812 15.796C17.4812 15.6828 17.6499 15.669 17.765 15.5836C17.7789 15.4427 17.9336 15.4288 17.9773 15.2999C18.0626 15.3713 17.8642 15.4705 17.8364 15.5539C17.8086 15.5539 17.8086 15.5816 17.765 15.5816C17.765 15.6094 17.765 15.6233 17.765 15.6531C17.7947 15.6412 17.8225 15.6412 17.8384 15.6273ZM15.9275 10.6624C15.9275 10.7339 15.9552 10.7617 15.9989 10.7756C15.9989 10.72 15.9711 10.6763 15.9275 10.6624ZM16.749 11.5971C16.8343 11.611 16.9613 11.7657 17.0605 11.6685C16.9752 11.6387 16.8045 11.5256 16.749 11.5971ZM18.6579 7.77721C18.5865 7.83277 18.5309 7.93199 18.4456 8.01731C18.39 8.07486 18.2908 8.13042 18.2611 8.1582C18.2472 8.19987 18.2611 8.24353 18.2333 8.27131C18.1777 8.32886 18.0785 8.37053 18.0487 8.4122C18.0348 8.43998 18.0487 8.48364 18.021 8.51142C17.9793 8.56698 17.8801 8.61063 17.8801 8.65231C17.8801 8.72374 17.7808 8.73763 17.767 8.79319C17.767 8.86463 17.6955 8.87852 17.6677 8.9063C17.6538 8.92019 17.6677 8.96186 17.6677 8.97774C17.6538 9.00552 17.6122 9.01941 17.5963 9.04918C17.5249 9.1345 17.384 9.28928 17.384 9.37461C17.384 9.40239 17.3284 9.44604 17.3125 9.47383C17.2709 9.53137 17.1994 9.60082 17.1994 9.65837C17.1994 9.72981 17.1439 9.75759 17.1002 9.79926C17.0863 9.79926 17.0724 9.88458 17.0585 9.89848C17.0169 9.96991 17.0169 10.0255 17.0585 10.083C17.0169 10.083 17.003 10.0275 16.9871 10.083C16.9871 10.1247 16.9315 10.1406 16.9871 10.1545C17.001 10.0989 17.0288 10.1406 16.9871 10.1822C16.9593 10.21 16.9454 10.2953 16.9157 10.3529C16.9018 10.3946 16.8026 10.5077 16.9157 10.4938C16.9296 10.5652 17.1141 10.5216 17.1002 10.4521C17.3264 9.98579 17.5804 9.53335 17.8781 9.1226C18.1757 8.69794 18.5012 8.30306 18.896 7.99152C18.9238 7.94985 18.9953 7.90619 19.0369 7.87841C19.0786 7.85063 19.1917 7.85063 19.1778 7.73752C19.0072 7.72363 18.9655 7.73752 18.8524 7.6383C18.7968 7.70974 18.7532 7.73752 18.7254 7.77919C18.7135 7.7911 18.6718 7.76332 18.6579 7.77721ZM18.0924 7.56488C18.0785 7.56488 18.0368 7.60655 18.021 7.63632C17.9793 7.6641 17.9078 7.73554 17.9495 7.77721C18.0904 7.57877 18.3464 7.50932 18.5151 7.35256C18.3742 7.32478 18.2035 7.49345 18.1618 7.56488C18.1479 7.56488 18.1063 7.55099 18.0924 7.56488Z" fill="#FFC600"/>
<path d="M23.2536 14.1408C23.1981 14.1408 23.1266 14.1269 23.083 14.0991C23.0552 14.0991 23.0552 14.0436 23.0413 14.0277C23.0274 14.0277 22.9857 14.0416 22.9699 14.0277C22.9699 13.9999 22.9699 13.9562 22.956 13.9424C22.9421 13.9424 22.8845 13.9562 22.8707 13.9424C22.8707 13.9424 22.8845 13.9146 22.8707 13.9146C22.829 13.8868 22.7714 13.9007 22.7298 13.8729C22.702 13.859 22.7159 13.7737 22.6742 13.7598C22.6464 13.732 22.6028 13.7459 22.575 13.7181C22.5333 13.6903 22.5035 13.5772 22.4341 13.5633C22.4063 13.7181 22.575 13.7618 22.6325 13.8749C22.6603 13.9166 22.6325 13.9602 22.6603 13.988C22.7317 14.0733 22.829 14.1428 22.9441 14.1725C22.8587 14.2995 22.7179 14.117 22.6464 14.0733C22.575 13.988 22.4916 13.9027 22.4202 13.8471C22.3488 13.7618 22.2654 13.6923 22.1801 13.6209C22.1384 13.5356 22.0392 13.4502 21.9817 13.3947C21.9539 13.3391 21.9678 13.2816 21.9241 13.2399C21.8963 13.1982 21.8527 13.1546 21.8249 13.1129C21.7832 13.0276 21.7396 12.9284 21.6979 12.845C21.557 12.5632 21.4578 12.335 21.3586 11.954L21.3447 11.7993C21.303 11.7715 21.3447 11.7 21.3169 11.6445H21.2891C21.2613 11.5314 21.2752 11.3627 21.2613 11.2337C21.2613 11.2198 21.2336 11.2198 21.2336 11.1921C21.2336 11.0075 21.2336 10.7674 21.2336 10.5134C21.2336 10.3447 21.2197 10.2158 21.2336 10.061C21.2613 9.80698 21.305 9.35455 21.3745 9.02911C21.3745 8.91601 21.4022 8.77512 21.4161 8.64812C21.4161 8.64812 21.4439 8.63423 21.4578 8.60645C21.4995 8.29491 21.6126 7.82859 21.6979 7.48926C21.6979 7.46148 21.6979 7.34837 21.7118 7.33448H21.7535C21.7674 7.22138 21.7812 7.0666 21.809 6.95349C21.809 6.95349 21.8507 6.95349 21.8507 6.92571C21.8507 6.8126 21.8924 6.79871 21.8924 6.65782C21.7793 6.54471 21.5808 6.65782 21.4399 6.65782C21.2693 6.65782 21.1284 6.6856 21.0153 6.63004C21.0153 6.54471 20.9875 6.53082 21.0014 6.45939C21.0014 6.33239 21.0728 6.38795 21.0728 6.20539C21.0589 6.14983 21.0451 6.14983 21.0451 6.07839C21.0312 5.97918 20.9597 6.14983 20.8764 6.07839C20.8347 5.86607 20.5787 5.8244 20.678 5.44142C20.678 5.42753 20.7335 5.39975 20.7196 5.36998C20.8327 5.24298 21.0173 5.22909 21.1582 5.17155C21.1721 5.17155 21.1721 5.14377 21.1998 5.14377C21.3129 5.12988 21.4399 5.1021 21.6106 5.05844C21.6245 5.04455 21.6384 5.01677 21.6384 5.01677C21.8229 4.9751 22.0352 4.9751 22.2039 4.94533C22.2039 4.94533 22.2178 4.91755 22.2456 4.91755C22.2734 4.91755 22.317 4.91755 22.3448 4.91755C22.444 4.88977 22.5571 4.81834 22.6702 4.87588C22.7972 4.80444 22.7695 4.67745 22.7972 4.56434C22.8111 4.50679 22.825 4.45123 22.8389 4.37979C22.8389 4.3659 22.8667 4.3659 22.8806 4.33812C22.8945 4.2528 22.8945 4.2528 22.9222 4.15358C22.9222 4.15358 22.9222 4.09802 22.9361 4.08214C23.0076 4.04047 23.0492 3.74282 23.1048 3.60193C23.1326 3.47493 23.1604 3.37572 23.1901 3.24872C23.2179 3.17728 23.2179 3.12172 23.2318 3.06417C23.2457 3.05028 23.2735 3.05028 23.2735 3.0225C23.2874 2.92329 23.3013 2.9094 23.3151 2.83796C23.329 2.82407 23.3151 2.76652 23.3151 2.76652C23.3866 2.71096 23.3429 2.6812 23.3707 2.56809C23.3707 2.56809 23.3985 2.56809 23.3985 2.54031C23.4124 2.48475 23.4124 2.4272 23.4124 2.38553C23.4263 2.37164 23.4541 2.37164 23.4541 2.34386C23.4541 2.2883 23.4541 2.27242 23.4818 2.25853C23.581 2.1732 23.6088 2.28631 23.7358 2.25853C23.7219 2.37164 23.8212 2.38553 23.7914 2.48475C23.9045 2.49864 23.9045 2.35775 23.9898 2.45697C24.0315 2.5284 24.1168 2.57007 24.1883 2.64151C24.2438 2.69707 24.3014 2.7824 24.3153 2.86772C24.2438 2.86772 24.2299 2.82605 24.1744 2.83994C24.1883 2.8955 24.2319 2.91138 24.2597 2.95305C24.3311 2.99472 24.4006 2.96694 24.4442 2.99472C24.472 3.00861 24.599 3.16538 24.599 3.24872C24.5435 3.32015 24.4859 3.20705 24.4581 3.32015C24.472 3.37572 24.4581 3.40548 24.4304 3.40548C24.3589 3.8718 24.218 4.26867 24.091 4.69332C24.1625 4.66554 24.3034 4.73499 24.3034 4.65165C24.3589 4.45322 24.4304 4.227 24.4879 3.973C24.5296 3.87379 24.5157 3.70512 24.5593 3.6059C24.5593 3.59201 24.5871 3.6059 24.5871 3.55034C24.5871 3.49478 24.5871 3.3519 24.7141 3.38167C24.7558 3.80632 24.6288 4.25875 24.5593 4.65363C24.6447 4.69531 24.728 4.65363 24.8272 4.65363C24.9403 4.65363 25.0534 4.66753 25.1804 4.65363C25.2519 4.65363 25.2935 4.61196 25.3511 4.61196C25.5912 4.59807 25.8174 4.61196 26.0714 4.61196C26.1428 4.59807 26.1984 4.58418 26.2559 4.57029C26.5675 4.54251 26.9921 4.57029 27.4307 4.57029C27.8117 4.57029 28.2085 4.5564 28.5618 4.57029C28.6173 4.57029 28.661 4.59807 28.7165 4.61196C29.0142 4.62585 29.3237 4.62585 29.6353 4.69729C29.7345 4.71118 29.8198 4.73896 29.9191 4.76873C30.0183 4.78262 30.1592 4.82627 30.173 4.84016C30.173 4.84016 30.2445 4.92549 30.2584 4.95327C30.2723 4.96716 30.2445 5.00883 30.2584 5.02471H30.3C30.3 5.0386 30.2723 5.11003 30.2862 5.11003H30.3139C30.3417 5.22314 30.2862 5.35014 30.3 5.44936C30.3 5.57635 30.2445 5.6339 30.1453 5.6339C30.1869 5.74701 30.3298 5.7609 30.3437 5.86012C30.3715 5.97322 30.2723 5.94544 30.2723 6.01489C30.3993 6.128 30.3139 6.45344 30.2008 6.55265C30.1016 6.51098 30.1016 6.60821 30.0163 6.59432C29.8754 6.6221 29.9587 6.42367 29.8893 6.36811C29.3515 6.24111 28.7582 6.31255 28.1649 6.28278C27.9387 6.26889 27.768 6.22524 27.5418 6.24111C27.0894 6.28278 26.3829 6.24111 25.8591 6.28278C25.7876 6.28278 25.746 6.31056 25.6904 6.31056C25.4503 6.32445 25.238 6.29667 25.0118 6.31056C24.8133 6.33834 24.4879 6.36612 24.2061 6.39589C24.093 6.49511 24.1506 6.64989 24.1069 6.79276C24.1069 6.79276 24.0791 6.79276 24.0791 6.82054C24.0374 7.15986 23.9382 7.55673 23.8668 7.95161C23.839 8.10639 23.8251 8.2195 23.8112 8.37627C23.7835 8.50326 23.7696 8.63026 23.7557 8.78703C23.7557 8.77314 23.714 8.78703 23.714 8.81481C23.7001 8.88624 23.7279 8.98348 23.7001 9.08269C23.6862 9.11047 23.6584 9.11047 23.6584 9.16802C23.6445 9.22358 23.6584 9.30891 23.6446 9.39423C23.6307 9.50734 23.6029 9.64823 23.5731 9.84666C23.5592 9.97366 23.5453 10.2277 23.5176 10.4559C23.4898 10.5114 23.462 10.569 23.462 10.6404C23.4342 10.9519 23.4064 11.2774 23.4064 11.5889C23.4064 11.6445 23.4203 11.7298 23.4342 11.7874C23.4342 12.0414 23.4203 12.3112 23.462 12.5791C23.4759 12.72 23.4898 12.8768 23.5334 13.0176C23.6049 13.3014 23.6326 13.5971 23.8866 13.7102C23.8866 13.7657 23.8727 13.8372 23.8727 13.8947C23.9283 13.9939 24.0275 13.6685 24.1129 13.8094C24.1267 14.0078 23.9283 14.1626 24.1267 14.2341C24.2815 14.2757 24.2121 14.0078 24.3669 14.0495C24.4383 14.1209 24.48 14.1765 24.4661 14.3174C24.4661 14.4305 24.4105 14.5158 24.3391 14.5714C24.1545 14.5714 24.0712 14.5 23.9859 14.3868C23.8866 14.3868 23.8311 14.4424 23.7319 14.4722C23.6326 14.3591 23.4779 14.3174 23.3925 14.1904C23.3211 14.2182 23.2655 14.3035 23.1385 14.2757C23.0254 14.2202 23.2378 14.2202 23.2933 14.2341C23.2814 14.1844 23.2536 14.1706 23.2536 14.1408ZM22.065 6.87213C21.9519 7.23924 21.8527 7.6361 21.811 7.97543C21.811 8.00321 21.7832 8.00321 21.7832 8.00321C21.7416 8.13021 21.7416 8.27109 21.7118 8.3842C21.6404 8.82274 21.6126 9.20374 21.5709 9.60061C21.5292 10.1661 21.4578 10.7317 21.5153 11.2694C21.5153 11.2972 21.5015 11.3409 21.5153 11.3825C21.5153 11.4103 21.5431 11.4103 21.5431 11.4103C21.5431 11.4659 21.5292 11.5234 21.5292 11.5651C21.5292 11.5929 21.5709 11.5929 21.5709 11.6068C21.5848 11.7338 21.5848 11.8608 21.6126 11.9878H21.6404C21.6542 11.9878 21.6404 12.0453 21.6404 12.0592C21.6542 12.1306 21.6959 12.214 21.6959 12.2438C21.6959 12.3291 21.7674 12.3569 21.7515 12.3985C21.7515 12.4402 21.7793 12.4124 21.7932 12.4402C21.7932 12.4402 21.7793 12.5811 21.8646 12.5116C21.7793 12.47 21.8229 12.3271 21.809 12.2438C21.7674 12.0175 21.7535 11.7635 21.7376 11.5373C21.7376 11.4659 21.7237 11.3964 21.7237 11.3389C21.682 10.5035 21.7515 9.54306 21.8785 8.6382C21.9777 7.93177 22.1186 7.25313 22.2456 6.64393C22.317 6.58837 22.2456 6.48915 22.1741 6.5725C22.0888 6.55861 22.1325 6.61417 22.1027 6.6856C22.0809 6.74513 22.065 6.83046 22.065 6.87213ZM22.6167 9.98359C22.6028 10.0253 22.6305 10.1245 22.6444 10.055C22.6742 9.99748 22.6325 9.89826 22.6167 9.98359ZM22.6881 9.44583C22.6881 9.4875 22.6603 9.74348 22.702 9.63037C22.702 9.5887 22.7298 9.33272 22.6881 9.44583ZM22.7595 9.33272C22.7873 9.04896 22.8587 8.65407 22.9143 8.49731C22.9282 8.45564 22.9143 8.41198 22.9143 8.3842C22.9699 8.17188 23.0274 8.00321 23.0691 7.81866C23.083 7.69167 23.0969 7.49323 23.1544 7.45156C23.1544 7.43767 23.1683 7.36623 23.1683 7.36623C23.1822 7.25313 23.1961 7.22535 23.21 7.1678C23.2516 6.99715 23.2814 6.87015 23.2953 6.71537C23.337 6.60226 23.4362 6.44748 23.3231 6.41772C23.1385 7.23725 22.9123 8.12822 22.7853 8.94974C22.7595 9.07872 22.6881 9.2335 22.7595 9.33272ZM23.0413 12.4442C23.0274 12.4164 22.9996 12.4164 22.9996 12.4025C22.9996 12.3033 22.9996 12.1624 22.9857 12.0215C22.9719 11.9223 22.9441 11.7953 22.9282 11.6961C22.9143 11.3429 22.9421 10.9738 22.9282 10.6642C22.9421 10.6225 22.9143 10.565 22.9004 10.6225C22.8587 11.3587 22.8587 12.0652 23.0413 12.589C23.083 12.714 23.0413 12.4581 23.0413 12.4442ZM22.9421 9.92802C22.9282 10.0134 22.956 10.0689 22.9977 10.0828C23.0135 10.0114 22.9996 9.94191 22.9421 9.92802ZM22.956 9.74348C22.9421 9.81492 22.9699 9.87048 23.0115 9.89826C22.9996 9.82881 23.0552 9.70181 22.956 9.74348ZM22.956 9.63037C23.0413 9.68792 23.0691 9.50337 22.9977 9.51726C22.9838 9.54505 22.9838 9.57283 22.956 9.55894C22.956 9.5887 22.956 9.61648 22.956 9.63037ZM23.0552 9.29105C23.0274 9.34661 22.9838 9.36249 22.9996 9.44583C23.0989 9.50337 23.1127 9.27716 23.0552 9.29105ZM23.083 9.21961C23.0969 9.17794 23.1246 9.19183 23.1246 9.17794C23.1385 9.15016 23.083 9.12238 23.0969 9.06483C23.1108 9.03705 23.1385 9.02316 23.1385 9.02316C23.1524 8.92394 23.1663 8.76917 23.1802 8.64217C23.2378 8.38817 23.3211 7.97741 23.3925 7.7512C23.4342 7.56665 23.4779 7.38409 23.4918 7.22733C23.4918 7.18566 23.5334 7.17177 23.5334 7.17177C23.5612 7.04477 23.5473 6.93166 23.6188 6.87412C23.6902 6.81855 23.6049 6.50701 23.6743 6.49312C23.6743 6.46534 23.6743 6.42169 23.6465 6.42169C23.3786 7.29877 23.208 8.30284 23.0096 9.24938C23.0413 9.24739 23.083 9.24739 23.083 9.21961ZM23.8628 4.7092C23.9898 4.3282 24.1168 3.76068 24.216 3.43723C24.2299 3.39556 24.216 3.32412 24.2299 3.28245C24.2299 3.24078 24.343 3.12767 24.2438 3.08402C24.1446 3.60789 23.9759 4.10199 23.8767 4.52664C23.8628 4.56632 23.7775 4.66554 23.8628 4.7092ZM24.0454 5.54262C24.0593 5.50095 24.0732 5.45729 24.1009 5.42951C23.9878 5.45729 24.0295 5.45729 23.9164 5.42951C23.9025 5.4434 23.8172 5.5704 23.9025 5.58429C23.9462 5.45729 23.9601 5.54262 24.0454 5.54262ZM29.5321 5.38784C29.3912 5.36006 29.2483 5.37395 29.1075 5.36006C28.4844 5.30252 27.8196 5.28862 27.1132 5.28862C26.7163 5.28862 26.2937 5.23306 25.9385 5.28862C25.8968 5.28862 25.8829 5.31641 25.8253 5.31641C25.6845 5.3303 25.5575 5.31641 25.4285 5.31641C25.2876 5.3303 25.1745 5.34419 25.0316 5.35808C24.7915 5.37197 24.3946 5.30053 24.3807 5.51286C24.3669 5.55453 24.4522 5.54064 24.5077 5.54064C24.7062 5.55453 24.861 5.51286 25.0316 5.51286C25.6388 5.47118 26.3889 5.45729 26.9128 5.42753C27.4069 5.38586 28.03 5.42753 28.4109 5.45531C28.5955 5.4692 28.7919 5.45531 28.9904 5.45531C29.0618 5.45531 29.1035 5.49698 29.1749 5.51087C29.4428 5.53865 29.6274 5.51087 29.798 5.53865C29.8119 5.49698 29.798 5.46722 29.7841 5.45333C29.7305 5.42951 29.5897 5.40173 29.5321 5.38784ZM29.8575 5.38784C29.9131 5.38784 29.8853 5.50095 29.9568 5.45928C29.9865 5.38784 29.8734 5.30251 29.8575 5.38784Z" fill="#FFC600"/>
<path d="M23.5671 19.433C23.5691 19.4112 23.5691 19.3894 23.5651 19.3676C23.5671 19.3418 23.5651 19.318 23.5632 19.2961C23.5612 19.2743 23.5592 19.2505 23.5592 19.2247C23.5552 19.187 23.5552 19.1513 23.5612 19.1175C23.5651 19.0798 23.5651 19.0441 23.5612 19.0124C23.5592 18.9826 23.5493 18.9251 23.5354 18.8377C23.5235 18.7484 23.5036 18.677 23.4778 18.6155C23.4679 18.5877 23.456 18.5619 23.4401 18.5341C23.4242 18.5083 23.4123 18.4825 23.4024 18.4567C23.3826 18.4171 23.3687 18.3833 23.3588 18.3496C23.3469 18.3159 23.331 18.2821 23.3072 18.2524C23.3052 18.2424 23.2913 18.2206 23.2675 18.1908C23.2437 18.1591 23.2139 18.1234 23.1782 18.0857C23.1425 18.046 23.1008 18.0063 23.0611 17.9666C23.0214 17.9269 22.9778 17.8932 22.9381 17.8694C22.9182 17.8555 22.8786 17.8356 22.821 17.8019C22.7615 17.7702 22.7238 17.7483 22.7099 17.7404C22.6166 17.6809 22.5273 17.6372 22.44 17.6015C22.3507 17.5697 22.2475 17.5499 22.1285 17.5439C22.1225 17.5479 22.1007 17.5479 22.063 17.5479C22.0253 17.5459 21.9856 17.5479 21.9439 17.5479C21.9003 17.5499 21.8586 17.5499 21.8229 17.5499C21.7852 17.5479 21.7634 17.5479 21.7614 17.5459C21.7296 17.5519 21.6999 17.5559 21.676 17.5578C21.6483 17.5618 21.6185 17.5697 21.5848 17.5797C21.549 17.5916 21.5173 17.6035 21.4855 17.6154C21.4538 17.6273 21.4221 17.6412 21.3883 17.6531C21.3724 17.6531 21.3566 17.6551 21.3427 17.6571C21.3268 17.6571 21.3129 17.661 21.299 17.663C21.2752 17.667 21.2534 17.6749 21.2375 17.6789C21.2216 17.6848 21.1998 17.6928 21.174 17.7027C21.1482 17.7126 21.1165 17.7285 21.0788 17.7503C21.0411 17.7721 20.9914 17.7999 20.9299 17.8317C20.8902 17.8515 20.8506 17.8733 20.8168 17.8912C20.7791 17.911 20.7414 17.9349 20.7037 17.9626C20.6541 18.0043 20.6164 18.04 20.5866 18.0638C20.5569 18.0896 20.5271 18.1154 20.5013 18.1373C20.4716 18.1591 20.4577 18.173 20.4537 18.177C20.4418 18.1889 20.41 18.2266 20.3604 18.2881C20.3128 18.3536 20.2751 18.4012 20.2533 18.4389C20.2434 18.4548 20.2255 18.4885 20.1937 18.5401C20.166 18.5956 20.1461 18.6274 20.1382 18.6393C20.1164 18.673 20.0945 18.7048 20.0707 18.7306C20.0469 18.7603 20.0251 18.7901 20.0052 18.8219C19.9715 18.8754 19.9378 18.9429 19.908 19.0263C19.8743 19.1116 19.8445 19.191 19.8187 19.2703C19.7929 19.3497 19.7651 19.4469 19.7373 19.568C19.7235 19.6096 19.7155 19.6573 19.7116 19.7029C19.7096 19.7505 19.7056 19.7942 19.7036 19.8398C19.7056 19.8716 19.7056 19.9053 19.7076 19.9351C19.7096 19.9648 19.7116 19.9986 19.7155 20.0323C19.7135 20.0442 19.7116 20.066 19.7135 20.0938C19.7116 20.1236 19.7135 20.1534 19.7155 20.1851C19.7175 20.2149 19.7175 20.2466 19.7155 20.2744C19.7135 20.3042 19.7116 20.32 19.7135 20.328C19.7175 20.3637 19.7314 20.4133 19.7512 20.4748C19.7731 20.5383 19.7989 20.6018 19.8286 20.6713C19.8604 20.7427 19.8941 20.8062 19.9259 20.8717C19.9596 20.9352 19.9933 20.9848 20.029 21.0225C20.0846 21.0781 20.1342 21.1277 20.1838 21.1793C20.2275 21.2209 20.2711 21.2586 20.3128 21.2963C20.3545 21.334 20.3882 21.3598 20.41 21.3737C20.4219 21.3817 20.4497 21.3975 20.4914 21.4214C20.537 21.4472 20.5807 21.473 20.6263 21.5007C20.674 21.5265 20.7196 21.5503 20.7633 21.5722C20.8089 21.596 20.8387 21.6079 20.8525 21.6099C20.8744 21.6178 20.9141 21.6297 20.9716 21.6436C21.0292 21.6575 21.0728 21.6654 21.1046 21.6654H21.1661C21.1859 21.6635 21.2077 21.6654 21.2335 21.6674C21.2613 21.6734 21.2911 21.6793 21.3208 21.6833C21.3486 21.6892 21.3784 21.6912 21.4121 21.6912C21.4756 21.6873 21.5233 21.6813 21.5649 21.6773C21.6046 21.6734 21.6463 21.6694 21.686 21.6615C21.7276 21.6555 21.7574 21.6515 21.7753 21.6496C21.7951 21.6436 21.8269 21.6297 21.8665 21.6099C21.9082 21.59 21.9539 21.5702 22.0035 21.5444C22.0531 21.5206 22.0987 21.4987 22.1463 21.4789C22.192 21.4591 22.2277 21.4392 22.2515 21.4253C22.2852 21.4055 22.311 21.3896 22.3269 21.3797C22.3468 21.3678 22.3686 21.3559 22.3904 21.34C22.4142 21.3241 22.44 21.3043 22.4698 21.2805C22.4976 21.2567 22.5372 21.2229 22.5829 21.1832C22.6285 21.1455 22.6742 21.1098 22.7178 21.0781C22.7635 21.0443 22.8051 21.0086 22.8428 20.9669C22.8607 20.9471 22.8885 20.9094 22.9282 20.8598C22.9659 20.8082 23.0075 20.7526 23.0512 20.6911L23.2139 20.4609C23.2754 20.3677 23.325 20.2645 23.3687 20.1573C23.4123 20.0482 23.45 19.945 23.4758 19.8517C23.5036 19.7605 23.5235 19.6791 23.5354 19.6156C23.5473 19.5481 23.5532 19.5164 23.5512 19.5084C23.5651 19.4787 23.5671 19.4569 23.5671 19.433ZM21.2454 20.4629C20.9657 20.4629 20.7355 20.2347 20.7355 19.9549C20.7355 19.6731 20.9657 19.4449 21.2454 19.4449C21.5272 19.4449 21.7554 19.6731 21.7554 19.9549C21.7554 20.2347 21.5272 20.4629 21.2454 20.4629Z" fill="white"/>
<path d="M9.16863 21.1198C9.16069 21.2627 9.15672 21.352 9.15672 21.3917V21.6397C9.14482 21.6675 9.13291 21.731 9.121 21.8402C9.10513 21.9513 9.10116 22.0187 9.10116 22.0465C9.10116 22.1358 9.10513 22.2152 9.121 22.2946C9.13291 22.372 9.14085 22.4493 9.14085 22.5267C9.14085 22.6418 9.11307 22.7629 9.06148 22.8899C9.0079 23.0169 8.95035 23.1141 8.88884 23.1796C8.86106 23.2034 8.80153 23.2312 8.71421 23.257C8.62492 23.2808 8.4503 23.2967 8.1963 23.2967C8.15661 23.2967 8.06533 23.2927 7.91849 23.2848C7.77165 23.2768 7.67045 23.2768 7.62282 23.2768C7.24977 23.2768 6.80924 23.2729 6.3072 23.2649C5.80119 23.257 5.35869 23.257 4.98761 23.257H4.79513C4.70385 23.257 4.6086 23.253 4.50939 23.2451C4.4062 23.2411 4.30698 23.2371 4.21967 23.2371H4.03116C3.9756 23.2371 3.88035 23.2411 3.74144 23.2451C3.59857 23.253 3.45173 23.257 3.29893 23.2649C3.14416 23.2729 2.9993 23.2768 2.85444 23.2848C2.71554 23.2927 2.61632 23.2967 2.5687 23.2967C2.46551 23.2967 2.36232 23.253 2.25914 23.1697C2.15992 23.0883 2.09444 23.0069 2.07062 22.9296C2.05475 22.878 2.05078 22.7827 2.05078 22.6438V22.372C2.05078 22.1557 2.07062 21.981 2.11626 21.854C2.16389 21.727 2.22143 21.5901 2.29882 21.4473C2.3147 21.4254 2.33851 21.3738 2.37621 21.2984C2.4159 21.2191 2.45956 21.1357 2.49924 21.0444C2.54687 20.9551 2.59052 20.8718 2.62624 20.7964C2.66593 20.719 2.69768 20.6615 2.72347 20.6238C2.77308 20.5444 2.81872 20.4729 2.86635 20.4015C2.90802 20.3281 2.95167 20.2566 2.98938 20.1773C3.03899 20.1158 3.08264 20.0423 3.11241 19.957C3.14614 19.8757 3.18186 19.7943 3.21956 19.7169C3.24337 19.6534 3.27711 19.5978 3.31481 19.5423C3.3545 19.4927 3.38823 19.4351 3.42593 19.3716C3.48149 19.3061 3.52515 19.2446 3.57277 19.1871C3.61643 19.1315 3.6581 19.072 3.6958 19.0045C3.73549 18.943 3.76724 18.8736 3.79105 18.8041C3.81486 18.7327 3.85058 18.6692 3.88829 18.6017C3.91011 18.5759 3.92996 18.5521 3.94583 18.5243C3.95774 18.4965 3.97758 18.4727 4.00536 18.4469C4.07878 18.3318 4.15816 18.1909 4.24547 18.0243C4.32683 17.8576 4.40025 17.7147 4.46573 17.5976C4.50542 17.5361 4.54709 17.4746 4.58876 17.417C4.63638 17.3575 4.6721 17.302 4.69195 17.2345C4.74751 17.1452 4.78521 17.046 4.80704 16.9368C4.83482 16.8297 4.84672 16.7602 4.84672 16.7364C4.84672 16.6213 4.79315 16.5539 4.68401 16.536C4.57685 16.5162 4.50343 16.5042 4.46375 16.5042C4.42406 16.5042 4.33278 16.5162 4.18594 16.536C4.0391 16.5539 3.93789 16.5618 3.89027 16.5618H3.61841C3.56682 16.5618 3.46364 16.5737 3.31282 16.5935C3.15805 16.6094 3.05288 16.6213 3.00327 16.6213C2.85047 16.6213 2.72347 16.5856 2.62029 16.5181C2.5171 16.4467 2.44765 16.3713 2.40796 16.2919C2.36828 16.2185 2.34645 16.1391 2.34248 16.0518C2.33454 15.9705 2.33057 15.78 2.33057 15.4883C2.33057 15.4367 2.32264 15.3295 2.30279 15.1708C2.28295 15.0081 2.27104 14.8949 2.27104 14.8354C2.27104 14.8076 2.27898 14.7342 2.29089 14.6132C2.30676 14.4901 2.31867 14.4088 2.33057 14.3691V14.1607C2.33057 14.0833 2.34248 14.0258 2.36828 13.9861C2.38018 13.9623 2.43574 13.8909 2.53099 13.7738C2.62624 13.6627 2.83658 13.6031 3.15805 13.6031H3.50332L3.54102 13.623H3.75533C3.79304 13.623 3.87043 13.619 3.9875 13.6111C4.09863 13.6071 4.22761 13.5992 4.35858 13.5912C4.49351 13.5873 4.62249 13.5793 4.73362 13.5734C4.84871 13.5694 4.93404 13.5654 4.98563 13.5654C5.11263 13.5654 5.26145 13.5694 5.42814 13.5734C5.59284 13.5793 5.73571 13.5833 5.85279 13.5833C5.89247 13.5833 5.95002 13.5873 6.02344 13.5912C6.10083 13.5992 6.19013 13.6031 6.28736 13.6031C6.37864 13.6031 6.46992 13.6071 6.54731 13.6111C6.62073 13.619 6.67828 13.623 6.71796 13.623C6.82115 13.623 6.92632 13.619 7.03347 13.6111C7.14063 13.6071 7.24977 13.6031 7.35097 13.6031C7.55536 13.5873 7.74188 13.5833 7.89865 13.5833H8.42847C8.50784 13.5833 8.57928 13.5912 8.65865 13.6111C8.73604 13.6309 8.82335 13.7023 8.92852 13.8135C8.99202 13.9067 9.02973 13.9782 9.03369 14.0337C9.04163 14.0913 9.03766 14.1806 9.02576 14.2977V14.7382C9.02576 14.9942 8.99004 15.1966 8.92852 15.3355C8.86304 15.4744 8.75589 15.6748 8.60111 15.9308C8.42252 16.1868 8.26972 16.4368 8.14074 16.6809C8.02366 16.8991 7.89468 17.1234 7.75776 17.3535C7.61489 17.5817 7.5117 17.7326 7.4482 17.7961C7.35891 17.9111 7.28548 18.0044 7.22794 18.0739C7.16841 18.1433 7.12078 18.2148 7.07316 18.2862C7.0295 18.3556 6.9799 18.433 6.93029 18.5184C6.87869 18.5997 6.8152 18.7208 6.73781 18.8696C6.62073 19.0918 6.52746 19.2843 6.45206 19.451C6.37269 19.6177 6.33697 19.7744 6.33697 19.9292C6.33697 20.1078 6.38658 20.215 6.48976 20.2467C6.59096 20.2765 6.6882 20.2924 6.77551 20.2924C6.8152 20.2924 6.8906 20.2884 7.00768 20.2844C7.12277 20.2765 7.20214 20.2725 7.24183 20.2725C7.26366 20.2725 7.31922 20.2686 7.40256 20.2666C7.4859 20.2586 7.5375 20.2547 7.56528 20.2547H7.70021C7.71212 20.2547 7.75577 20.2586 7.82324 20.2666C7.89468 20.2686 7.97405 20.2725 8.06335 20.2725H8.4503C8.5892 20.2725 8.73604 20.3281 8.89281 20.4273C9.04759 20.5305 9.13688 20.6714 9.16069 20.85C9.1726 20.8897 9.17657 20.9809 9.16863 21.1198Z" fill="white"/>
<path d="M17.5269 18.935C17.4792 18.7426 17.4296 18.5679 17.376 18.4151C17.3205 18.2604 17.2689 18.1314 17.2193 18.0322C17.1677 17.931 17.1399 17.8774 17.128 17.8675C17.1121 17.8317 17.0903 17.798 17.0665 17.7663C17.0447 17.7325 17.0189 17.7047 16.9931 17.6789C16.9653 17.6412 16.9375 17.6095 16.9097 17.5817C16.8819 17.5539 16.8542 17.5202 16.8264 17.4845C16.7788 17.4369 16.741 17.3873 16.7113 17.3337C16.6776 17.2781 16.6398 17.2285 16.5962 17.1848C16.5585 17.1471 16.4811 17.0737 16.362 16.9646C16.243 16.8535 16.1299 16.7681 16.0207 16.7066C15.9731 16.6788 15.9235 16.655 15.8699 16.6292C15.8144 16.6074 15.7648 16.5816 15.7211 16.5558C15.6477 16.5201 15.5842 16.4844 15.5286 16.4447C15.4731 16.409 15.4096 16.3752 15.3361 16.3514C15.3203 16.3395 15.2726 16.3236 15.2012 16.3018C15.1278 16.28 15.0385 16.2582 14.9333 16.2324C14.8281 16.2105 14.719 16.1907 14.6019 16.1708C14.4888 16.151 14.3817 16.1431 14.2824 16.1431C14.2348 16.1431 14.1455 16.149 14.0066 16.157C13.8717 16.1649 13.7844 16.1708 13.7487 16.1708C13.5284 16.1708 13.324 16.1867 13.1395 16.2185C12.9529 16.2522 12.7545 16.3177 12.5422 16.4169C12.5342 16.4288 12.4985 16.4467 12.435 16.4804C12.3695 16.5102 12.3021 16.5499 12.2286 16.5876C12.1572 16.6292 12.0878 16.6669 12.0243 16.6987C11.9588 16.7324 11.9231 16.7483 11.9131 16.7483C11.8655 16.784 11.8219 16.8138 11.7842 16.8416C11.7425 16.8693 11.6988 16.907 11.6512 16.9527C11.6075 17.0003 11.5639 17.044 11.5222 17.0896C11.4805 17.1333 11.4389 17.1809 11.3932 17.2265C11.3655 17.2424 11.3416 17.2603 11.3198 17.2741C11.294 17.288 11.2762 17.3039 11.2563 17.3218C11.2206 17.3495 11.1908 17.3773 11.169 17.3992C11.1472 17.421 11.1194 17.4507 11.0857 17.4865C11.0519 17.5222 11.0162 17.5738 10.9745 17.6373C10.9329 17.7008 10.8773 17.7841 10.8039 17.8833C10.7602 17.9468 10.7166 18.0103 10.6749 18.0679C10.6332 18.1294 10.5955 18.1949 10.5598 18.2663C10.5221 18.3675 10.4943 18.4509 10.4685 18.5144C10.4467 18.5779 10.4249 18.6374 10.403 18.691C10.3792 18.7465 10.3673 18.7783 10.3673 18.7882C10.3594 18.816 10.3475 18.8954 10.3336 19.0283C10.3197 19.1613 10.3118 19.2625 10.3118 19.3359C10.3118 19.3637 10.3177 19.4272 10.3257 19.5284C10.3376 19.6276 10.3395 19.6911 10.3395 19.7189C10.3395 19.7824 10.3376 19.8459 10.3257 19.9034C10.3177 19.9649 10.3118 20.0244 10.3118 20.0879C10.3118 20.1891 10.3316 20.3142 10.3673 20.459C10.403 20.6059 10.4408 20.7428 10.4824 20.8757C10.5241 21.0087 10.5876 21.1714 10.6689 21.3639C10.6947 21.4353 10.7324 21.5067 10.7761 21.5762C10.8237 21.6417 10.8674 21.7111 10.913 21.7746C10.9487 21.8183 10.9845 21.8619 11.0241 21.9036C11.0599 21.9453 11.1015 21.9889 11.1452 22.0326C11.1571 22.0524 11.175 22.0822 11.2087 22.1199C11.2385 22.1616 11.2742 22.2033 11.3099 22.2429C11.3456 22.2846 11.3793 22.3263 11.4071 22.366C11.4349 22.4076 11.4508 22.4315 11.4627 22.4394C11.5063 22.487 11.5837 22.5406 11.6889 22.61C11.7941 22.6795 11.9092 22.747 12.0362 22.8164C12.1651 22.8859 12.2921 22.9494 12.4211 23.0089C12.5481 23.0664 12.6612 23.1061 12.7624 23.124C12.9172 23.1518 13.0621 23.1796 13.201 23.2034C13.32 23.2232 13.4351 23.2391 13.5502 23.253C13.6633 23.2669 13.7487 23.2728 13.8042 23.2728C13.832 23.2728 13.8955 23.2708 13.9947 23.2669C14.0959 23.2609 14.2011 23.2589 14.3122 23.253C14.4194 23.247 14.5245 23.2411 14.6257 23.2311C14.725 23.2232 14.7904 23.2153 14.8162 23.2034C14.8639 23.1954 14.9432 23.1756 15.0563 23.1419C15.1714 23.1121 15.2548 23.0803 15.3103 23.0545C15.348 23.0347 15.3818 23.0188 15.4155 22.999C15.4453 22.9791 15.485 22.9633 15.5306 22.9434C15.5862 22.9275 15.6417 22.9077 15.6953 22.8879C15.7469 22.872 15.8025 22.8462 15.858 22.8184C15.9592 22.7549 16.0406 22.7033 16.1061 22.6616C16.1696 22.62 16.2331 22.5783 16.2966 22.5327C16.3601 22.485 16.4077 22.4553 16.4335 22.4354C16.4613 22.4076 16.499 22.364 16.5486 22.2985C16.5982 22.235 16.6537 22.1656 16.7133 22.0862C16.7708 22.0088 16.8284 21.9374 16.8839 21.8679C16.9395 21.7984 16.9812 21.7409 17.007 21.6972C17.0427 21.6417 17.0705 21.598 17.0863 21.5683C17.1062 21.5345 17.128 21.4988 17.1498 21.4571C17.1717 21.4155 17.1935 21.3659 17.2193 21.3063C17.2411 21.2488 17.2709 21.1694 17.3066 21.0662C17.3423 20.9749 17.38 20.8876 17.4217 20.7983C17.4634 20.713 17.4931 20.6257 17.513 20.5305C17.5209 20.4868 17.5288 20.4094 17.5407 20.3042C17.5487 20.1991 17.5566 20.084 17.5646 19.957L17.5923 19.4907C17.5943 19.314 17.5705 19.1255 17.5269 18.935ZM15.3758 19.8994C15.3599 20.0324 15.3401 20.1217 15.3203 20.1673C15.3123 20.203 15.2984 20.2388 15.2786 20.2685C15.2627 20.3023 15.2429 20.334 15.223 20.3737C15.2071 20.4173 15.1893 20.461 15.1754 20.5027C15.1615 20.5443 15.1397 20.588 15.1119 20.6317C15.096 20.6674 15.0464 20.7229 14.969 20.7964C14.8916 20.8678 14.7984 20.9452 14.6873 21.0226C14.5761 21.1 14.4531 21.1654 14.3162 21.221C14.1793 21.2766 14.0404 21.3043 13.9034 21.3043C13.8836 21.3043 13.7983 21.2924 13.6415 21.2686C13.4867 21.2468 13.3577 21.2131 13.2565 21.1674C13.0204 21.0404 12.8597 20.9174 12.7783 20.7983C12.695 20.6793 12.6295 20.5701 12.5858 20.4709C12.5382 20.3777 12.5005 20.2725 12.4668 20.1534C12.437 20.0344 12.4191 19.8677 12.4191 19.6474C12.4191 19.4391 12.4628 19.2585 12.5561 19.1136C12.6473 18.9708 12.7347 18.8457 12.814 18.7445C12.8795 18.6731 12.9351 18.6175 12.9787 18.5818C13.0264 18.5441 13.1216 18.4905 13.2684 18.4171C13.3597 18.3814 13.4391 18.3536 13.5026 18.3338C13.5661 18.3179 13.6316 18.2981 13.701 18.2782C13.7705 18.2623 13.828 18.2504 13.8737 18.2504C13.9649 18.2623 14.0384 18.2703 14.0939 18.2782C14.1495 18.2901 14.2269 18.2981 14.3281 18.306C14.3995 18.3258 14.4888 18.3556 14.59 18.4032C14.6892 18.4509 14.7507 18.4806 14.7666 18.5005C14.7785 18.5084 14.8023 18.5302 14.844 18.5699C14.8857 18.6056 14.9293 18.6473 14.973 18.691C15.0206 18.7386 15.0663 18.7822 15.1099 18.8239C15.1575 18.8656 15.1893 18.8973 15.2071 18.9251C15.2548 18.9966 15.2984 19.1116 15.3401 19.2664C15.3818 19.4212 15.4016 19.5422 15.4016 19.6216C15.4036 19.6732 15.3957 19.7685 15.3758 19.8994Z" fill="white"/>
<path d="M21.7079 23.6319C21.6027 23.5148 21.4221 23.5049 21.3031 23.6081C21.0173 23.8661 20.6502 24.0069 20.2692 24.0069C19.9557 24.0069 19.6521 23.9137 19.3941 23.7371C19.0012 23.4672 18.4714 23.4672 18.0765 23.7371C17.8185 23.9137 17.5169 24.0069 17.2034 24.0069C16.8224 24.0069 16.4533 23.8661 16.1696 23.6081C16.0525 23.5049 15.8719 23.5148 15.7647 23.6319C15.6596 23.749 15.6695 23.9296 15.7866 24.0347C16.1775 24.386 16.6815 24.5804 17.2034 24.5804C17.2113 24.5804 17.2173 24.5784 17.2252 24.5784V24.9059C17.2252 25.7393 17.9019 26.4199 18.7373 26.4199C19.5727 26.4199 20.2494 25.7413 20.2494 24.9059V24.5784C20.2573 24.5784 20.2633 24.5804 20.2712 24.5804C20.7931 24.5804 21.2951 24.386 21.688 24.0347C21.8031 23.9296 21.8111 23.749 21.7079 23.6319ZM19.6759 24.9059C19.6759 25.4238 19.2532 25.8464 18.7353 25.8464C18.2174 25.8464 17.7947 25.4238 17.7947 24.9059V24.4951C18.009 24.4316 18.2114 24.3363 18.4 24.2093C18.4158 24.1994 18.4317 24.1895 18.4496 24.1796V24.6003C18.4496 24.757 18.5766 24.886 18.7353 24.886C18.8921 24.886 19.0211 24.757 19.0211 24.6003V24.1796C19.0369 24.1895 19.0548 24.1994 19.0707 24.2093C19.2572 24.3363 19.4616 24.4336 19.6759 24.4951V24.9059Z" fill="white"/>
<path d="M13.9311 20.3439C14.2128 20.3439 14.4411 20.1156 14.4411 19.8339C14.4411 19.5523 14.2128 19.324 13.9311 19.324C13.6495 19.324 13.4211 19.5523 13.4211 19.8339C13.4211 20.1156 13.6495 20.3439 13.9311 20.3439Z" fill="#2B2B5F"/>
<path d="M19.9695 21.7746C19.8644 21.5305 19.6362 21.3638 19.3584 21.3321C19.1401 21.3063 18.9198 21.3658 18.7353 21.4908C18.5329 21.3539 18.2888 21.2964 18.0566 21.34C17.7689 21.3936 17.5467 21.592 17.4673 21.8699C17.3998 22.0981 17.4574 22.356 17.6141 22.5604C17.6201 22.5683 17.628 22.5763 17.636 22.5842L18.1697 23.1378C18.2987 23.2887 18.4853 23.378 18.6857 23.3819H18.6976C18.892 23.3819 19.0766 23.3006 19.2076 23.1597L19.8068 22.6001L19.8306 22.5763C19.9576 22.4275 20.0251 22.2409 20.0251 22.0584C20.0271 21.9611 20.0092 21.8659 19.9695 21.7746ZM19.3842 22.1754L18.7908 22.7291C18.7829 22.735 18.777 22.743 18.771 22.7489C18.7651 22.7549 18.7591 22.7608 18.7531 22.7648H18.7512C18.7373 22.7747 18.7254 22.7787 18.7135 22.7787C18.7075 22.7807 18.7016 22.7807 18.6976 22.7807C18.6817 22.7807 18.6519 22.7747 18.6281 22.7469C18.6222 22.741 18.6182 22.733 18.6123 22.7271L18.0844 22.1814C18.0507 22.1318 18.0348 22.0782 18.0467 22.0365C18.0487 22.0326 18.0507 22.0246 18.0547 22.0167C18.0547 22.0127 18.0586 22.0068 18.0626 22.0008C18.0685 21.9909 18.0765 21.979 18.0884 21.9711C18.0943 21.9631 18.1003 21.9591 18.1082 21.9552C18.1142 21.9512 18.1241 21.9472 18.134 21.9433C18.144 21.9393 18.1559 21.9353 18.1678 21.9334C18.2531 21.9175 18.3722 21.9472 18.4634 22.0465C18.4753 22.0564 18.4853 22.0683 18.4952 22.0822L18.519 22.11C18.5349 22.1278 18.5527 22.1417 18.5726 22.1556C18.6222 22.1873 18.6777 22.2052 18.7373 22.2052C18.8325 22.2052 18.9218 22.1596 18.9794 22.0842C18.9893 22.0703 19.0012 22.0564 19.0131 22.0445C19.0349 22.0207 19.0607 22.0008 19.0845 21.9849C19.1222 21.9611 19.1599 21.9453 19.1937 21.9373C19.2294 21.9294 19.2631 21.9274 19.2909 21.9314C19.3068 21.9334 19.3207 21.9373 19.3346 21.9413C19.3623 21.9492 19.3822 21.9631 19.3981 21.983C19.406 21.9929 19.4139 22.0028 19.4179 22.0147C19.4358 22.0603 19.4219 22.1238 19.3842 22.1754Z" fill="white"/>
</svg>
