<svg width="18" height="19" viewBox="0 0 18 19" fill="none" xmlns="http://www.w3.org/2000/svg">
<path d="M17.5048 17.5419C16.8444 18.2022 15.7742 18.2022 15.1138 17.5419L12.1304 14.5584C10.9039 15.3453 9.45397 15.8141 7.8885 15.8141C3.53211 15.8141 0 12.2825 0 7.92557C0 3.5687 3.53211 0.0371094 7.8885 0.0371094C12.2454 0.0371094 15.777 3.56862 15.777 7.92557C15.777 9.49052 15.3076 10.941 14.5213 12.1681L17.5048 15.1516C18.1651 15.8119 18.1651 16.8816 17.5048 17.5419ZM7.8885 2.29094C4.77679 2.29094 2.25387 4.8133 2.25387 7.92554C2.25387 11.0378 4.77682 13.5602 7.8885 13.5602C11.0007 13.5602 13.5231 11.0378 13.5231 7.92554C13.5231 4.8133 11.0007 2.29094 7.8885 2.29094Z" fill="#9AAABA" fill-opacity="0.6"/>
</svg>
